<?plantuml 1.2026.1?><svg xmlns="http://www.w3.org/2000/svg" xmlns:xlink="http://www.w3.org/1999/xlink" contentStyleType="text/css" data-diagram-type="ACTIVITY" height="854px" preserveAspectRatio="none" style="width:1004px;height:854px;background:#FEFEFE;" version="1.1" viewBox="0 0 1004 854" width="1004px" zoomAndPan="magnify"><title>Boucle agentique (Agentic Loop)
Cycle fondamental d'un agent Claude</title><defs/><g><rect fill="#FEFEFE" height="854" style="stroke:none;stroke-width:1;" width="1004" x="0" y="0"/><rect fill="#FFFFCC" height="49.9219" rx="2.5" ry="2.5" style="stroke:#FFDD88;stroke-width:3;" width="993.6758" x="5" y="5"/><text fill="#000000" font-family="monospace" font-size="10" lengthAdjust="spacing" textLength="295.0049" x="10" y="20">The&#160;syntax&#160;using&#160;the&#160;]&#160;character&#160;is&#160;now&#160;obsolete.</text><text fill="#000000" font-family="monospace" font-size="10" lengthAdjust="spacing" textLength="258.8818" x="10" y="31.6406">Please&#160;use&#160;the&#160;&lt;&lt;task&gt;&gt;&#160;stereotype&#160;instead.</text><text fill="#000000" font-family="monospace" font-size="10" lengthAdjust="spacing" textLength="397.3535" x="10" y="43.2813">For&#160;more&#160;details,&#160;visit&#160;https://plantuml.com/activity-diagram-beta</text><g class="title" data-source-line="14"><text fill="#000000" font-family="'Helvetica'" font-size="22" font-weight="bold" lengthAdjust="spacing" textLength="344.6631" x="321.0063" y="91.8623">Boucle agentique (Agentic Loop)</text><text fill="#000000" font-family="'Helvetica'" font-size="22" font-weight="bold" lengthAdjust="spacing" textLength="391.5098" x="297.583" y="113.8623">Cycle fondamental d'un agent Claude</text></g><ellipse cx="486.3379" cy="139.9219" fill="#FFFFFF" rx="10" ry="10" style="stroke:#000000;stroke-width:1;"/><rect fill="#F5F5F5" height="56" style="stroke:#AAAAAA;stroke-width:1;" width="158.7383" x="406.9688" y="169.9219"/><text fill="#000000" font-family="'Helvetica'" font-size="12" lengthAdjust="spacing" textLength="138.7383" x="416.9688" y="189.1621">Preparer le contexte initial</text><text fill="#000000" font-family="'Helvetica'" font-size="12" lengthAdjust="spacing" textLength="86.0156" x="416.9688" y="201.1621">- system prompt</text><text fill="#000000" font-family="'Helvetica'" font-size="12" lengthAdjust="spacing" textLength="65.3555" x="416.9688" y="213.1621">- messages[</text><rect fill="#F5F5F5" height="32" rx="12.5" ry="12.5" style="stroke:#AAAAAA;stroke-width:1;" width="55.3496" x="458.6631" y="245.9219"/><text fill="#000000" font-family="'Helvetica'" font-size="12" lengthAdjust="spacing" textLength="35.3496" x="468.6631" y="265.1621">tools[];</text><rect fill="#DDEEFF" height="44" rx="12.5" ry="12.5" style="stroke:#AAAAAA;stroke-width:1;" width="172.0918" x="400.292" y="341.9219"/><text fill="#000000" font-family="'Helvetica'" font-size="12" lengthAdjust="spacing" textLength="152.0918" x="410.292" y="361.1621">Envoyer requete API Claude</text><text fill="#000000" font-family="'Helvetica'" font-size="12" font-weight="bold" lengthAdjust="spacing" textLength="108.375" x="410.292" y="373.1621">(messages + tools)</text><rect fill="#F5F5F5" height="32" rx="12.5" ry="12.5" style="stroke:#AAAAAA;stroke-width:1;" width="126.7227" x="422.9766" y="405.9219"/><text fill="#000000" font-family="'Helvetica'" font-size="12" lengthAdjust="spacing" textLength="106.7227" x="432.9766" y="425.1621">Recevoir la reponse</text><polygon fill="#FFF3E0" points="424.3135,457.9219,548.3623,457.9219,560.3623,469.9219,548.3623,481.9219,424.3135,481.9219,412.3135,469.9219,424.3135,457.9219" style="stroke:#E65100;stroke-width:1;"/><text fill="#000000" font-family="'Helvetica'" font-size="12" lengthAdjust="spacing" textLength="49.3594" x="424.3135" y="473.1621">Inspecter</text><text fill="#000000" font-family="'Helvetica'" font-size="12" font-weight="bold" lengthAdjust="spacing" textLength="71.3555" x="477.0068" y="473.1621">stop_reason</text><rect fill="#E8F5E9" height="44" rx="12.5" ry="12.5" style="stroke:#AAAAAA;stroke-width:1;" width="125.7031" x="44.6748" y="515.9219"/><text fill="#000000" font-family="'Helvetica'" font-size="12" lengthAdjust="spacing" textLength="98.0391" x="54.6748" y="535.1621">Extraire le tool call</text><text fill="#000000" font-family="'Helvetica'" font-size="12" lengthAdjust="spacing" textLength="105.7031" x="54.6748" y="547.1621">(nom + parametres)</text><rect fill="#F5F5F5" height="44" rx="12.5" ry="12.5" style="stroke:#AAAAAA;stroke-width:1;" width="174.0723" x="20.4902" y="594.9219"/><text fill="#000000" font-family="'Helvetica'" font-size="12" lengthAdjust="spacing" textLength="77.6602" x="30.4902" y="614.1621">Executer l'outil</text><text fill="#000000" font-family="'Helvetica'" font-size="12" lengthAdjust="spacing" textLength="154.0723" x="30.4902" y="626.1621">(appel MCP / fonction locale)</text><path d="M229.0527,677.9219 L229.0527,696.9219 L209.0527,700.9219 L229.0527,704.9219 L229.0527,723.9219 A0,0 0 0 0 229.0527,723.9219 L403.416,723.9219 A0,0 0 0 0 403.416,723.9219 L403.416,687.9219 L393.416,677.9219 L229.0527,677.9219 A0,0 0 0 0 229.0527,677.9219" fill="#FFFFCC" style="stroke:#CCCC88;stroke-width:1;"/><path d="M393.416,677.9219 L393.416,687.9219 L403.416,687.9219 L393.416,677.9219" fill="#FFFFCC" style="stroke:#CCCC88;stroke-width:1;"/><text fill="#000000" font-family="'Helvetica'" font-size="12" font-weight="bold" lengthAdjust="spacing" textLength="153.3633" x="235.0527" y="692.1621">Pattern dans agentigslide :</text><text fill="#000000" font-family="'Helvetica'" font-size="12" lengthAdjust="spacing" textLength="103.4121" x="235.0527" y="704.1621">outliner.go:250-262</text><text fill="#000000" font-family="'Helvetica'" font-size="12" lengthAdjust="spacing" textLength="151.4121" x="235.0527" y="716.1621">accumulation des messages</text><rect fill="#F5F5F5" height="56" rx="12.5" ry="12.5" style="stroke:#AAAAAA;stroke-width:1;" width="203.0527" x="6" y="672.9219"/><text fill="#000000" font-family="'Helvetica'" font-size="12" lengthAdjust="spacing" textLength="119.3906" x="16" y="692.1621">Ajouter a messages[] :</text><text fill="#000000" font-family="'Helvetica'" font-size="12" lengthAdjust="spacing" textLength="164.0918" x="16" y="704.1621">1. reponse assistant (tool_use)</text><text fill="#000000" font-family="'Helvetica'" font-size="12" lengthAdjust="spacing" textLength="183.0527" x="16" y="716.1621">2. tool_result (resultat d'execution)</text><rect fill="#E8F5E9" height="32" rx="12.5" ry="12.5" style="stroke:#AAAAAA;stroke-width:1;" width="152.7383" x="423.416" y="515.9219"/><text fill="#000000" font-family="'Helvetica'" font-size="12" lengthAdjust="spacing" textLength="132.7383" x="433.416" y="535.1621">Extraire la reponse finale</text><ellipse cx="499.7852" cy="593.9219" fill="none" rx="11" ry="11" style="stroke:#000000;stroke-width:1;"/><ellipse cx="499.7852" cy="593.9219" fill="#FFFFFF" rx="6" ry="6" style="stroke:#000000;stroke-width:1;"/><path d="M772.252,515.9219 L772.252,551.9219 L752.252,555.9219 L772.252,559.9219 L772.252,595.9219 A0,0 0 0 0 772.252,595.9219 L956.6758,595.9219 A0,0 0 0 0 956.6758,595.9219 L956.6758,525.9219 L946.6758,515.9219 L772.252,515.9219 A0,0 0 0 0 772.252,515.9219" fill="#FFFFCC" style="stroke:#CCCC88;stroke-width:1;"/><path d="M946.6758,515.9219 L946.6758,525.9219 L956.6758,525.9219 L946.6758,515.9219" fill="#FFFFCC" style="stroke:#CCCC88;stroke-width:1;"/><text fill="#000000" font-family="'Helvetica'" font-size="12" font-weight="bold" lengthAdjust="spacing" textLength="67.9922" x="778.252" y="530.1621">Anti-pattern</text><text fill="#000000" font-family="'Helvetica'" font-size="12" lengthAdjust="spacing" textLength="44.0215" x="849.5781" y="530.1621">: ignorer</text><text fill="#000000" font-family="'Helvetica'" font-size="12" lengthAdjust="spacing" textLength="156.082" x="778.252" y="542.1621">silencieusement la troncature</text><line style="stroke:#CCCC88;stroke-width:1;" x1="772.252" x2="956.6758" y1="549.9219" y2="549.9219"/><text fill="#000000" font-family="'Helvetica'" font-size="12" font-weight="bold" lengthAdjust="spacing" textLength="85.3652" x="778.252" y="564.1621">Pattern correct</text><text fill="#000000" font-family="'Helvetica'" font-size="12" lengthAdjust="spacing" textLength="3.334" x="866.9512" y="564.1621">:</text><text fill="#000000" font-family="'Helvetica'" font-size="12" lengthAdjust="spacing" textLength="136.7168" x="778.252" y="576.1621">verifier systematiquement</text><text fill="#000000" font-family="'Helvetica'" font-size="12" lengthAdjust="spacing" textLength="163.4238" x="778.252" y="588.1621">(outliner.go:132, writer.go:155)</text><rect fill="#FFEBEE" height="56" rx="12.5" ry="12.5" style="stroke:#AAAAAA;stroke-width:1;" width="166.0977" x="586.1543" y="527.9219"/><text fill="#000000" font-family="'Helvetica'" font-size="12" lengthAdjust="spacing" textLength="88.7227" x="596.1543" y="547.1621">Sortie tronquee !</text><text fill="#000000" font-family="'Helvetica'" font-size="12" lengthAdjust="spacing" textLength="87.6563" x="596.1543" y="559.1621">Gerer l'erreur ou</text><text fill="#000000" font-family="'Helvetica'" font-size="12" lengthAdjust="spacing" textLength="146.0977" x="596.1543" y="571.1621">continuer avec continuation</text><ellipse cx="669.2031" cy="641.9219" fill="none" rx="11" ry="11" style="stroke:#000000;stroke-width:1;"/><ellipse cx="669.2031" cy="641.9219" fill="#FFFFFF" rx="6" ry="6" style="stroke:#000000;stroke-width:1;"/><polygon fill="#FFF3E0" points="486.3379,738.9219,486.3379,738.9219,498.3379,750.9219,486.3379,762.9219,486.3379,762.9219,474.3379,750.9219,486.3379,738.9219" style="stroke:#E65100;stroke-width:1;"/><polygon fill="#FFF3E0" points="486.3379,297.9219,498.3379,309.9219,486.3379,321.9219,474.3379,309.9219,486.3379,297.9219" style="stroke:#E65100;stroke-width:1;"/><polygon fill="#FFF3E0" points="468.6572,782.9219,504.0186,782.9219,516.0186,794.9219,504.0186,806.9219,468.6572,806.9219,456.6572,794.9219,468.6572,782.9219" style="stroke:#E65100;stroke-width:1;"/><text fill="#000000" font-family="'Helvetica'" font-size="12" lengthAdjust="spacing" textLength="35.3613" x="468.6572" y="798.1621">boucle</text><text fill="#000000" font-family="'Helvetica'" font-size="12" lengthAdjust="spacing" textLength="49.3652" x="516.0186" y="792.1621">continuer</text><ellipse cx="486.3379" cy="837.9219" fill="none" rx="11" ry="11" style="stroke:#000000;stroke-width:1;"/><ellipse cx="486.3379" cy="837.9219" fill="#FFFFFF" rx="6" ry="6" style="stroke:#000000;stroke-width:1;"/><line style="stroke:#333333;stroke-width:1;" x1="486.3379" x2="486.3379" y1="149.9219" y2="169.9219"/><polygon fill="#333333" points="482.3379,159.9219,486.3379,169.9219,490.3379,159.9219,486.3379,163.9219" style="stroke:#333333;stroke-width:1;"/><line style="stroke:#333333;stroke-width:1;" x1="486.3379" x2="486.3379" y1="225.9219" y2="245.9219"/><polygon fill="#333333" points="482.3379,235.9219,486.3379,245.9219,490.3379,235.9219,486.3379,239.9219" style="stroke:#333333;stroke-width:1;"/><line style="stroke:#333333;stroke-width:1;" x1="486.3379" x2="486.3379" y1="385.9219" y2="405.9219"/><polygon fill="#333333" points="482.3379,395.9219,486.3379,405.9219,490.3379,395.9219,486.3379,399.9219" style="stroke:#333333;stroke-width:1;"/><line style="stroke:#333333;stroke-width:1;" x1="107.5264" x2="107.5264" y1="559.9219" y2="594.9219"/><polygon fill="#333333" points="103.5264,584.9219,107.5264,594.9219,111.5264,584.9219,107.5264,588.9219" style="stroke:#333333;stroke-width:1;"/><line style="stroke:#333333;stroke-width:1;" x1="107.5264" x2="107.5264" y1="638.9219" y2="672.9219"/><polygon fill="#333333" points="103.5264,662.9219,107.5264,672.9219,111.5264,662.9219,107.5264,666.9219" style="stroke:#333333;stroke-width:1;"/><line style="stroke:#333333;stroke-width:1;" x1="499.7852" x2="499.7852" y1="547.9219" y2="582.9219"/><polygon fill="#333333" points="495.7852,572.9219,499.7852,582.9219,503.7852,572.9219,499.7852,576.9219" style="stroke:#333333;stroke-width:1;"/><line style="stroke:#333333;stroke-width:1;" x1="669.2031" x2="669.2031" y1="583.9219" y2="630.9219"/><polygon fill="#333333" points="665.2031,620.9219,669.2031,630.9219,673.2031,620.9219,669.2031,624.9219" style="stroke:#333333;stroke-width:1;"/><line style="stroke:#333333;stroke-width:1;" x1="412.3135" x2="107.5264" y1="469.9219" y2="469.9219"/><line style="stroke:#333333;stroke-width:1;" x1="107.5264" x2="107.5264" y1="469.9219" y2="515.9219"/><polygon fill="#333333" points="103.5264,505.9219,107.5264,515.9219,111.5264,505.9219,107.5264,509.9219" style="stroke:#333333;stroke-width:1;"/><text fill="#000000" font-family="'Helvetica'" font-size="12" lengthAdjust="spacing" textLength="3.334" x="107.5264" y="496.1621">&#160;</text><text fill="#000000" font-family="'Helvetica'" font-size="12" font-weight="bold" lengthAdjust="spacing" textLength="60.7207" x="110.8604" y="496.1621">"tool_use"</text><text fill="#000000" font-family="'Helvetica'" font-size="12" lengthAdjust="spacing" textLength="3.334" x="171.5811" y="496.1621">&#160;</text><line style="stroke:#333333;stroke-width:1;" x1="560.3623" x2="669.2031" y1="469.9219" y2="469.9219"/><line style="stroke:#333333;stroke-width:1;" x1="669.2031" x2="669.2031" y1="469.9219" y2="527.9219"/><polygon fill="#333333" points="665.2031,517.9219,669.2031,527.9219,673.2031,517.9219,669.2031,521.9219" style="stroke:#333333;stroke-width:1;"/><text fill="#000000" font-family="'Helvetica'" font-size="12" lengthAdjust="spacing" textLength="3.334" x="669.2031" y="502.1621">&#160;</text><text fill="#000000" font-family="'Helvetica'" font-size="12" font-weight="bold" lengthAdjust="spacing" textLength="80.748" x="672.5371" y="502.1621">"max_tokens"</text><text fill="#000000" font-family="'Helvetica'" font-size="12" lengthAdjust="spacing" textLength="3.334" x="753.2852" y="502.1621">&#160;</text><line style="stroke:#333333;stroke-width:1;" x1="486.3379" x2="486.3379" y1="481.9219" y2="493.2552"/><line style="stroke:#333333;stroke-width:1;" x1="486.3379" x2="499.7852" y1="493.2552" y2="493.2552"/><line style="stroke:#333333;stroke-width:1;" x1="499.7852" x2="499.7852" y1="493.2552" y2="515.9219"/><polygon fill="#333333" points="495.7852,505.9219,499.7852,515.9219,503.7852,505.9219,499.7852,509.9219" style="stroke:#333333;stroke-width:1;"/><text fill="#000000" font-family="'Helvetica'" font-size="12" lengthAdjust="spacing" textLength="3.334" x="486.3379" y="497.1621">&#160;</text><text fill="#000000" font-family="'Helvetica'" font-size="12" font-weight="bold" lengthAdjust="spacing" textLength="62.7129" x="489.6719" y="497.1621">"end_turn"</text><text fill="#000000" font-family="'Helvetica'" font-size="12" lengthAdjust="spacing" textLength="3.334" x="552.3848" y="497.1621">&#160;</text><line style="stroke:#333333;stroke-width:1;" x1="107.5264" x2="107.5264" y1="728.9219" y2="750.9219"/><line style="stroke:#333333;stroke-width:1;" x1="107.5264" x2="474.3379" y1="750.9219" y2="750.9219"/><polygon fill="#333333" points="464.3379,746.9219,474.3379,750.9219,464.3379,754.9219,468.3379,750.9219" style="stroke:#333333;stroke-width:1;"/><line style="stroke:#333333;stroke-width:1;" x1="486.3379" x2="486.3379" y1="437.9219" y2="457.9219"/><polygon fill="#333333" points="482.3379,447.9219,486.3379,457.9219,490.3379,447.9219,486.3379,451.9219" style="stroke:#333333;stroke-width:1;"/><line style="stroke:#333333;stroke-width:1;" x1="486.3379" x2="486.3379" y1="321.9219" y2="341.9219"/><polygon fill="#333333" points="482.3379,331.9219,486.3379,341.9219,490.3379,331.9219,486.3379,335.9219" style="stroke:#333333;stroke-width:1;"/><line style="stroke:#333333;stroke-width:1;" x1="516.0186" x2="968.6758" y1="794.9219" y2="794.9219"/><polygon fill="#333333" points="964.6758,597.9219,968.6758,587.9219,972.6758,597.9219,968.6758,593.9219" style="stroke:#333333;stroke-width:1;"/><line style="stroke:#333333;stroke-width:1;" x1="968.6758" x2="968.6758" y1="309.9219" y2="794.9219"/><line style="stroke:#333333;stroke-width:1;" x1="968.6758" x2="498.3379" y1="309.9219" y2="309.9219"/><polygon fill="#333333" points="508.3379,305.9219,498.3379,309.9219,508.3379,313.9219,504.3379,309.9219" style="stroke:#333333;stroke-width:1;"/><line style="stroke:#333333;stroke-width:1;" x1="486.3379" x2="486.3379" y1="762.9219" y2="782.9219"/><polygon fill="#333333" points="482.3379,772.9219,486.3379,782.9219,490.3379,772.9219,486.3379,776.9219" style="stroke:#333333;stroke-width:1;"/><line style="stroke:#333333;stroke-width:1;" x1="486.3379" x2="486.3379" y1="277.9219" y2="297.9219"/><polygon fill="#333333" points="482.3379,287.9219,486.3379,297.9219,490.3379,287.9219,486.3379,291.9219" style="stroke:#333333;stroke-width:1;"/><line style="stroke:#333333;stroke-width:1;" x1="486.3379" x2="486.3379" y1="806.9219" y2="826.9219"/><polygon fill="#333333" points="482.3379,816.9219,486.3379,826.9219,490.3379,816.9219,486.3379,820.9219" style="stroke:#333333;stroke-width:1;"/><?plantuml-src VLJ1Kjim4BtxAvPmm7ORIiA4eUOKWjCoqpAPScmx6I5l4XLPSYKv8VtwhcIRCIL5FjZIxhvzkq_h8xV14g6IJAZ8FWfLCSDAU63ySMrqhOgPbjh0yJptJy-Zm1MhfPjhvUuO8Gm-ezoY4vmD3dlTYpy8et7FQ3Uiq3kXrh1YqcBFCZL6xzhCvs7rZTo9hN3xwrSS9_uvvAbDWQRrceRLyxhJ3bzZqPhD_lNguyneNLuUo7OZMAbLSGZoF3zx8w2FdbzCHcTdKUI4amZNkkRqOcjKJlok4U9f-EJmHUig-Q5cUszV4GffeHoJK9pKgWc0cMHrWL5a7JCkYhA5GIA01YY4apBuv1244aum6Gt1xgt34YgZoyhHlaHh2SX-_qaRfxMahwie8X1a10TmV7EJv_DvbgkjtXEiGQ98aDF5RPSR84tZ3WZUDJ19cbxv-EmRSjngGOGO1LTQMGm6knEERo2-LRP2xWWwJQtJrT8WirgbQUAzEBFK438DFEgojZX8KqZ8GjJoo_aa_vZbJyumOT2NxBqeIChW4IjT4g6W23g3DhaAvnI2lFOvvOckdMYzMLMXXA-p1NpmxIO5jGAf2GwxmEal7U9OhtEG1TlejAiFcBM2125vuevsGtby6XXIZPOc1-BcpHmfYe4IPMnJARgJOCHwuyBMDtd17ELMK31bs_kojb8K25cQjbv4Jmg5vdIji_7aR3Y-6BSMndbTrfA5gWfIggiWs54L8UNBfjFfqjL6lTNqPrbX9HIrgg7lfNo9LRAdfTEFg6mFRJxFh_CykzV62LBFQ4NN2-4eM3zXkCWdQ0pMXaeBf_vM2rLx4RR8ksqewx-TcvBFi6hQHyap46kb2Rnri4AYuW999pzXlYPFXJEg7LkV8QrNId1DrBZpaArjYqQi195h9es5aVQWhJtk2pGw7x-7dH6ktKucoKin-fsamsPckl64tOPuG_mGVY0920lnStCI_qkWmBy0?></g></svg>