<?plantuml 1.2026.1?><svg xmlns="http://www.w3.org/2000/svg" xmlns:xlink="http://www.w3.org/1999/xlink" contentStyleType="text/css" data-diagram-type="DESCRIPTION" height="797px" preserveAspectRatio="none" style="width:724px;height:797px;background:#FEFEFE;" version="1.1" viewBox="0 0 724 797" width="724px" zoomAndPan="magnify"><title>Model Context Protocol (MCP)
Architecture client-serveur</title><defs/><g><rect fill="#FEFEFE" height="797" style="stroke:none;stroke-width:1;" width="724" x="0" y="0"/><g class="title" data-source-line="13"><text fill="#000000" font-family="'Helvetica'" font-size="22" font-weight="bold" lengthAdjust="spacing" textLength="316.54" x="199.23" y="31.9404">Model Context Protocol (MCP)</text><text fill="#000000" font-family="'Helvetica'" font-size="22" font-weight="bold" lengthAdjust="spacing" textLength="279.9951" x="217.5024" y="53.9404">Architecture client-serveur</text></g><!--cluster MCP Host (ex: Claude Code, IDE)--><g class="cluster" data-qualified-name="MCP Host .ex. Claude Code. IDE." data-source-line="15" id="ent0002"><path d="M102.5,76 L292.1836,76 A3.75,3.75 0 0 1 294.6836,78.5 L301.6836,94 L301.5,94 A2.5,2.5 0 0 1 304,96.5 L304,336.5 A2.5,2.5 0 0 1 301.5,339 L102.5,339 A2.5,2.5 0 0 1 100,336.5 L100,78.5 A2.5,2.5 0 0 1 102.5,76" fill="#E3F2FD" style="stroke:#888888;stroke-width:1;"/><line style="stroke:#888888;stroke-width:1;" x1="100" x2="301.6836" y1="94" y2="94"/><text fill="#000000" font-family="'Helvetica'" font-size="12" font-weight="bold" lengthAdjust="spacing" textLength="188.6836" x="104" y="87.2402">MCP Host (ex: Claude Code, IDE)</text></g><!--cluster Transport--><g class="cluster" data-qualified-name="Transport" data-source-line="20" id="ent0005"><path d="M13.5,404 L70.5039,404 A3.75,3.75 0 0 1 73.0039,406.5 L80.0039,422 L472.5,422 A2.5,2.5 0 0 1 475,424.5 L475,504.5 A2.5,2.5 0 0 1 472.5,507 L13.5,507 A2.5,2.5 0 0 1 11,504.5 L11,406.5 A2.5,2.5 0 0 1 13.5,404" fill="#FFF3E0" style="stroke:#888888;stroke-width:1;"/><line style="stroke:#888888;stroke-width:1;" x1="11" x2="80.0039" y1="422" y2="422"/><text fill="#000000" font-family="'Helvetica'" font-size="12" font-weight="bold" lengthAdjust="spacing" textLength="56.0039" x="15" y="415.2402">Transport</text></g><!--cluster MCP Server (ex: mcp-server/main.go)--><g class="cluster" data-qualified-name="MCP Server .ex. mcp-server.main.go." data-source-line="26" id="ent0009"><path d="M147.5,540 L361.9102,540 A3.75,3.75 0 0 1 364.4102,542.5 L371.4102,558 L714.5,558 A2.5,2.5 0 0 1 717,560.5 L717,650.5 A2.5,2.5 0 0 1 714.5,653 L147.5,653 A2.5,2.5 0 0 1 145,650.5 L145,542.5 A2.5,2.5 0 0 1 147.5,540" fill="#E8F5E9" style="stroke:#888888;stroke-width:1;"/><line style="stroke:#888888;stroke-width:1;" x1="145" x2="371.4102" y1="558" y2="558"/><text fill="#000000" font-family="'Helvetica'" font-size="12" font-weight="bold" lengthAdjust="spacing" textLength="213.4102" x="149" y="551.2402">MCP Server (ex: mcp-server/main.go)</text></g><!--entity app--><g class="entity" data-qualified-name="MCP Host .ex. Claude Code. IDE..app" data-source-line="16" id="ent0003"><rect fill="#FFFFFF" height="54" rx="2.5" ry="2.5" style="stroke:#888888;stroke-width:1;" width="98.7051" x="181.65" y="107"/><rect fill="#FFFFFF" height="10" style="stroke:#888888;stroke-width:1;" width="15" x="260.3551" y="112"/><rect fill="#FFFFFF" height="2" style="stroke:#888888;stroke-width:1;" width="4" x="258.3551" y="114"/><rect fill="#FFFFFF" height="2" style="stroke:#888888;stroke-width:1;" width="4" x="258.3551" y="118"/><text fill="#000000" font-family="'Helvetica'" font-size="12" lengthAdjust="spacing" textLength="58.7051" x="196.65" y="136.2402">Application</text><text fill="#000000" font-family="'Helvetica'" font-size="12" lengthAdjust="spacing" textLength="23.3555" x="196.65" y="148.2402">hote</text></g><!--entity client--><g class="entity" data-qualified-name="MCP Host .ex. Claude Code. IDE..client" data-source-line="17" id="ent0004"><rect fill="#BBDEFB" height="42" rx="2.5" ry="2.5" style="stroke:#888888;stroke-width:1;" width="103.334" x="182.33" y="281"/><rect fill="#BBDEFB" height="10" style="stroke:#888888;stroke-width:1;" width="15" x="265.664" y="286"/><rect fill="#BBDEFB" height="2" style="stroke:#888888;stroke-width:1;" width="4" x="263.664" y="288"/><rect fill="#BBDEFB" height="2" style="stroke:#888888;stroke-width:1;" width="4" x="263.664" y="292"/><text fill="#000000" font-family="'Helvetica'" font-size="12" font-weight="bold" lengthAdjust="spacing" textLength="63.334" x="197.33" y="310.2402">MCP Client</text></g><!--entity stdio--><g class="entity" data-qualified-name="Transport.stdio" data-source-line="21" id="ent0006"><rect fill="#FFE0B2" height="56" rx="2.5" ry="2.5" style="stroke:#888888;stroke-width:1;" width="102.7051" x="26.65" y="435"/><text fill="#000000" font-family="'Helvetica'" font-size="12" font-weight="bold" lengthAdjust="spacing" textLength="28.6641" x="36.65" y="454.2402">stdio</text><text fill="#000000" font-family="'Helvetica'" font-size="12" lengthAdjust="spacing" textLength="82.7051" x="36.65" y="466.2402">processus local</text><text fill="#000000" font-family="'Helvetica'" font-size="12" lengthAdjust="spacing" textLength="41.3555" x="36.65" y="478.2402">(defaut)</text></g><!--entity sse--><g class="entity" data-qualified-name="Transport.sse" data-source-line="22" id="ent0007"><rect fill="#FFE0B2" height="56" rx="2.5" ry="2.5" style="stroke:#888888;stroke-width:1;" width="140.041" x="163.98" y="435"/><text fill="#000000" font-family="'Helvetica'" font-size="12" font-weight="bold" lengthAdjust="spacing" textLength="24.0117" x="173.98" y="454.2402">SSE</text><text fill="#000000" font-family="'Helvetica'" font-size="12" lengthAdjust="spacing" textLength="104.0449" x="173.98" y="466.2402">Server-Sent Events</text><text fill="#000000" font-family="'Helvetica'" font-size="12" lengthAdjust="spacing" textLength="120.041" x="173.98" y="478.2402">(HTTP unidirectionnel)</text></g><!--entity http--><g class="entity" data-qualified-name="Transport.http" data-source-line="23" id="ent0008"><rect fill="#FFE0B2" height="56" rx="2.5" ry="2.5" style="stroke:#888888;stroke-width:1;" width="119.3633" x="339.32" y="435"/><text fill="#000000" font-family="'Helvetica'" font-size="12" font-weight="bold" lengthAdjust="spacing" textLength="99.3633" x="349.32" y="454.2402">HTTP Streamable</text><text fill="#000000" font-family="'Helvetica'" font-size="12" lengthAdjust="spacing" textLength="70.7109" x="349.32" y="466.2402">bidirectionnel</text><text fill="#000000" font-family="'Helvetica'" font-size="12" lengthAdjust="spacing" textLength="78.0234" x="349.32" y="478.2402">(recommande)</text></g><!--entity tools--><g class="entity" data-qualified-name="MCP Server .ex. mcp-server.main.go..tools" data-source-line="27" id="ent0010"><rect fill="#C8E6C9" height="66" rx="2.5" ry="2.5" style="stroke:#888888;stroke-width:1;" width="146.7285" x="160.64" y="571"/><rect fill="#C8E6C9" height="10" style="stroke:#888888;stroke-width:1;" width="15" x="287.3685" y="576"/><rect fill="#C8E6C9" height="2" style="stroke:#888888;stroke-width:1;" width="4" x="285.3685" y="578"/><rect fill="#C8E6C9" height="2" style="stroke:#888888;stroke-width:1;" width="4" x="285.3685" y="582"/><text fill="#000000" font-family="'Helvetica'" font-size="12" font-weight="bold" lengthAdjust="spacing" textLength="31.998" x="175.64" y="600.2402">Tools</text><text fill="#000000" font-family="'Helvetica'" font-size="12" lengthAdjust="spacing" textLength="106.7285" x="175.64" y="612.2402">Actions executables</text><text fill="#000000" font-family="'Helvetica'" font-size="12" lengthAdjust="spacing" textLength="92.7188" x="175.64" y="624.2402">(generate_slides)</text></g><!--entity resources--><g class="entity" data-qualified-name="MCP Server .ex. mcp-server.main.go..resources" data-source-line="28" id="ent0011"><rect fill="#C8E6C9" height="66" rx="2.5" ry="2.5" style="stroke:#888888;stroke-width:1;" width="160.7207" x="342.64" y="571"/><rect fill="#C8E6C9" height="10" style="stroke:#888888;stroke-width:1;" width="15" x="483.3607" y="576"/><rect fill="#C8E6C9" height="2" style="stroke:#888888;stroke-width:1;" width="4" x="481.3607" y="578"/><rect fill="#C8E6C9" height="2" style="stroke:#888888;stroke-width:1;" width="4" x="481.3607" y="582"/><text fill="#000000" font-family="'Helvetica'" font-size="12" font-weight="bold" lengthAdjust="spacing" textLength="61.3652" x="357.64" y="600.2402">Resources</text><text fill="#000000" font-family="'Helvetica'" font-size="12" lengthAdjust="spacing" textLength="118.0781" x="357.64" y="612.2402">Donnees consultables</text><text fill="#000000" font-family="'Helvetica'" font-size="12" lengthAdjust="spacing" textLength="120.7207" x="357.64" y="624.2402">(catalogues, schemas)</text></g><!--entity prompts--><g class="entity" data-qualified-name="MCP Server .ex. mcp-server.main.go..prompts" data-source-line="29" id="ent0012"><rect fill="#C8E6C9" height="54" rx="2.5" ry="2.5" style="stroke:#888888;stroke-width:1;" width="162.7188" x="538.64" y="577"/><rect fill="#C8E6C9" height="10" style="stroke:#888888;stroke-width:1;" width="15" x="681.3588" y="582"/><rect fill="#C8E6C9" height="2" style="stroke:#888888;stroke-width:1;" width="4" x="679.3588" y="584"/><rect fill="#C8E6C9" height="2" style="stroke:#888888;stroke-width:1;" width="4" x="679.3588" y="588"/><text fill="#000000" font-family="'Helvetica'" font-size="12" font-weight="bold" lengthAdjust="spacing" textLength="48.6738" x="553.64" y="606.2402">Prompts</text><text fill="#000000" font-family="'Helvetica'" font-size="12" lengthAdjust="spacing" textLength="122.7188" x="553.64" y="618.2402">Templates reutilisables</text></g><g class="entity" data-qualified-name="GMN22" data-source-line="45" id="ent0023"><path d="M112.8,700 L112.8,790 A0,0 0 0 0 112.8,790 L313.2082,790 A0,0 0 0 0 313.2082,790 L313.2082,710 L303.2082,700 L223.71,700 L229.13,637.24 L215.71,700 L112.8,700 A0,0 0 0 0 112.8,700" fill="#FFFFCC" style="stroke:#CCCC88;stroke-width:1;"/><path d="M303.2082,700 L303.2082,710 L313.2082,710 L303.2082,700" fill="#FFFFCC" style="stroke:#CCCC88;stroke-width:1;"/><text fill="#000000" font-family="'Helvetica'" font-size="12" font-weight="bold" lengthAdjust="spacing" textLength="130.7168" x="118.8" y="714.2402">Descriptions detaillees</text><text fill="#000000" font-family="'Helvetica'" font-size="12" lengthAdjust="spacing" textLength="45.3574" x="252.8508" y="714.2402">requises</text><text fill="#000000" font-family="'Helvetica'" font-size="12" lengthAdjust="spacing" textLength="72.3281" x="118.8" y="726.2402">- But de l'outil</text><text fill="#000000" font-family="'Helvetica'" font-size="12" lengthAdjust="spacing" textLength="135.0293" x="118.8" y="738.2402">- Format d'entree attendu</text><text fill="#000000" font-family="'Helvetica'" font-size="12" lengthAdjust="spacing" textLength="66.0059" x="118.8" y="750.2402">- Cas limites</text><text fill="#000000" font-family="'Helvetica'" font-size="12" lengthAdjust="spacing" textLength="94.6934" x="118.8" y="762.2402">- Format de sortie</text><line style="stroke:#CCCC88;stroke-width:1;" x1="113.8" x2="312.2082" y1="765" y2="765"/><text fill="#000000" font-family="'Helvetica'" font-size="12" lengthAdjust="spacing" textLength="118.7227" x="118.8" y="778.2402">Cf. tool_description.txt</text></g><g class="entity" data-qualified-name="GMN25" data-source-line="55" id="ent0026"><path d="M348.13,706 L348.13,784 A0,0 0 0 0 348.13,784 L541.8761,784 A0,0 0 0 0 541.8761,784 L541.8761,716 L531.8761,706 L442.91,706 L428.1,637.24 L434.91,706 L348.13,706 A0,0 0 0 0 348.13,706" fill="#FFFFCC" style="stroke:#CCCC88;stroke-width:1;"/><path d="M531.8761,706 L531.8761,716 L541.8761,716 L531.8761,706" fill="#FFFFCC" style="stroke:#CCCC88;stroke-width:1;"/><text fill="#000000" font-family="'Helvetica'" font-size="12" font-weight="bold" lengthAdjust="spacing" textLength="132.0176" x="354.13" y="720.2402">Catalogues de contenu</text><text fill="#000000" font-family="'Helvetica'" font-size="12" lengthAdjust="spacing" textLength="120.0703" x="354.13" y="732.2402">Donnent de la visibilite</text><text fill="#000000" font-family="'Helvetica'" font-size="12" lengthAdjust="spacing" textLength="136.0781" x="354.13" y="744.2402">sans appels exploratoires</text><line style="stroke:#CCCC88;stroke-width:1;" x1="349.13" x2="540.8761" y1="747" y2="747"/><text fill="#000000" font-family="'Helvetica'" font-size="12" lengthAdjust="spacing" textLength="127.4063" x="354.13" y="760.2402">Ex: template_index.json</text><text fill="#000000" font-family="'Helvetica'" font-size="12" lengthAdjust="spacing" textLength="172.7461" x="354.13" y="772.2402">pourrait etre une Resource MCP</text></g><g class="entity" data-qualified-name="GMN28" data-source-line="64" id="ent0029"><path d="M320.79,247 L320.79,298 L285.89,302 L320.79,306 L320.79,357 A0,0 0 0 0 320.79,357 L473.2041,357 A0,0 0 0 0 473.2041,357 L473.2041,257 L463.2041,247 L320.79,247 A0,0 0 0 0 320.79,247" fill="#FFFFCC" style="stroke:#CCCC88;stroke-width:1;"/><path d="M463.2041,247 L463.2041,257 L473.2041,257 L463.2041,247" fill="#FFFFCC" style="stroke:#CCCC88;stroke-width:1;"/><text fill="#000000" font-family="'Helvetica'" font-size="12" font-weight="bold" lengthAdjust="spacing" textLength="78.6504" x="326.79" y="261.2402">Configuration</text><text fill="#000000" font-family="'Helvetica'" font-size="12" lengthAdjust="spacing" textLength="92.7012" x="326.79" y="273.2402">Projet : .mcp.json</text><text fill="#000000" font-family="'Helvetica'" font-size="12" lengthAdjust="spacing" textLength="107.3906" x="326.79" y="285.2402">(versionne, partage)</text><line style="stroke:#CCCC88;stroke-width:1;" x1="321.79" x2="472.2041" y1="288" y2="288"/><text fill="#000000" font-family="'Helvetica'" font-size="12" lengthAdjust="spacing" textLength="131.4141" x="326.79" y="301.2402">Personnel : /.claude.json</text><text fill="#000000" font-family="'Helvetica'" font-size="12" lengthAdjust="spacing" textLength="76.6934" x="326.79" y="313.2402">(experimental)</text><line style="stroke:#CCCC88;stroke-width:1;" x1="321.79" x2="472.2041" y1="320" y2="320"/><text fill="#000000" font-family="'Helvetica'" font-size="12" lengthAdjust="spacing" textLength="88.3418" x="326.79" y="333.2402">Variables d'env :</text><text fill="#000000" font-family="'Helvetica'" font-size="12" lengthAdjust="spacing" textLength="108.0352" x="326.79" y="345.2402">${GITHUB_TOKEN}</text></g><!--link app to client--><g class="link" data-entity-1="ent0003" data-entity-2="ent0004" data-link-type="dependency" data-source-line="32" id="lnk13"><path d="M231.48,161.3 C232.07,194.4 232.9822,244.531 233.5222,274.581" fill="none" id="app-to-client" style="stroke:#333333;stroke-width:1;"/><polygon fill="#333333" points="233.63,280.58,237.4676,271.5096,233.5402,275.5808,229.4689,271.6533,233.63,280.58" style="stroke:#333333;stroke-width:1;"/><text fill="#000000" font-family="'Helvetica'" font-size="12" lengthAdjust="spacing" textLength="59.373" x="233.41" y="201.2402">decouverte</text><text fill="#000000" font-family="'Helvetica'" font-size="12" lengthAdjust="spacing" textLength="28.0137" x="249.0897" y="213.2402">outils</text></g><!--link client to stdio--><g class="link" data-entity-1="ent0004" data-entity-2="ent0006" data-link-type="dependency" data-source-line="33" id="lnk14"><path d="M213.93,323.46 C186.11,351.81 139.9818,398.8269 108.9918,430.4169" fill="none" id="client-to-stdio" style="stroke:#333333;stroke-width:1;"/><polygon fill="#333333" points="104.79,434.7,113.9481,431.0765,108.2915,431.1307,108.2372,425.4741,104.79,434.7" style="stroke:#333333;stroke-width:1;"/></g><!--link client to sse--><g class="link" data-entity-1="ent0004" data-entity-2="ent0007" data-link-type="dependency" data-source-line="34" id="lnk15"><path d="M234,323.46 C234,351.81 234,397.11 234,428.7" fill="none" id="client-to-sse" style="stroke:#333333;stroke-width:1;"/><polygon fill="#333333" points="234,434.7,238,425.7,234,429.7,230,425.7,234,434.7" style="stroke:#333333;stroke-width:1;"/></g><!--link client to http--><g class="link" data-entity-1="ent0004" data-entity-2="ent0008" data-link-type="dependency" data-source-line="35" id="lnk16"><path d="M255.23,323.46 C284.65,351.81 333.559,398.9472 366.349,430.5372" fill="none" id="client-to-http" style="stroke:#333333;stroke-width:1;"/><polygon fill="#333333" points="370.67,434.7,366.9638,425.5751,367.0692,431.231,361.4133,431.3364,370.67,434.7" style="stroke:#333333;stroke-width:1;"/></g><!--link stdio to tools--><g class="link" data-entity-1="ent0006" data-entity-2="ent0010" data-link-type="dependency" data-source-line="37" id="lnk17"><path d="M108.82,491.46 C134.39,514.25 166.3202,542.6986 193.2902,566.7286" fill="none" id="stdio-to-tools" style="stroke:#333333;stroke-width:1;"/><polygon fill="#333333" points="197.77,570.72,193.7113,561.7463,194.0369,567.3938,188.3894,567.7194,197.77,570.72" style="stroke:#333333;stroke-width:1;"/></g><!--link sse to tools--><g class="link" data-entity-1="ent0007" data-entity-2="ent0010" data-link-type="dependency" data-source-line="38" id="lnk18"><path d="M234,491.46 C234,514.25 234,540.69 234,564.72" fill="none" id="sse-to-tools" style="stroke:#333333;stroke-width:1;"/><polygon fill="#333333" points="234,570.72,238,561.72,234,565.72,230,561.72,234,570.72" style="stroke:#333333;stroke-width:1;"/></g><!--link http to tools--><g class="link" data-entity-1="ent0008" data-entity-2="ent0010" data-link-type="dependency" data-source-line="39" id="lnk19"><path d="M366.4,491.46 C339.35,514.25 305.4284,542.8239 276.9084,566.8539" fill="none" id="http-to-tools" style="stroke:#333333;stroke-width:1;"/><polygon fill="#333333" points="272.32,570.72,281.78,567.9799,276.1437,567.4983,276.6253,561.862,272.32,570.72" style="stroke:#333333;stroke-width:1;"/></g><!--link tools to resources--><!--link resources to prompts--><?plantuml-src VLHjRzis4FwkNt5p1ZGHOhTBq27DXm6nB2z5qSoelNsPXu2MpZ9RYkJ8askqo7vxZvHVPAUT0iGWx_ZSStVFtK-qmXh1AY5ruZz9ROKJDIn4yQbofj5bPfHnS3REmr_7eyIbQ1IDZQO7mGYzUrHh95c8tlUzfl8BmYzN7QDVYT9ybhg2fL0UEvOxvypdRUJh-7MCcQcjqQXfQ5o9Rkjs4x-EsuHJ41N-lzE38Hm-ovM_B3lrwk9a_1tXVC22XAxKTyCb94aXl3SbAcQl2JS44sV854R1-VjiSZ7NTwvOIMAOnY4KId9-VOzkZOrB4jlc0ZtsXNlZ2SvnSmkP4as935dY9RmTvHSzECklnrVZ4NnD08fTeQ1tPwtYrf0qUgvNd4uFX0TXxR5RceO0MOoUfj6dfG9dm-4e7m-JfmwPcHFQM-Ee5sjsdR-AOTsk5W7FKobDciwrTQP0xniFoXH2pVLvr0PTn2ZHBQ3ahuPNfnZJQHuGfg4QhZyDTF8r__SCSZ-RJQ3HifJX2QUdKMqXFVu8C3wQaaDHYuN20BuuGc1WFfYw5hh45cv5PFTuJoSjQQcrJQaBspRElQnvg0QLYMsv6R_Etvos9KrdnYWV2Dp5s1vmWqL3WLP8hqADJX0-UYLBz2qL2czOX3VvhzcRKy0Fw4tZkDG1T1IoGMuY8_COxb1P24APga5_2RxW1I2so6xt-4VehDhQKiIUOSrRWp2yQaWgwIDynB6jsnw5wyLQWtx_jvsURdar5ARXAX7EjGa0FjdQWbiKnD45BuZECRGZILhPX7EiIH9wVZZ5bXsEILkt_jyhMPQe_t6oMX5RzqadX_IVEMqpIXBDmmCBGsHgCCijD42QZj0NJjgsYoMIa4fXQ0C7-BUH7eDR7uODiHNKYvXpl1eRLmk-VS79EKGGHAZB9jeohgQIDMy6V-IBu7dm98PB_lWdMmuYcyVoG6H06qeO2mBhPzmFYGV-sLuK0Rq8QqetQSgsg2BTqXQmbbukkDqKOdlU066De0hAjRpr11aU97_WbVDCq5OhZvBdQJFuw8rcY-NeJaW2vBHvY15suWKUgbFUiHE1Tgk2bhFHIrarBYwso9K5-X63l0OyXxj0vomp7oVx4dXV4y_jnO7WX8rnwldLVoy7HLog-wUS5JfPSqIXEe_-4av6lSUshU6Mxtx--llRsVsVmyVP7-_oXwT30jy0?></g></svg>