<?plantuml 1.2026.1?><svg xmlns="http://www.w3.org/2000/svg" xmlns:xlink="http://www.w3.org/1999/xlink" contentStyleType="text/css" data-diagram-type="DESCRIPTION" height="933px" preserveAspectRatio="none" style="width:596px;height:933px;background:#FEFEFE;" version="1.1" viewBox="0 0 596 933" width="596px" zoomAndPan="magnify"><title>Orchestration multi-agent Hub-and-Spoke
agentigslide : pipeline de generation de presentations</title><defs/><g><rect fill="#FEFEFE" height="933" style="stroke:none;stroke-width:1;" width="596" x="0" y="0"/><g class="title" data-source-line="12"><text fill="#000000" font-family="'Helvetica'" font-size="22" font-weight="bold" lengthAdjust="spacing" textLength="437.583" x="77.9814" y="31.9404">Orchestration multi-agent Hub-and-Spoke</text><text fill="#000000" font-family="'Helvetica'" font-size="22" font-weight="bold" lengthAdjust="spacing" textLength="563.5459" x="15" y="53.9404">agentigslide : pipeline de generation de presentations</text></g><!--cluster orch--><g class="cluster" data-qualified-name="orch" data-source-line="16" id="ent0003"><path d="M81.0152,169 L261.3882,169 A3.75,3.75 0 0 1 263.8882,171.5 L270.8882,187 L376.0152,187 A2.5,2.5 0 0 1 378.5152,189.5 L378.5152,805.5 A2.5,2.5 0 0 1 376.0152,808 L81.0152,808 A2.5,2.5 0 0 1 78.5152,805.5 L78.5152,171.5 A2.5,2.5 0 0 1 81.0152,169" fill="#FFFFFF" style="stroke:#000000;stroke-width:1;"/><line style="stroke:#000000;stroke-width:1;" x1="78.5152" x2="270.8882" y1="187" y2="187"/><text fill="#000000" font-family="'Helvetica'" font-size="12" font-weight="bold" lengthAdjust="spacing" textLength="179.373" x="82.5152" y="180.2402">Orchestrateur (orchestrator.go)</text></g><!--entity outliner--><g class="entity" data-qualified-name="orch.outliner" data-source-line="18" id="ent0004"><rect fill="#C5CAE9" height="56" rx="2.5" ry="2.5" style="stroke:#888888;stroke-width:1;" width="124.7129" x="193.1552" y="200"/><text fill="#000000" font-family="'Helvetica'" font-size="12" font-weight="bold" lengthAdjust="spacing" textLength="59.3438" x="203.1552" y="219.2402">1. Outliner</text><text fill="#000000" font-family="'Helvetica'" font-size="12" lengthAdjust="spacing" textLength="79.3945" x="203.1552" y="231.2402">Claude Sonnet</text><text fill="#000000" font-family="'Helvetica'" font-size="12" font-style="italic" lengthAdjust="spacing" textLength="104.7129" x="203.1552" y="243.2402">Analyse structurelle</text></g><!--entity selector--><g class="entity" data-qualified-name="orch.selector" data-source-line="19" id="ent0005"><rect fill="#CE93D8" height="56" rx="2.5" ry="2.5" style="stroke:#888888;stroke-width:1;" width="141.7402" x="214.6452" y="331"/><text fill="#000000" font-family="'Helvetica'" font-size="12" font-weight="bold" lengthAdjust="spacing" textLength="60.6973" x="224.6452" y="350.2402">2. Selector</text><text fill="#000000" font-family="'Helvetica'" font-size="12" lengthAdjust="spacing" textLength="121.7402" x="224.6452" y="362.2402">Claude Sonnet (T=0.1)</text><text fill="#000000" font-family="'Helvetica'" font-size="12" font-style="italic" lengthAdjust="spacing" textLength="104.0508" x="224.6452" y="374.2402">Matching templates</text></g><!--entity writers--><g class="entity" data-qualified-name="orch.writers" data-source-line="20" id="ent0006"><rect fill="#80CBC4" height="56" rx="2.5" ry="2.5" style="stroke:#888888;stroke-width:1;" width="140.0762" x="215.4752" y="469"/><text fill="#000000" font-family="'Helvetica'" font-size="12" font-weight="bold" lengthAdjust="spacing" textLength="54.6855" x="225.4752" y="488.2402">3. Writers</text><text fill="#000000" font-family="'Helvetica'" font-size="12" lengthAdjust="spacing" textLength="59.3555" x="283.4947" y="488.2402">(paralleles)</text><text fill="#000000" font-family="'Helvetica'" font-size="12" lengthAdjust="spacing" textLength="120.0762" x="225.4752" y="500.2402">Claude Haiku / Sonnet</text><text fill="#000000" font-family="'Helvetica'" font-size="12" font-style="italic" lengthAdjust="spacing" textLength="105.4102" x="225.4752" y="512.2402">Generation contenu</text></g><!--entity assembler--><g class="entity" data-qualified-name="orch.assembler" data-source-line="21" id="ent0007"><rect fill="#B0BEC5" height="56" rx="2.5" ry="2.5" style="stroke:#888888;stroke-width:1;" width="112.0566" x="250.4852" y="606"/><text fill="#000000" font-family="'Helvetica'" font-size="12" font-weight="bold" lengthAdjust="spacing" textLength="74.707" x="260.4852" y="625.2402">4. Assembler</text><text fill="#000000" font-family="'Helvetica'" font-size="12" lengthAdjust="spacing" textLength="48.0293" x="260.4852" y="637.2402">Code Go</text><text fill="#000000" font-family="'Helvetica'" font-size="12" font-style="italic" lengthAdjust="spacing" textLength="92.0566" x="260.4852" y="649.2402">Assemblage plan</text></g><!--entity reviewer--><g class="entity" data-qualified-name="orch.reviewer" data-source-line="22" id="ent0008"><rect fill="#EF9A9A" height="56" rx="2.5" ry="2.5" style="stroke:#888888;stroke-width:1;" width="111.4004" x="131.8152" y="736"/><text fill="#000000" font-family="'Helvetica'" font-size="12" font-weight="bold" lengthAdjust="spacing" textLength="66.041" x="141.8152" y="755.2402">5. Reviewer</text><text fill="#000000" font-family="'Helvetica'" font-size="12" lengthAdjust="spacing" textLength="70.043" x="141.8152" y="767.2402">Claude Opus</text><text fill="#000000" font-family="'Helvetica'" font-size="12" font-style="italic" lengthAdjust="spacing" textLength="91.4004" x="141.8152" y="779.2402">Validation qualite</text></g><!--entity input--><g class="entity" data-qualified-name="input" data-source-line="14" id="ent0002"><rect fill="#E3F2FD" height="32" rx="2.5" ry="2.5" style="stroke:#888888;stroke-width:1;" width="120.0605" x="195.4852" y="77"/><text fill="#000000" font-family="'Helvetica'" font-size="12" lengthAdjust="spacing" textLength="100.0605" x="205.4852" y="96.2402">Requete utilisateur</text></g><!--entity output--><g class="entity" data-qualified-name="output" data-source-line="25" id="ent0009"><rect fill="#E8F5E9" height="44" rx="2.5" ry="2.5" style="stroke:#888888;stroke-width:1;" width="119.3984" x="34.8152" y="875"/><text fill="#000000" font-family="'Helvetica'" font-size="12" lengthAdjust="spacing" textLength="97.3887" x="44.8152" y="894.2402">Google Slides API</text><text fill="#000000" font-family="'Helvetica'" font-size="12" lengthAdjust="spacing" textLength="99.3984" x="44.8152" y="906.2402">Presentation finale</text></g><g class="entity" data-qualified-name="GMN13" data-source-line="32" id="ent0014"><path d="M394.6552,330 L394.6552,355 L356.7352,359 L394.6552,363 L394.6552,388 A0,0 0 0 0 394.6552,388 L520.3681,388 A0,0 0 0 0 520.3681,388 L520.3681,340 L510.3681,330 L394.6552,330 A0,0 0 0 0 394.6552,330" fill="#FFFFCC" style="stroke:#CCCC88;stroke-width:1;"/><path d="M510.3681,330 L510.3681,340 L520.3681,340 L510.3681,330" fill="#FFFFCC" style="stroke:#CCCC88;stroke-width:1;"/><text fill="#000000" font-family="'Helvetica'" font-size="12" font-weight="bold" lengthAdjust="spacing" textLength="85.3477" x="400.6552" y="344.2402">Validation gate</text><text fill="#000000" font-family="'Helvetica'" font-size="12" lengthAdjust="spacing" textLength="98.7188" x="400.6552" y="356.2402">validateSelection()</text><text fill="#000000" font-family="'Helvetica'" font-size="12" lengthAdjust="spacing" textLength="104.7129" x="400.6552" y="368.2402">Retry avec injection</text><text fill="#000000" font-family="'Helvetica'" font-size="12" lengthAdjust="spacing" textLength="90.9785" x="400.6552" y="380.2402">d'erreur (max 2x)</text></g><g class="entity" data-qualified-name="GMN17" data-source-line="41" id="ent0018"><path d="M394.2952,462 L394.2952,493 L355.8952,497 L394.2952,501 L394.2952,532 A0,0 0 0 0 394.2952,532 L572.7307,532 A0,0 0 0 0 572.7307,532 L572.7307,472 L562.7307,462 L394.2952,462 A0,0 0 0 0 394.2952,462" fill="#FFFFCC" style="stroke:#CCCC88;stroke-width:1;"/><path d="M562.7307,462 L562.7307,472 L572.7307,472 L562.7307,462" fill="#FFFFCC" style="stroke:#CCCC88;stroke-width:1;"/><text fill="#000000" font-family="'Helvetica'" font-size="12" font-weight="bold" lengthAdjust="spacing" textLength="109.377" x="400.2952" y="476.2402">Execution parallele</text><text fill="#000000" font-family="'Helvetica'" font-size="12" lengthAdjust="spacing" textLength="147.7324" x="400.2952" y="488.2402">semaphore (MaxParallel=3)</text><text fill="#000000" font-family="'Helvetica'" font-size="12" lengthAdjust="spacing" textLength="157.4355" x="400.2952" y="500.2402">Selection modele adaptative :</text><text fill="#000000" font-family="'Helvetica'" font-size="12" lengthAdjust="spacing" textLength="114.0527" x="400.2952" y="512.2402">- &lt;=2 champs : Haiku</text><text fill="#000000" font-family="'Helvetica'" font-size="12" lengthAdjust="spacing" textLength="114.3984" x="400.2952" y="524.2402">- &gt;2 champs : Sonnet</text></g><g class="entity" data-qualified-name="GMN24" data-source-line="55" id="ent0025"><path d="M189.3152,868 L189.3152,926 A0,0 0 0 0 189.3152,926 L369.7136,926 A0,0 0 0 0 369.7136,926 L369.7136,878 L359.7136,868 L263.6152,868 L206.8052,792.46 L255.6152,868 L189.3152,868 A0,0 0 0 0 189.3152,868" fill="#FFFFCC" style="stroke:#CCCC88;stroke-width:1;"/><path d="M359.7136,868 L359.7136,878 L369.7136,878 L359.7136,868" fill="#FFFFCC" style="stroke:#CCCC88;stroke-width:1;"/><text fill="#000000" font-family="'Helvetica'" font-size="12" font-weight="bold" lengthAdjust="spacing" textLength="112.7051" x="195.3152" y="882.2402">Boucle de feedback</text><text fill="#000000" font-family="'Helvetica'" font-size="12" lengthAdjust="spacing" textLength="159.3984" x="195.3152" y="894.2402">Re-review ciblee (RunSubset)</text><text fill="#000000" font-family="'Helvetica'" font-size="12" lengthAdjust="spacing" textLength="69.3516" x="195.3152" y="906.2402">Max 2 retries</text><text fill="#000000" font-family="'Helvetica'" font-size="12" lengthAdjust="spacing" textLength="147.4453" x="195.3152" y="918.2402">Extended thinking optionnel</text></g><!--link input to outliner--><g class="link" data-entity-1="ent0002" data-entity-2="ent0004" data-link-type="dependency" data-source-line="27" id="lnk10"><path d="M255.5152,109.26 C255.5152,131.3 255.5152,166.39 255.5152,193.72" fill="none" id="input-to-outliner" style="stroke:#333333;stroke-width:1;"/><polygon fill="#333333" points="255.5152,199.72,259.5152,190.72,255.5152,194.72,251.5152,190.72,255.5152,199.72" style="stroke:#333333;stroke-width:1;"/><text fill="#000000" font-family="'Helvetica'" font-size="12" lengthAdjust="spacing" textLength="99.3867" x="256.5152" y="149.2402">requete markdown</text></g><!--link outliner to selector--><g class="link" data-entity-1="ent0004" data-entity-2="ent0005" data-link-type="dependency" data-source-line="28" id="lnk11"><path d="M261.8752,256.36 C266.9652,278.25 272.7157,302.956 277.8057,324.836" fill="none" id="outliner-to-selector" style="stroke:#333333;stroke-width:1;"/><polygon fill="#333333" points="279.1652,330.68,281.0219,321.0077,278.0323,325.81,273.23,322.8204,279.1652,330.68" style="stroke:#333333;stroke-width:1;"/><text fill="#000000" font-family="'Helvetica'" font-size="12" lengthAdjust="spacing" textLength="105.3984" x="272.4152" y="296.2402">PresentationOutline</text></g><!--link selector to writers--><g class="link" data-entity-1="ent0005" data-entity-2="ent0006" data-link-type="dependency" data-source-line="29" id="lnk12"><path d="M285.5152,387.19 C285.5152,410.91 285.5152,439.15 285.5152,462.85" fill="none" id="selector-to-writers" style="stroke:#333333;stroke-width:1;"/><polygon fill="#333333" points="285.5152,468.85,289.5152,459.85,285.5152,463.85,281.5152,459.85,285.5152,468.85" style="stroke:#333333;stroke-width:1;"/><text fill="#000000" font-family="'Helvetica'" font-size="12" lengthAdjust="spacing" textLength="73.3828" x="286.5152" y="428.2402">SelectionPlan</text></g><!--link writers to assembler--><g class="link" data-entity-1="ent0006" data-entity-2="ent0007" data-link-type="dependency" data-source-line="38" id="lnk16"><path d="M289.7652,525.32 C293.4052,548.74 297.7008,576.3816 301.3508,599.7916" fill="none" id="writers-to-assembler" style="stroke:#333333;stroke-width:1;"/><polygon fill="#333333" points="302.2752,605.72,304.8409,596.2112,301.5049,600.7797,296.9364,597.4437,302.2752,605.72" style="stroke:#333333;stroke-width:1;"/><text fill="#000000" font-family="'Helvetica'" font-size="12" lengthAdjust="spacing" textLength="75.3809" x="298.2752" y="572.2402">SlideContent[]</text></g><!--link assembler to reviewer--><g class="link" data-entity-1="ent0007" data-entity-2="ent0008" data-link-type="dependency" data-source-line="48" id="lnk20"><path d="M280.9852,662.46 C260.9052,684.06 237.1492,709.6045 217.0892,731.1945" fill="none" id="assembler-to-reviewer" style="stroke:#333333;stroke-width:1;"/><polygon fill="#333333" points="213.0052,735.59,222.0616,731.7194,216.4085,731.9271,216.2009,726.274,213.0052,735.59" style="stroke:#333333;stroke-width:1;"/><text fill="#000000" font-family="'Helvetica'" font-size="12" lengthAdjust="spacing" textLength="83.3906" x="251.5852" y="702.2402">GenerationPlan</text></g><!--link reviewer to output--><g class="link" data-entity-1="ent0008" data-entity-2="ent0009" data-link-type="dependency" data-source-line="50" id="lnk21"><path d="M168.0152,792.46 C150.6552,816.92 129.0785,847.3176 113.1685,869.7276" fill="none" id="reviewer-to-output" style="stroke:#333333;stroke-width:1;"/><polygon fill="#333333" points="109.6952,874.62,118.1668,869.597,112.5897,870.543,111.6436,864.9658,109.6952,874.62" style="stroke:#333333;stroke-width:1;"/><text fill="#000000" font-family="'Helvetica'" font-size="12" font-weight="bold" lengthAdjust="spacing" textLength="56.0039" x="144.8052" y="834.2402">Approuve</text></g><!--reverse link writers to reviewer--><g class="link" data-entity-1="ent0006" data-entity-2="ent0008" data-link-type="dependency" data-source-line="52" id="lnk23"><path d="M224.1122,528.5136 C193.5822,546.7236 163.7752,570.73 146.5152,606 C125.5852,648.76 150.1552,703.49 169.2752,735.74" fill="none" id="writers-backto-reviewer" style="stroke:#333333;stroke-width:1;"/><polygon fill="#333333" points="229.2652,525.44,219.4867,526.615,224.971,528.0013,223.5847,533.4857,229.2652,525.44" style="stroke:#333333;stroke-width:1;"/><text fill="#000000" font-family="'Helvetica'" font-size="12" font-weight="bold" lengthAdjust="spacing" textLength="29.3438" x="175.1978" y="625.2402">Rejet</text><text fill="#000000" font-family="'Helvetica'" font-size="12" lengthAdjust="spacing" textLength="80.6953" x="149.522" y="637.2402">ReviewIssues[]</text><text fill="#000000" font-family="'Helvetica'" font-size="12" lengthAdjust="spacing" textLength="84.709" x="147.5152" y="649.2402">(feedback cible)</text></g><?plantuml-src RLLDSzem4BtxLsp9eU0P885c9c6Qpe0BIGzfCj1f3w47OI-W8akkFWXjf_-zAt_Xq9W3U7VrzkdjatXZjvWYP89n6PWTbndJB8KLYtSRhPnC8YMKXhFPr7yQ5GckcHDsfgJzp0YXTOTYZvR7hFLwrOB_HhWOD99conBrpEK6ramOR6J6MgldilCmVnh9IAMPaYZjHEa4TLbsbJ-Dii_AukI_RT0JHQTLJPo8dXSuSumjank1hxKBBBS2uK77MpHMCykLX9HspBjiGnJXpgswJ2RTHQPsk9Hva6-Cu0d223AUeU0IIIUW39O0z9PfD5IQlviWq1K9QCtnfqEBu2mNt32BJhU06I2-piBPT3WRp3u6GKPRfsxGEdAZIcYh-bNftaPryhK-M8Wpcy6V801eD0p3YnuyEEk9wZ1SoaWmHnGNIagqIzdlZoKJlmm2mRhOEer2OBzV89VhIDZBQ3ozFeKUz621WYBgVsXeVxavxrrqV8jxPkEjjuh5bCngqPGDJBcQ6aolXn-lJXiCU_1DSulQX26q_KY9d43JgPlTCRvpq6_iv_OuYfYSYzALpPuB91h_UJI9tftsUjU3iJ6OhaGfb2BuMvLBLCJzH8Y-BF5OLGrda_F9DBeyHRpiaV_s79zVAF-GEUD1lpBoKS7pfwFVjb9Tbsl83hFhyVKu-Fl2GhTA-U-5Tw61yUEdfNni-0tMd0QArVmAMrtDBcbwGU6oBfrRsVrmdEw8MXQsJ9dU-MnGvwhYUb8ZQ7OhdHNKwQg-4djKEeHg7qcw891qPa7ppTQ2MjUm95qODXJPa4d2aABx8eOrIhj3qJbQ_GlO7cCwEJ-A18MJjwXrVb1ITe31eHEWJC1t38AAK4NmEBrHeMMKcyK-VJ_bMAxCAKuF6BkSOMt6d2PXiMohD4BxdXqUozpDq9EjgKDAbgBHiOHbNhuztIAKxyBxcm74MvPcNg_SqNduGoDQ-BkndoF_QaUrRqPmF0E5w7MgCNjlXH5jQPnbTCdk_JuQTGBNziKOmt2EFz1w8nUc_cICG_FqVIdRQyJ4_-b0p8bHfnHmfQnLgLUmWiqbd2WNY_pIh9Rb2iwnMvGL82JatCc5MncqNiHxFr02ifgZ7yNqGCDAC05B5ylEtoqgy_kLA8uY_GC0?></g></svg>