<?plantuml 1.2026.1?><svg xmlns="http://www.w3.org/2000/svg" xmlns:xlink="http://www.w3.org/1999/xlink" contentStyleType="text/css" data-diagram-type="ACTIVITY" height="406px" preserveAspectRatio="none" style="width:1536px;height:406px;background:#FEFEFE;" version="1.1" viewBox="0 0 1536 406" width="1536px" zoomAndPan="magnify"><title>Arbre de decision : choix du mode tool_choice
Configuration de la sortie structuree</title><defs/><g><rect fill="#FEFEFE" height="406" style="stroke:none;stroke-width:1;" width="1536" x="0" y="0"/><g class="title" data-source-line="14"><text fill="#000000" font-family="'Helvetica'" font-size="22" font-weight="bold" lengthAdjust="spacing" textLength="488.9736" x="522.2017" y="31.9404">Arbre de decision : choix du mode tool_choice</text><text fill="#000000" font-family="'Helvetica'" font-size="22" font-weight="bold" lengthAdjust="spacing" textLength="380.166" x="576.6055" y="53.9404">Configuration de la sortie structuree</text></g><ellipse cx="528.7134" cy="80" fill="#FFFFFF" rx="10" ry="10" style="stroke:#000000;stroke-width:1;"/><polygon fill="#FFF3E0" points="481.0122,110,576.4146,110,588.4146,122,576.4146,134,481.0122,134,469.0122,122,481.0122,110" style="stroke:#E65100;stroke-width:1;"/><text fill="#000000" font-family="'Helvetica'" font-size="12" lengthAdjust="spacing" textLength="95.4023" x="481.0122" y="119.2402">Extended thinking</text><text fill="#000000" font-family="'Helvetica'" font-size="12" lengthAdjust="spacing" textLength="41.3555" x="481.0122" y="131.2402">active ?</text><text fill="#000000" font-family="'Helvetica'" font-size="12" lengthAdjust="spacing" textLength="16.0137" x="452.9985" y="119.2402">oui</text><text fill="#000000" font-family="'Helvetica'" font-size="12" lengthAdjust="spacing" textLength="20.0215" x="588.4146" y="119.2402">non</text><path d="M210.7773,161 L210.7773,174 L190.7773,178 L210.7773,182 L210.7773,195 A0,0 0 0 0 210.7773,195 L363.1855,195 A0,0 0 0 0 363.1855,195 L363.1855,171 L353.1855,161 L210.7773,161 A0,0 0 0 0 210.7773,161" fill="#FFFFCC" style="stroke:#CCCC88;stroke-width:1;"/><path d="M353.1855,161 L353.1855,171 L363.1855,171 L353.1855,161" fill="#FFFFCC" style="stroke:#CCCC88;stroke-width:1;"/><text fill="#000000" font-family="'Helvetica'" font-size="12" font-weight="bold" lengthAdjust="spacing" textLength="114.7324" x="216.7773" y="175.2402">reviewer.go:110-116</text><text fill="#000000" font-family="'Helvetica'" font-size="12" lengthAdjust="spacing" textLength="131.4082" x="216.7773" y="187.2402">temperature forcee a 1.0</text><rect fill="#FFEBEE" height="68" rx="12.5" ry="12.5" style="stroke:#AAAAAA;stroke-width:1;" width="184.7773" x="6" y="144"/><text fill="#000000" font-family="'Helvetica'" font-size="12" lengthAdjust="spacing" textLength="36.668" x="16" y="163.2402">Utiliser</text><text fill="#000000" font-family="'Helvetica'" font-size="12" font-weight="bold" lengthAdjust="spacing" textLength="110.7188" x="56.002" y="163.2402">tool_choice: "auto"</text><text fill="#000000" font-family="'Helvetica'" font-size="12" lengthAdjust="spacing" textLength="118.7402" x="16" y="175.2402">(contrainte technique :</text><text fill="#000000" font-family="'Helvetica'" font-size="12" lengthAdjust="spacing" textLength="164.7773" x="16" y="187.2402">extended thinking incompatible</text><text fill="#000000" font-family="'Helvetica'" font-size="12" lengthAdjust="spacing" textLength="139.4063" x="16" y="199.2402">avec forced tool selection)</text><polygon fill="#FFF3E0" points="931.0059,144,1027.0703,144,1039.0703,156,1027.0703,168,931.0059,168,919.0059,156,931.0059,144" style="stroke:#E65100;stroke-width:1;"/><text fill="#000000" font-family="'Helvetica'" font-size="12" lengthAdjust="spacing" textLength="88.0371" x="931.0059" y="153.2402">Sortie structuree</text><text fill="#000000" font-family="'Helvetica'" font-size="12" lengthAdjust="spacing" textLength="96.0645" x="931.0059" y="165.2402">garantie requise ?</text><text fill="#000000" font-family="'Helvetica'" font-size="12" lengthAdjust="spacing" textLength="16.0137" x="902.9922" y="153.2402">oui</text><text fill="#000000" font-family="'Helvetica'" font-size="12" lengthAdjust="spacing" textLength="20.0215" x="1039.0703" y="153.2402">non</text><polygon fill="#FFF3E0" points="646.1396,178,712.1748,178,724.1748,190,712.1748,202,646.1396,202,634.1396,190,646.1396,178" style="stroke:#E65100;stroke-width:1;"/><text fill="#000000" font-family="'Helvetica'" font-size="12" lengthAdjust="spacing" textLength="66.0352" x="646.1396" y="187.2402">Un seul outil</text><text fill="#000000" font-family="'Helvetica'" font-size="12" lengthAdjust="spacing" textLength="64.0488" x="646.1396" y="199.2402">disponible ?</text><text fill="#000000" font-family="'Helvetica'" font-size="12" lengthAdjust="spacing" textLength="16.0137" x="618.126" y="187.2402">oui</text><text fill="#000000" font-family="'Helvetica'" font-size="12" lengthAdjust="spacing" textLength="20.0215" x="724.1748" y="187.2402">non</text><path d="M589.2773,217 L589.2773,236 L569.2773,240 L589.2773,244 L589.2773,263 A0,0 0 0 0 589.2773,263 L775.0254,263 A0,0 0 0 0 775.0254,263 L775.0254,227 L765.0254,217 L589.2773,217 A0,0 0 0 0 589.2773,217" fill="#FFFFCC" style="stroke:#CCCC88;stroke-width:1;"/><path d="M765.0254,217 L765.0254,227 L775.0254,227 L765.0254,217" fill="#FFFFCC" style="stroke:#CCCC88;stroke-width:1;"/><text fill="#000000" font-family="'Helvetica'" font-size="12" font-weight="bold" lengthAdjust="spacing" textLength="141.3633" x="595.2773" y="231.2402">Outliner, Selector, Writer</text><text fill="#000000" font-family="'Helvetica'" font-size="12" lengthAdjust="spacing" textLength="164.748" x="595.2773" y="243.2402">Elimine les reponses textuelles</text><text fill="#000000" font-family="'Helvetica'" font-size="12" lengthAdjust="spacing" textLength="136.0488" x="595.2773" y="255.2402">Garantit le schema JSON</text><rect fill="#E8F5E9" height="56" rx="12.5" ry="12.5" style="stroke:#AAAAAA;stroke-width:1;" width="196.0918" x="373.1855" y="212"/><text fill="#000000" font-family="'Helvetica'" font-size="12" lengthAdjust="spacing" textLength="36.668" x="383.1855" y="231.2402">Utiliser</text><text fill="#000000" font-family="'Helvetica'" font-size="12" font-weight="bold" lengthAdjust="spacing" textLength="110.6836" x="423.1875" y="231.2402">tool_choice: forced</text><text fill="#000000" font-family="'Helvetica'" font-size="12" font-style="italic" lengthAdjust="spacing" textLength="102.0527" x="383.1855" y="243.2402">type: tool, name: ...</text><text fill="#000000" font-family="'Helvetica'" font-size="12" lengthAdjust="spacing" textLength="3.334" x="485.2383" y="243.2402">.</text><text fill="#000000" font-family="'Helvetica'" font-size="12" lengthAdjust="spacing" textLength="176.0918" x="383.1855" y="255.2402">Le modele DOIT appeler cet outil</text><path d="M989.1406,217 L989.1406,236 L969.1406,240 L989.1406,244 L989.1406,263 A0,0 0 0 0 989.1406,263 L1173.5586,263 A0,0 0 0 0 1173.5586,263 L1173.5586,227 L1163.5586,217 L989.1406,217 A0,0 0 0 0 989.1406,217" fill="#FFFFCC" style="stroke:#CCCC88;stroke-width:1;"/><path d="M1163.5586,217 L1163.5586,227 L1173.5586,227 L1163.5586,217" fill="#FFFFCC" style="stroke:#CCCC88;stroke-width:1;"/><text fill="#000000" font-family="'Helvetica'" font-size="12" lengthAdjust="spacing" textLength="163.418" x="995.1406" y="231.2402">Utile quand plusieurs schemas</text><text fill="#000000" font-family="'Helvetica'" font-size="12" lengthAdjust="spacing" textLength="131.6953" x="995.1406" y="243.2402">d'extraction existent et le</text><text fill="#000000" font-family="'Helvetica'" font-size="12" lengthAdjust="spacing" textLength="160.1074" x="995.1406" y="255.2402">type de document est inconnu</text><rect fill="#E8F5E9" height="56" rx="12.5" ry="12.5" style="stroke:#AAAAAA;stroke-width:1;" width="184.1152" x="785.0254" y="212"/><text fill="#000000" font-family="'Helvetica'" font-size="12" lengthAdjust="spacing" textLength="36.668" x="795.0254" y="231.2402">Utiliser</text><text fill="#000000" font-family="'Helvetica'" font-size="12" font-weight="bold" lengthAdjust="spacing" textLength="106.0664" x="835.0273" y="231.2402">tool_choice: "any"</text><text fill="#000000" font-family="'Helvetica'" font-size="12" lengthAdjust="spacing" textLength="164.1152" x="795.0254" y="243.2402">Le modele doit appeler un outil</text><text fill="#000000" font-family="'Helvetica'" font-size="12" lengthAdjust="spacing" textLength="133.3887" x="795.0254" y="255.2402">(mais peut choisir lequel)</text><polygon fill="#FFF3E0" points="679.1572,274,691.1572,286,679.1572,298,667.1572,286,679.1572,274" style="stroke:#E65100;stroke-width:1;"/><path d="M1374.2793,183 L1374.2793,202 L1354.2793,206 L1374.2793,210 L1374.2793,229 A0,0 0 0 0 1374.2793,229 L1529.377,229 A0,0 0 0 0 1529.377,229 L1529.377,193 L1519.377,183 L1374.2793,183 A0,0 0 0 0 1374.2793,183" fill="#FFFFCC" style="stroke:#CCCC88;stroke-width:1;"/><path d="M1519.377,183 L1519.377,193 L1529.377,193 L1519.377,183" fill="#FFFFCC" style="stroke:#CCCC88;stroke-width:1;"/><text fill="#000000" font-family="'Helvetica'" font-size="12" lengthAdjust="spacing" textLength="87.3926" x="1380.2793" y="197.2402">Mode par defaut</text><text fill="#000000" font-family="'Helvetica'" font-size="12" lengthAdjust="spacing" textLength="134.0977" x="1380.2793" y="209.2402">Le modele peut repondre</text><text fill="#000000" font-family="'Helvetica'" font-size="12" lengthAdjust="spacing" textLength="68.707" x="1380.2793" y="221.2402">en texte libre</text><rect fill="#DDEEFF" height="56" rx="12.5" ry="12.5" style="stroke:#AAAAAA;stroke-width:1;" width="170.7207" x="1183.5586" y="178"/><text fill="#000000" font-family="'Helvetica'" font-size="12" lengthAdjust="spacing" textLength="36.668" x="1193.5586" y="197.2402">Utiliser</text><text fill="#000000" font-family="'Helvetica'" font-size="12" font-weight="bold" lengthAdjust="spacing" textLength="110.7188" x="1233.5605" y="197.2402">tool_choice: "auto"</text><text fill="#000000" font-family="'Helvetica'" font-size="12" lengthAdjust="spacing" textLength="147.4219" x="1193.5586" y="209.2402">Le modele decide librement</text><text fill="#000000" font-family="'Helvetica'" font-size="12" lengthAdjust="spacing" textLength="131.0625" x="1193.5586" y="221.2402">d'appeler ou non un outil</text><polygon fill="#FFF3E0" points="979.0381,304,991.0381,316,979.0381,328,967.0381,316,979.0381,304" style="stroke:#E65100;stroke-width:1;"/><polygon fill="#FFF3E0" points="528.7134,334,540.7134,346,528.7134,358,516.7134,346,528.7134,334" style="stroke:#E65100;stroke-width:1;"/><ellipse cx="528.7134" cy="389" fill="none" rx="11" ry="11" style="stroke:#000000;stroke-width:1;"/><ellipse cx="528.7134" cy="389" fill="#FFFFFF" rx="6" ry="6" style="stroke:#000000;stroke-width:1;"/><line style="stroke:#333333;stroke-width:1;" x1="634.1396" x2="471.2314" y1="190" y2="190"/><line style="stroke:#333333;stroke-width:1;" x1="471.2314" x2="471.2314" y1="190" y2="212"/><polygon fill="#333333" points="467.2314,202,471.2314,212,475.2314,202,471.2314,206" style="stroke:#333333;stroke-width:1;"/><line style="stroke:#333333;stroke-width:1;" x1="724.1748" x2="877.083" y1="190" y2="190"/><line style="stroke:#333333;stroke-width:1;" x1="877.083" x2="877.083" y1="190" y2="212"/><polygon fill="#333333" points="873.083,202,877.083,212,881.083,202,877.083,206" style="stroke:#333333;stroke-width:1;"/><line style="stroke:#333333;stroke-width:1;" x1="471.2314" x2="471.2314" y1="268" y2="286"/><line style="stroke:#333333;stroke-width:1;" x1="471.2314" x2="667.1572" y1="286" y2="286"/><polygon fill="#333333" points="657.1572,282,667.1572,286,657.1572,290,661.1572,286" style="stroke:#333333;stroke-width:1;"/><line style="stroke:#333333;stroke-width:1;" x1="877.083" x2="877.083" y1="268" y2="286"/><line style="stroke:#333333;stroke-width:1;" x1="877.083" x2="691.1572" y1="286" y2="286"/><polygon fill="#333333" points="701.1572,282,691.1572,286,701.1572,290,697.1572,286" style="stroke:#333333;stroke-width:1;"/><line style="stroke:#333333;stroke-width:1;" x1="919.0059" x2="679.1572" y1="156" y2="156"/><line style="stroke:#333333;stroke-width:1;" x1="679.1572" x2="679.1572" y1="156" y2="178"/><polygon fill="#333333" points="675.1572,168,679.1572,178,683.1572,168,679.1572,172" style="stroke:#333333;stroke-width:1;"/><line style="stroke:#333333;stroke-width:1;" x1="1039.0703" x2="1268.9189" y1="156" y2="156"/><line style="stroke:#333333;stroke-width:1;" x1="1268.9189" x2="1268.9189" y1="156" y2="178"/><polygon fill="#333333" points="1264.9189,168,1268.9189,178,1272.9189,168,1268.9189,172" style="stroke:#333333;stroke-width:1;"/><line style="stroke:#333333;stroke-width:1;" x1="679.1572" x2="679.1572" y1="298" y2="316"/><line style="stroke:#333333;stroke-width:1;" x1="679.1572" x2="967.0381" y1="316" y2="316"/><polygon fill="#333333" points="957.0381,312,967.0381,316,957.0381,320,961.0381,316" style="stroke:#333333;stroke-width:1;"/><line style="stroke:#333333;stroke-width:1;" x1="1268.9189" x2="1268.9189" y1="234" y2="316"/><line style="stroke:#333333;stroke-width:1;" x1="1268.9189" x2="991.0381" y1="316" y2="316"/><polygon fill="#333333" points="1001.0381,312,991.0381,316,1001.0381,320,997.0381,316" style="stroke:#333333;stroke-width:1;"/><line style="stroke:#333333;stroke-width:1;" x1="469.0122" x2="98.3887" y1="122" y2="122"/><line style="stroke:#333333;stroke-width:1;" x1="98.3887" x2="98.3887" y1="122" y2="144"/><polygon fill="#333333" points="94.3887,134,98.3887,144,102.3887,134,98.3887,138" style="stroke:#333333;stroke-width:1;"/><line style="stroke:#333333;stroke-width:1;" x1="588.4146" x2="979.0381" y1="122" y2="122"/><line style="stroke:#333333;stroke-width:1;" x1="979.0381" x2="979.0381" y1="122" y2="144"/><polygon fill="#333333" points="975.0381,134,979.0381,144,983.0381,134,979.0381,138" style="stroke:#333333;stroke-width:1;"/><line style="stroke:#333333;stroke-width:1;" x1="98.3887" x2="98.3887" y1="212" y2="346"/><line style="stroke:#333333;stroke-width:1;" x1="98.3887" x2="516.7134" y1="346" y2="346"/><polygon fill="#333333" points="506.7134,342,516.7134,346,506.7134,350,510.7134,346" style="stroke:#333333;stroke-width:1;"/><line style="stroke:#333333;stroke-width:1;" x1="979.0381" x2="979.0381" y1="328" y2="346"/><line style="stroke:#333333;stroke-width:1;" x1="979.0381" x2="540.7134" y1="346" y2="346"/><polygon fill="#333333" points="550.7134,342,540.7134,346,550.7134,350,546.7134,346" style="stroke:#333333;stroke-width:1;"/><line style="stroke:#333333;stroke-width:1;" x1="528.7134" x2="528.7134" y1="90" y2="110"/><polygon fill="#333333" points="524.7134,100,528.7134,110,532.7134,100,528.7134,104" style="stroke:#333333;stroke-width:1;"/><line style="stroke:#333333;stroke-width:1;" x1="528.7134" x2="528.7134" y1="358" y2="378"/><polygon fill="#333333" points="524.7134,368,528.7134,378,532.7134,368,528.7134,372" style="stroke:#333333;stroke-width:1;"/><?plantuml-src ZLJRRjim37ttLt3fmzAWosL5Yovz6DhKsGLR-v0LUmamg3QJ49KbLw9wsTUFijtKIxAXTX3OuZ5vpX75Dxp20g7KYapYRycKoga2RbHsktGsc7nYjNMmDqtZtKBak511yzGQlbIIeVCPzJqoPQgp6pMZtmYZzwsWNwdSFf1Pma9fZwt8cNFseQbyM5tjOCPqJ_nqliNnADwxaDRbw1hKMNMrK9UMSJkNN9F99ggTPoBNoScEQXUa2cloNIaFq-5_FcXdJu-FHiDXaZ2nHl7Zng6OAR-CF5a3OyXMbXuX3r1O2R2r-bTSod1k9jOiQ1cSuWYLg5RWhMD2yEn2ni4X9ebdvJX9Q07Tz97Hv9W3hyW8mUNSgCWEuUE-hA61hWsqdq2KaPwdwVYQIPD71xrUg_OOEYgmxVHw0krcikrE6ek57sOhGtS1OImHt2m7P39Rb4BuHgC0r3rciB0kYnX93nurPb7E_gc4ZMm6E5gkM5v0A3Yy9tn0rr_QyMWqV3SQ7LSKG0eN9OeJ8hbEYA1Wr1z65YQlCYKetGTT8ybbDTenspHhRfQoPIOkEhmB8dpBcFhBQoDKWmORn9-voScNraHHE_1YPdeoFKe__DFCse562S1Wm4-bB4VC0HWvTcFez_k3GRy1VCEg6wJQnTMN7w3AKfuTPCWreTC6j-5VxU5LO4q6tG7CAhEjFFrqnEZM101IJOM0GACN9qIRbmUM_GoePMsD-rJRnG84dycCKV1rTdNPnDVELozjzr_ZIaUPfywQqulct4gzPyt1r98RLBTGvA74mDN1yUI4cRIZtl-F9v40mbrGGhVKmHC6vnivBrBpjoBVgQexfRF9IsypO9I-niHzgywlpK9HXJrNFMzCsEc9TCuYsV9cx-8YJQVJrno-luoHgH6d0CaKYTMJclQpLJP8ORDsh3PaouxlSSp8uAfdEc-vNtbRjKJkSAsfwescTB8XinPP_yimicNo1m00?></g></svg>