<svg xmlns="http://www.w3.org/2000/svg" xmlns:xlink="http://www.w3.org/1999/xlink" contentStyleType="text/css" height="472px" preserveAspectRatio="none" style="width:838px;height:472px;background:#FFFFFF;" version="1.1" viewBox="0 0 838 472" width="838px" zoomAndPan="magnify"><title>Structure cible de l'index s&#233;mantique</title><defs/><g><text fill="#000000" font-family="sans-serif" font-size="14" font-weight="bold" lengthAdjust="spacing" textLength="260.287" x="281.8565" y="24.9659">Structure cible de l'index s&#233;mantique</text><!--cluster Index s?mantique v2--><g id="cluster_Index s&#233;mantique v2"><path d="M8.5,46.6699 L155.7154,46.6699 A3.75,3.75 0 0 1 158.2154,49.1699 L165.2154,71.7378 L828.5,71.7378 A2.5,2.5 0 0 1 831,74.2378 L831,463.1699 A2.5,2.5 0 0 1 828.5,465.6699 L8.5,465.6699 A2.5,2.5 0 0 1 6,463.1699 L6,49.1699 A2.5,2.5 0 0 1 8.5,46.6699 " fill="none" style="stroke:#000000;stroke-width:1.5;"/><line style="stroke:#000000;stroke-width:1.5;" x1="6" x2="165.2154" y1="71.7378" y2="71.7378"/><text fill="#000000" font-family="sans-serif" font-size="14" font-weight="bold" lengthAdjust="spacing" textLength="146.2154" x="10" y="63.6358">Index s&#233;mantique v2</text></g><!--class SlideEntry--><g id="elem_SlideEntry"><rect codeLine="4" fill="#F1F1F1" height="162.4075" id="SlideEntry" rx="2.5" ry="2.5" style="stroke:#181818;stroke-width:0.5;" width="150.4455" x="22" y="287.6699"/><ellipse cx="60.678" cy="303.6699" fill="#ADD1B2" rx="11" ry="11" style="stroke:#181818;stroke-width:1.0;"/><path d="M60.1467,310.5918 Q58.3967,310.5918 57.2561,309.8574 Q56.1311,309.1074 55.5686,307.7636 Q55.0217,306.4043 55.0217,304.6074 Q55.0217,302.5761 55.678,301.123 Q56.3342,299.6699 57.6155,298.8886 Q58.8967,298.1074 60.7717,298.1074 Q61.6624,298.1074 62.3342,298.2949 Q63.0061,298.4668 63.6936,298.8105 L62.8811,300.8261 Q62.2561,300.5136 61.7092,300.3886 Q61.178,300.2636 60.6936,300.2636 Q59.5217,300.2636 58.8186,300.7949 Q58.1155,301.3261 57.8186,302.2793 Q57.5217,303.2324 57.5217,304.498 Q57.5217,306.5136 58.2405,307.4824 Q58.9592,308.4355 60.553,308.4355 Q61.1467,308.4355 61.7717,308.2793 Q62.3967,308.123 63.2249,307.748 L63.2249,309.9668 Q62.4905,310.2793 61.6936,310.4355 Q60.9124,310.5918 60.1467,310.5918 Z " fill="#000000"/><text fill="#000000" font-family="sans-serif" font-size="14" lengthAdjust="spacing" textLength="65.8277" x="79.9398" y="309.1019">SlideEntry</text><line style="stroke:#181818;stroke-width:0.5;" x1="23" x2="171.4455" y1="319.6699" y2="319.6699"/><text fill="#000000" font-family="sans-serif" font-size="14" lengthAdjust="spacing" textLength="109.8156" x="28" y="338.6358">slideNumber: int</text><text fill="#000000" font-family="sans-serif" font-size="14" lengthAdjust="spacing" textLength="89.5997" x="28" y="357.7038">slideId: string</text><text fill="#000000" font-family="sans-serif" font-size="14" lengthAdjust="spacing" textLength="105.4616" x="28" y="376.7717">intention: string</text><text fill="#000000" font-family="sans-serif" font-size="14" lengthAdjust="spacing" textLength="118.1036" x="28" y="395.8396">keywords: []string</text><text fill="#000000" font-family="sans-serif" font-size="14" lengthAdjust="spacing" textLength="138.4455" x="28" y="414.9075">editableFields: []Field</text><text fill="#000000" font-family="sans-serif" font-size="14" lengthAdjust="spacing" textLength="109.2416" x="28" y="433.9754">confidence: float</text><line style="stroke:#181818;stroke-width:0.5;" x1="23" x2="171.4455" y1="442.0774" y2="442.0774"/></g><!--class PrimitiveEntry--><g id="elem_PrimitiveEntry"><rect codeLine="13" fill="#F1F1F1" height="143.3396" id="PrimitiveEntry" rx="2.5" ry="2.5" style="stroke:#181818;stroke-width:0.5;" width="251.2031" x="206.5" y="297.1699"/><ellipse cx="281.5257" cy="313.1699" fill="#ADD1B2" rx="11" ry="11" style="stroke:#181818;stroke-width:1.0;"/><path d="M280.9945,320.0918 Q279.2445,320.0918 278.1039,319.3574 Q276.9789,318.6074 276.4164,317.2636 Q275.8695,315.9043 275.8695,314.1074 Q275.8695,312.0761 276.5257,310.623 Q277.182,309.1699 278.4632,308.3886 Q279.7445,307.6074 281.6195,307.6074 Q282.5101,307.6074 283.182,307.7949 Q283.8539,307.9668 284.5414,308.3105 L283.7289,310.3261 Q283.1039,310.0136 282.557,309.8886 Q282.0257,309.7636 281.5414,309.7636 Q280.3695,309.7636 279.6664,310.2949 Q278.9632,310.8261 278.6664,311.7793 Q278.3695,312.7324 278.3695,313.998 Q278.3695,316.0136 279.0882,316.9824 Q279.807,317.9355 281.4007,317.9355 Q281.9945,317.9355 282.6195,317.7793 Q283.2445,317.623 284.0726,317.248 L284.0726,319.4668 Q283.3382,319.7793 282.5414,319.9355 Q281.7601,320.0918 280.9945,320.0918 Z " fill="#000000"/><text fill="#000000" font-family="sans-serif" font-size="14" lengthAdjust="spacing" textLength="92.6516" x="302.0257" y="318.6019">PrimitiveEntry</text><line style="stroke:#181818;stroke-width:0.5;" x1="207.5" x2="456.7031" y1="329.1699" y2="329.1699"/><text fill="#000000" font-family="sans-serif" font-size="14" lengthAdjust="spacing" textLength="117.5436" x="212.5" y="348.1358">primitiveId: string</text><text fill="#000000" font-family="sans-serif" font-size="14" lengthAdjust="spacing" textLength="239.2031" x="212.5" y="367.2038">type: icon | shape | textbox | image</text><text fill="#000000" font-family="sans-serif" font-size="14" lengthAdjust="spacing" textLength="99.5256" x="212.5" y="386.2717">objectId: string</text><text fill="#000000" font-family="sans-serif" font-size="14" lengthAdjust="spacing" textLength="83.2437" x="212.5" y="405.3396">tags: []string</text><text fill="#000000" font-family="sans-serif" font-size="14" lengthAdjust="spacing" textLength="146.3134" x="212.5" y="424.4075">charteCompliant: bool</text><line style="stroke:#181818;stroke-width:0.5;" x1="207.5" x2="456.7031" y1="432.5095" y2="432.5095"/></g><!--class CharteRule--><g id="elem_CharteRule"><rect codeLine="21" fill="#F1F1F1" height="143.3396" id="CharteRule" rx="2.5" ry="2.5" style="stroke:#181818;stroke-width:0.5;" width="322.4208" x="493" y="297.1699"/><ellipse cx="613.4836" cy="313.1699" fill="#ADD1B2" rx="11" ry="11" style="stroke:#181818;stroke-width:1.0;"/><path d="M612.9523,320.0918 Q611.2023,320.0918 610.0617,319.3574 Q608.9367,318.6074 608.3742,317.2636 Q607.8273,315.9043 607.8273,314.1074 Q607.8273,312.0761 608.4836,310.623 Q609.1398,309.1699 610.4211,308.3886 Q611.7023,307.6074 613.5773,307.6074 Q614.4679,307.6074 615.1398,307.7949 Q615.8117,307.9668 616.4992,308.3105 L615.6867,310.3261 Q615.0617,310.0136 614.5148,309.8886 Q613.9836,309.7636 613.4992,309.7636 Q612.3273,309.7636 611.6242,310.2949 Q610.9211,310.8261 610.6242,311.7793 Q610.3273,312.7324 610.3273,313.998 Q610.3273,316.0136 611.0461,316.9824 Q611.7648,317.9355 613.3586,317.9355 Q613.9523,317.9355 614.5773,317.7793 Q615.2023,317.623 616.0304,317.248 L616.0304,319.4668 Q615.2961,319.7793 614.4992,319.9355 Q613.7179,320.0918 612.9523,320.0918 Z " fill="#000000"/><text fill="#000000" font-family="sans-serif" font-size="14" lengthAdjust="spacing" textLength="72.9537" x="633.9836" y="318.6019">CharteRule</text><line style="stroke:#181818;stroke-width:0.5;" x1="494" x2="814.4208" y1="329.1699" y2="329.1699"/><text fill="#000000" font-family="sans-serif" font-size="14" lengthAdjust="spacing" textLength="85.1057" x="499" y="348.1358">ruleId: string</text><text fill="#000000" font-family="sans-serif" font-size="14" lengthAdjust="spacing" textLength="310.4208" x="499" y="367.2038">category: layout | typography | color | spacing</text><text fill="#000000" font-family="sans-serif" font-size="14" lengthAdjust="spacing" textLength="112.3636" x="499" y="386.2717">constraint: string</text><text fill="#000000" font-family="sans-serif" font-size="14" lengthAdjust="spacing" textLength="128.9395" x="499" y="405.3396">validValues: []string</text><text fill="#000000" font-family="sans-serif" font-size="14" lengthAdjust="spacing" textLength="89.2357" x="499" y="424.4075">testable: bool</text><line style="stroke:#181818;stroke-width:0.5;" x1="494" x2="814.4208" y1="432.5095" y2="432.5095"/></g><!--class TemplateIndex--><g id="elem_TemplateIndex"><rect codeLine="29" fill="#F1F1F1" height="143.3396" id="TemplateIndex" rx="2.5" ry="2.5" style="stroke:#181818;stroke-width:0.5;" width="186.3413" x="239" y="84.6699"/><ellipse cx="278.8561" cy="100.6699" fill="#ADD1B2" rx="11" ry="11" style="stroke:#181818;stroke-width:1.0;"/><path d="M278.3248,107.5918 Q276.5748,107.5918 275.4342,106.8574 Q274.3092,106.1074 273.7467,104.7636 Q273.1998,103.4043 273.1998,101.6074 Q273.1998,99.5761 273.8561,98.123 Q274.5123,96.6699 275.7936,95.8886 Q277.0748,95.1074 278.9498,95.1074 Q279.8404,95.1074 280.5123,95.2949 Q281.1842,95.4668 281.8717,95.8105 L281.0592,97.8261 Q280.4342,97.5136 279.8873,97.3886 Q279.3561,97.2636 278.8717,97.2636 Q277.6998,97.2636 276.9967,97.7949 Q276.2936,98.3261 275.9967,99.2793 Q275.6998,100.2324 275.6998,101.498 Q275.6998,103.5136 276.4186,104.4824 Q277.1373,105.4355 278.7311,105.4355 Q279.3248,105.4355 279.9498,105.2793 Q280.5748,105.123 281.4029,104.748 L281.4029,106.9668 Q280.6686,107.2793 279.8717,107.4355 Q279.0904,107.5918 278.3248,107.5918 Z " fill="#000000"/><text fill="#000000" font-family="sans-serif" font-size="14" lengthAdjust="spacing" textLength="99.1056" x="298.3796" y="106.1019">TemplateIndex</text><line style="stroke:#181818;stroke-width:0.5;" x1="240" x2="424.3413" y1="116.6699" y2="116.6699"/><text fill="#000000" font-family="sans-serif" font-size="14" lengthAdjust="spacing" textLength="118.2296" x="245" y="135.6358">templateId: string</text><text fill="#000000" font-family="sans-serif" font-size="14" lengthAdjust="spacing" textLength="94.0376" x="245" y="154.7038">version: string</text><text fill="#000000" font-family="sans-serif" font-size="14" lengthAdjust="spacing" textLength="119.5735" x="245" y="173.7717">slides: []SlideEntry</text><text fill="#000000" font-family="sans-serif" font-size="14" lengthAdjust="spacing" textLength="174.3413" x="245" y="192.8396">primitives: []PrimitiveEntry</text><text fill="#000000" font-family="sans-serif" font-size="14" lengthAdjust="spacing" textLength="167.0893" x="245" y="211.9075">charteRules: []CharteRule</text><line style="stroke:#181818;stroke-width:0.5;" x1="240" x2="424.3413" y1="220.0095" y2="220.0095"/></g><!--reverse link TemplateIndex to SlideEntry--><g id="link_TemplateIndex_SlideEntry"><path codeLine="37" d="M244.1523,235.8572 C218.0223,259.2672 197.96,277.2399 172.12,300.3799 " fill="none" id="TemplateIndex-backto-SlideEntry" style="stroke:#181818;stroke-width:1.0;"/><polygon fill="#181818" points="253.09,227.8499,245.952,228.8743,244.1523,235.8572,251.2903,234.8328,253.09,227.8499" style="stroke:#181818;stroke-width:1.0;"/><text fill="#000000" font-family="sans-serif" font-size="13" lengthAdjust="spacing" textLength="7.436" x="237.5963" y="250.0344">1</text><text fill="#000000" font-family="sans-serif" font-size="13" lengthAdjust="spacing" textLength="9.88" x="180.3532" y="289.3733">N</text></g><!--reverse link TemplateIndex to PrimitiveEntry--><g id="link_TemplateIndex_PrimitiveEntry"><path codeLine="38" d="M332,239.8499 C332,262.0599 332,274.5899 332,296.8199 " fill="none" id="TemplateIndex-backto-PrimitiveEntry" style="stroke:#181818;stroke-width:1.0;"/><polygon fill="#181818" points="332,227.8499,328,233.8499,332,239.8499,336,233.8499,332,227.8499" style="stroke:#181818;stroke-width:1.0;"/><text fill="#000000" font-family="sans-serif" font-size="13" lengthAdjust="spacing" textLength="7.436" x="324.6439" y="250.0344">1</text><text fill="#000000" font-family="sans-serif" font-size="13" lengthAdjust="spacing" textLength="9.88" x="322.5708" y="285.4497">N</text></g><!--reverse link TemplateIndex to CharteRule--><g id="link_TemplateIndex_CharteRule"><path codeLine="39" d="M435.1847,224.6252 C472.9747,249.3252 506.84,271.4699 546.03,297.0899 " fill="none" id="TemplateIndex-backto-CharteRule" style="stroke:#181818;stroke-width:1.0;"/><polygon fill="#181818" points="425.14,218.0599,427.9739,224.6908,435.1847,224.6252,432.3508,217.9943,425.14,218.0599" style="stroke:#181818;stroke-width:1.0;"/><text fill="#000000" font-family="sans-serif" font-size="13" lengthAdjust="spacing" textLength="7.436" x="433.4491" y="219.5609">1</text><text fill="#000000" font-family="sans-serif" font-size="13" lengthAdjust="spacing" textLength="9.88" x="524.7537" y="285.2482">N</text></g><!--SRC=[TPBFJiCm3CRlVGgh5oIa7U3OwmJIBWWnn0LnI5ElCqkJahXbrTW3yHoy66xsjuMTwdnsFlzgXuaDmfnzexdn29foEHS8vefiWMi8Fz-LiamV3IP9hVHAbGZfR9o3zZQ5JGAWZGe1veOAlBFikoW2X5vuQAeSVGPa-IJEYWm2Ux9br2I7OkdiG5rXz-by4J9uVJkJiI1M0dnFQ7R96CMSTdOXzbPZ1WlZLDzocnm97prLnDGEAEk3E8BYhXON4aluWh1KDSgNSSsvMqj4bGmb5hhy7JMFRwjo3AwNoZDENLKRaWbca3jdXe3JMFBKo3fsS5x2aRDMZANpNGP6TQxXdgghNUbLlUpae9rnlaUMnHtlE2iEYlgkPrQjacMyADFWc9Knn27_1_cCyWS2iNiFcttzNXkojkZ3UAtn0SH-fmSpN4HC3dTrDi1-Eh7YDAm3tv0ilKdXUZA1z265GQlBPN-QNYuzwxvDVW40]--></g></svg>