<svg xmlns="http://www.w3.org/2000/svg" xmlns:xlink="http://www.w3.org/1999/xlink" contentStyleType="text/css" height="708px" preserveAspectRatio="none" style="width:951px;height:708px;background:#FFFFFF;" version="1.1" viewBox="0 0 951 708" width="951px" zoomAndPan="magnify"><title>Evolution 1 &#8212; Selector multi-catalogue</title><defs/><g><text fill="#000000" font-family="sans-serif" font-size="14" font-weight="bold" lengthAdjust="spacing" textLength="270.4089" x="341.8781" y="29.9659">Evolution 1 &#8212; Selector multi-catalogue</text><line style="stroke:#181818;stroke-width:0.5;stroke-dasharray:5.0,5.0;" x1="64" x2="64" y1="110.1358" y2="627.4321"/><line style="stroke:#181818;stroke-width:0.5;stroke-dasharray:5.0,5.0;" x1="347.9612" x2="347.9612" y1="110.1358" y2="627.4321"/><line style="stroke:#181818;stroke-width:0.5;stroke-dasharray:5.0,5.0;" x1="467.8749" x2="467.8749" y1="110.1358" y2="627.4321"/><line style="stroke:#181818;stroke-width:0.5;stroke-dasharray:5.0,5.0;" x1="590.7885" x2="590.7885" y1="110.1358" y2="627.4321"/><line style="stroke:#181818;stroke-width:0.5;stroke-dasharray:5.0,5.0;" x1="727.7781" x2="727.7781" y1="110.1358" y2="627.4321"/><line style="stroke:#181818;stroke-width:0.5;stroke-dasharray:5.0,5.0;" x1="878.3576" x2="878.3576" y1="110.1358" y2="627.4321"/><rect fill="#E2E2F0" height="52.1358" rx="2.5" ry="2.5" style="stroke:#181818;stroke-width:0.5;" width="109.9136" x="10" y="57"/><text fill="#000000" font-family="sans-serif" font-size="14" lengthAdjust="spacing" textLength="95.9136" x="17" y="78.9659">Agent Selector</text><text fill="#000000" font-family="sans-serif" font-size="14" lengthAdjust="spacing" textLength="38.4998" x="45.7069" y="98.0339">OCTO</text><rect fill="#E2E2F0" height="52.1358" rx="2.5" ry="2.5" style="stroke:#181818;stroke-width:0.5;" width="109.9136" x="10" y="626.4321"/><text fill="#000000" font-family="sans-serif" font-size="14" lengthAdjust="spacing" textLength="95.9136" x="17" y="648.398">Agent Selector</text><text fill="#000000" font-family="sans-serif" font-size="14" lengthAdjust="spacing" textLength="38.4998" x="45.7069" y="667.466">OCTO</text><rect fill="#E2E2F0" height="52.1358" rx="2.5" ry="2.5" style="stroke:#181818;stroke-width:0.5;" width="109.9136" x="293.9612" y="57"/><text fill="#000000" font-family="sans-serif" font-size="14" lengthAdjust="spacing" textLength="95.9136" x="300.9612" y="78.9659">Agent Selector</text><text fill="#000000" font-family="sans-serif" font-size="14" lengthAdjust="spacing" textLength="62.0898" x="317.8732" y="98.0339">McKinsey</text><rect fill="#E2E2F0" height="52.1358" rx="2.5" ry="2.5" style="stroke:#181818;stroke-width:0.5;" width="109.9136" x="293.9612" y="626.4321"/><text fill="#000000" font-family="sans-serif" font-size="14" lengthAdjust="spacing" textLength="95.9136" x="300.9612" y="648.398">Agent Selector</text><text fill="#000000" font-family="sans-serif" font-size="14" lengthAdjust="spacing" textLength="62.0898" x="317.8732" y="667.466">McKinsey</text><rect fill="#E2E2F0" height="52.1358" rx="2.5" ry="2.5" style="stroke:#181818;stroke-width:0.5;" width="109.9136" x="413.8749" y="57"/><text fill="#000000" font-family="sans-serif" font-size="14" lengthAdjust="spacing" textLength="95.9136" x="420.8749" y="78.9659">Agent Selector</text><text fill="#000000" font-family="sans-serif" font-size="14" lengthAdjust="spacing" textLength="66.3177" x="435.6728" y="98.0339">Accenture</text><rect fill="#E2E2F0" height="52.1358" rx="2.5" ry="2.5" style="stroke:#181818;stroke-width:0.5;" width="109.9136" x="413.8749" y="626.4321"/><text fill="#000000" font-family="sans-serif" font-size="14" lengthAdjust="spacing" textLength="95.9136" x="420.8749" y="648.398">Agent Selector</text><text fill="#000000" font-family="sans-serif" font-size="14" lengthAdjust="spacing" textLength="66.3177" x="435.6728" y="667.466">Accenture</text><text fill="#000000" font-family="sans-serif" font-size="14" lengthAdjust="spacing" textLength="108.9896" x="533.7885" y="106.0339">Catalogue OCTO</text><path d="M573.2833,55.0679 C573.2833,45.0679 591.2833,45.0679 591.2833,45.0679 C591.2833,45.0679 609.2833,45.0679 609.2833,55.0679 L609.2833,81.0679 C609.2833,91.0679 591.2833,91.0679 591.2833,91.0679 C591.2833,91.0679 573.2833,91.0679 573.2833,81.0679 L573.2833,55.0679 " fill="#E2E2F0" style="stroke:#181818;stroke-width:1.5;"/><path d="M573.2833,55.0679 C573.2833,65.0679 591.2833,65.0679 591.2833,65.0679 C591.2833,65.0679 609.2833,65.0679 609.2833,55.0679 " fill="none" style="stroke:#181818;stroke-width:1.5;"/><text fill="#000000" font-family="sans-serif" font-size="14" lengthAdjust="spacing" textLength="108.9896" x="533.7885" y="641.398">Catalogue OCTO</text><path d="M573.2833,655.5 C573.2833,645.5 591.2833,645.5 591.2833,645.5 C591.2833,645.5 609.2833,645.5 609.2833,655.5 L609.2833,681.5 C609.2833,691.5 591.2833,691.5 591.2833,691.5 C591.2833,691.5 573.2833,691.5 573.2833,681.5 L573.2833,655.5 " fill="#E2E2F0" style="stroke:#181818;stroke-width:1.5;"/><path d="M573.2833,655.5 C573.2833,665.5 591.2833,665.5 591.2833,665.5 C591.2833,665.5 609.2833,665.5 609.2833,655.5 " fill="none" style="stroke:#181818;stroke-width:1.5;"/><text fill="#000000" font-family="sans-serif" font-size="14" lengthAdjust="spacing" textLength="132.5795" x="658.7781" y="106.0339">Catalogue McKinsey</text><path d="M710.0678,55.0679 C710.0678,45.0679 728.0678,45.0679 728.0678,45.0679 C728.0678,45.0679 746.0678,45.0679 746.0678,55.0679 L746.0678,81.0679 C746.0678,91.0679 728.0678,91.0679 728.0678,91.0679 C728.0678,91.0679 710.0678,91.0679 710.0678,81.0679 L710.0678,55.0679 " fill="#E2E2F0" style="stroke:#181818;stroke-width:1.5;"/><path d="M710.0678,55.0679 C710.0678,65.0679 728.0678,65.0679 728.0678,65.0679 C728.0678,65.0679 746.0678,65.0679 746.0678,55.0679 " fill="none" style="stroke:#181818;stroke-width:1.5;"/><text fill="#000000" font-family="sans-serif" font-size="14" lengthAdjust="spacing" textLength="132.5795" x="658.7781" y="641.398">Catalogue McKinsey</text><path d="M710.0678,655.5 C710.0678,645.5 728.0678,645.5 728.0678,645.5 C728.0678,645.5 746.0678,645.5 746.0678,655.5 L746.0678,681.5 C746.0678,691.5 728.0678,691.5 728.0678,691.5 C728.0678,691.5 710.0678,691.5 710.0678,681.5 L710.0678,655.5 " fill="#E2E2F0" style="stroke:#181818;stroke-width:1.5;"/><path d="M710.0678,655.5 C710.0678,665.5 728.0678,665.5 728.0678,665.5 C728.0678,665.5 746.0678,665.5 746.0678,655.5 " fill="none" style="stroke:#181818;stroke-width:1.5;"/><text fill="#000000" font-family="sans-serif" font-size="14" lengthAdjust="spacing" textLength="136.8075" x="807.3576" y="106.0339">Catalogue Accenture</text><path d="M860.7613,55.0679 C860.7613,45.0679 878.7613,45.0679 878.7613,45.0679 C878.7613,45.0679 896.7613,45.0679 896.7613,55.0679 L896.7613,81.0679 C896.7613,91.0679 878.7613,91.0679 878.7613,91.0679 C878.7613,91.0679 860.7613,91.0679 860.7613,81.0679 L860.7613,55.0679 " fill="#E2E2F0" style="stroke:#181818;stroke-width:1.5;"/><path d="M860.7613,55.0679 C860.7613,65.0679 878.7613,65.0679 878.7613,65.0679 C878.7613,65.0679 896.7613,65.0679 896.7613,55.0679 " fill="none" style="stroke:#181818;stroke-width:1.5;"/><text fill="#000000" font-family="sans-serif" font-size="14" lengthAdjust="spacing" textLength="136.8075" x="807.3576" y="641.398">Catalogue Accenture</text><path d="M860.7613,655.5 C860.7613,645.5 878.7613,645.5 878.7613,645.5 C878.7613,645.5 896.7613,645.5 896.7613,655.5 L896.7613,681.5 C896.7613,691.5 878.7613,691.5 878.7613,691.5 C878.7613,691.5 860.7613,691.5 860.7613,681.5 L860.7613,655.5 " fill="#E2E2F0" style="stroke:#181818;stroke-width:1.5;"/><path d="M860.7613,655.5 C860.7613,665.5 878.7613,665.5 878.7613,665.5 C878.7613,665.5 896.7613,665.5 896.7613,655.5 " fill="none" style="stroke:#181818;stroke-width:1.5;"/><path d="M5,125.1358 L5,188.1358 L940,188.1358 L940,135.1358 L930,125.1358 L5,125.1358 " fill="#FEFFDD" style="stroke:#181818;stroke-width:0.5;"/><path d="M930,125.1358 L930,135.1358 L940,135.1358 L930,125.1358 " fill="#FEFFDD" style="stroke:#181818;stroke-width:0.5;"/><text fill="#000000" font-family="sans-serif" font-size="13" lengthAdjust="spacing" textLength="292.0192" x="322.0729" y="144.0328">Le brief identifie un contexte "banque de d&#233;tail"</text><text fill="#000000" font-family="sans-serif" font-size="13" lengthAdjust="spacing" textLength="279.8512" x="322.0729" y="161.7389">Le Selector OCTO cherche dans son catalogue</text><text fill="#000000" font-family="sans-serif" font-size="13" lengthAdjust="spacing" textLength="247.3642" x="322.0729" y="179.4449">puis &#233;largit &#224; des catalogues partenaires</text><polygon fill="#181818" points="579.2833,212.9599,589.2833,216.9599,579.2833,220.9599,583.2833,216.9599" style="stroke:#181818;stroke-width:1.0;"/><line style="stroke:#181818;stroke-width:1.0;" x1="64.9568" x2="585.2833" y1="216.9599" y2="216.9599"/><text fill="#000000" font-family="sans-serif" font-size="13" lengthAdjust="spacing" textLength="186.4982" x="71.9568" y="211.1509">Cherche slides "banque d&#233;tail"</text><polygon fill="#181818" points="75.9568,244.6659,65.9568,248.6659,75.9568,252.6659,71.9568,248.6659" style="stroke:#181818;stroke-width:1.0;"/><line style="stroke:#181818;stroke-width:1.0;stroke-dasharray:2.0,2.0;" x1="69.9568" x2="590.2833" y1="248.6659" y2="248.6659"/><text fill="#000000" font-family="sans-serif" font-size="13" lengthAdjust="spacing" textLength="160.5371" x="81.9568" y="242.8569">2 slides (faible couverture)</text><polygon fill="#181818" points="336.9181,276.3719,346.9181,280.3719,336.9181,284.3719,340.9181,280.3719" style="stroke:#181818;stroke-width:1.0;"/><line style="stroke:#181818;stroke-width:1.0;" x1="64.9568" x2="342.9181" y1="280.3719" y2="280.3719"/><text fill="#000000" font-family="sans-serif" font-size="13" lengthAdjust="spacing" textLength="253.4352" x="71.9568" y="274.5629">Task{SlideNeed, context: "banque d&#233;tail"}</text><polygon fill="#181818" points="716.0678,308.0779,726.0678,312.0779,716.0678,316.0779,720.0678,312.0779" style="stroke:#181818;stroke-width:1.0;"/><line style="stroke:#181818;stroke-width:1.0;" x1="348.9181" x2="722.0678" y1="312.0779" y2="312.0779"/><text fill="#000000" font-family="sans-serif" font-size="13" lengthAdjust="spacing" textLength="186.4982" x="355.9181" y="306.2689">Cherche slides "banque d&#233;tail"</text><polygon fill="#181818" points="359.9181,339.784,349.9181,343.784,359.9181,347.784,355.9181,343.784" style="stroke:#181818;stroke-width:1.0;"/><line style="stroke:#181818;stroke-width:1.0;stroke-dasharray:2.0,2.0;" x1="353.9181" x2="727.0678" y1="343.784" y2="343.784"/><text fill="#000000" font-family="sans-serif" font-size="13" lengthAdjust="spacing" textLength="165.9972" x="365.9181" y="337.975">5 slides (bonne couverture)</text><polygon fill="#181818" points="75.9568,371.49,65.9568,375.49,75.9568,379.49,71.9568,375.49" style="stroke:#181818;stroke-width:1.0;"/><line style="stroke:#181818;stroke-width:1.0;stroke-dasharray:2.0,2.0;" x1="69.9568" x2="347.9181" y1="375.49" y2="375.49"/><text fill="#000000" font-family="sans-serif" font-size="13" lengthAdjust="spacing" textLength="259.9612" x="81.9568" y="369.681">SelectionProposal{slides, confidence: 0.85}</text><polygon fill="#181818" points="456.8317,403.196,466.8317,407.196,456.8317,411.196,460.8317,407.196" style="stroke:#181818;stroke-width:1.0;"/><line style="stroke:#181818;stroke-width:1.0;" x1="64.9568" x2="462.8317" y1="407.196" y2="407.196"/><text fill="#000000" font-family="sans-serif" font-size="13" lengthAdjust="spacing" textLength="253.4352" x="71.9568" y="401.387">Task{SlideNeed, context: "banque d&#233;tail"}</text><polygon fill="#181818" points="866.7613,434.902,876.7613,438.902,866.7613,442.902,870.7613,438.902" style="stroke:#181818;stroke-width:1.0;"/><line style="stroke:#181818;stroke-width:1.0;" x1="468.8317" x2="872.7613" y1="438.902" y2="438.902"/><text fill="#000000" font-family="sans-serif" font-size="13" lengthAdjust="spacing" textLength="186.4982" x="475.8317" y="433.093">Cherche slides "banque d&#233;tail"</text><polygon fill="#181818" points="479.8317,466.608,469.8317,470.608,479.8317,474.608,475.8317,470.608" style="stroke:#181818;stroke-width:1.0;"/><line style="stroke:#181818;stroke-width:1.0;stroke-dasharray:2.0,2.0;" x1="473.8317" x2="877.7613" y1="470.608" y2="470.608"/><text fill="#000000" font-family="sans-serif" font-size="13" lengthAdjust="spacing" textLength="45.305" x="485.8317" y="464.799">3 slides</text><polygon fill="#181818" points="75.9568,498.314,65.9568,502.314,75.9568,506.314,71.9568,502.314" style="stroke:#181818;stroke-width:1.0;"/><line style="stroke:#181818;stroke-width:1.0;stroke-dasharray:2.0,2.0;" x1="69.9568" x2="467.8317" y1="502.314" y2="502.314"/><text fill="#000000" font-family="sans-serif" font-size="13" lengthAdjust="spacing" textLength="259.9612" x="81.9568" y="496.505">SelectionProposal{slides, confidence: 0.72}</text><line style="stroke:#181818;stroke-width:1.0;" x1="64.9568" x2="106.9568" y1="551.7261" y2="551.7261"/><line style="stroke:#181818;stroke-width:1.0;" x1="106.9568" x2="106.9568" y1="551.7261" y2="564.7261"/><line style="stroke:#181818;stroke-width:1.0;" x1="65.9568" x2="106.9568" y1="564.7261" y2="564.7261"/><polygon fill="#181818" points="75.9568,560.7261,65.9568,564.7261,75.9568,568.7261,71.9568,564.7261" style="stroke:#181818;stroke-width:1.0;"/><text fill="#000000" font-family="sans-serif" font-size="13" lengthAdjust="spacing" textLength="156.7411" x="71.9568" y="528.2111">Compare les propositions</text><text fill="#000000" font-family="sans-serif" font-size="13" lengthAdjust="spacing" textLength="187.0182" x="71.9568" y="545.9171">Choisit la meilleure couverture</text><line style="stroke:#181818;stroke-width:1.0;stroke-dasharray:2.0,2.0;" x1="64.9568" x2="106.9568" y1="596.4321" y2="596.4321"/><line style="stroke:#181818;stroke-width:1.0;stroke-dasharray:2.0,2.0;" x1="106.9568" x2="106.9568" y1="596.4321" y2="609.4321"/><line style="stroke:#181818;stroke-width:1.0;stroke-dasharray:2.0,2.0;" x1="65.9568" x2="106.9568" y1="609.4321" y2="609.4321"/><polygon fill="#181818" points="75.9568,605.4321,65.9568,609.4321,75.9568,613.4321,71.9568,609.4321" style="stroke:#181818;stroke-width:1.0;"/><text fill="#000000" font-family="sans-serif" font-size="13" lengthAdjust="spacing" textLength="225.5242" x="71.9568" y="590.6231">S&#233;lectionne McKinsey pour ce besoin</text><!--SRC=[bPB1RjD048Rl-nI_V0AfGL1KWN90iYnEO8Ba7djPhoVfYCsksLrNeAeI3y43SErpv4ru4cRZsA5GLQsKABBppSot_qxYP0dlhxmT4dk7L_ZzuoSQicII3zWEDl72wAIjtmoaLAz3OiEzTWb5kI7vcU0BjwhELmLqHFCmLviFx29z7zdwORWqHbuCWKQwL9tOj3eIYchomZovMjtx_vs9LNqlStTGLIhbV2BuAmfeJl8Bu2EX3KnhS2SihvamE1Zl4dqJjcYr-ogjEldiRfDcMun5Sw1P5EQIWdpHQHSH9VLZm40_SCJkrkgmuOJTBsaMZq143ekSva1HaUkG9PLgi7WdXySIrQ5vj9mhPwN9Hw25i8sWfnFqRAsvbJqmVf3JvWoUZnsRMh1p7RzSDvdyHDITJCTT_jVxHWcVFUh7UDIZHsRFPf7ME_UFHptxZYdAcduEllTHs-knRA-qpbTYQ8cNBzwUtHpqooVgbtlzyZ7wvQYLsTS7Qb__HDStfvDh7kgtShq4c-zvNyUvHRnmrQLdUO3Ls19RIvBDNp7b5jDWsPrniZlkFNe_11ZPNegUdVe3]--></g></svg>