<?plantuml 1.2026.1?><svg xmlns="http://www.w3.org/2000/svg" xmlns:xlink="http://www.w3.org/1999/xlink" contentStyleType="text/css" data-diagram-type="ACTIVITY" height="677px" preserveAspectRatio="none" style="width:1202px;height:677px;background:#FEFEFE;" version="1.1" viewBox="0 0 1202 677" width="1202px" zoomAndPan="magnify"><title>Enrichissement du plan &#8212; De GenerationPlan a PresentationPlan</title><defs/><g><rect fill="#FEFEFE" height="677" style="stroke:none;stroke-width:1;" width="1202" x="0" y="0"/><g class="title" data-source-line="10"><text fill="#000000" font-family="'Helvetica'" font-size="22" font-weight="bold" lengthAdjust="spacing" textLength="683.3965" x="258.2588" y="31.9404">Enrichissement du plan &#8212; De GenerationPlan a PresentationPlan</text></g><rect fill="#FFFFFF" height="12" style="stroke:#FFFFFF;stroke-width:1;" width="1179.9141" x="10" y="49.2598"/><ellipse cx="79.3672" cy="76.2598" fill="#FFFFFF" rx="10" ry="10" style="stroke:#000000;stroke-width:1;"/><path d="M162.7344,105.2598 L162.7344,118.2598 L142.7344,122.2598 L162.7344,126.2598 L162.7344,139.2598 A0,0 0 0 0 162.7344,139.2598 L306.4766,139.2598 A0,0 0 0 0 306.4766,139.2598 L306.4766,115.2598 L296.4766,105.2598 L162.7344,105.2598 A0,0 0 0 0 162.7344,105.2598" fill="#FFFFFF" style="stroke:#000000;stroke-width:1;"/><path d="M296.4766,105.2598 L296.4766,115.2598 L306.4766,115.2598 L296.4766,105.2598" fill="#FFFFFF" style="stroke:#000000;stroke-width:1;"/><text fill="#000000" font-family="'Helvetica'" font-size="12" lengthAdjust="spacing" textLength="122.7422" x="168.7344" y="119.5">Catalogue complet des</text><text fill="#000000" font-family="'Helvetica'" font-size="12" lengthAdjust="spacing" textLength="115.4004" x="168.7344" y="131.5">templates disponibles</text><rect fill="#F5F5F5" height="32" rx="12.5" ry="12.5" style="stroke:#AAAAAA;stroke-width:1;" width="126.7344" x="16" y="106.2598"/><text fill="#000000" font-family="'Helvetica'" font-size="12" lengthAdjust="spacing" textLength="106.7344" x="26" y="125.5">template_index.json</text><line style="stroke:#000000;stroke-width:1;" x1="10" x2="10" y1="49.2598" y2="670.2598"/><rect fill="#F5F5F5" height="44" rx="12.5" ry="12.5" style="stroke:#AAAAAA;stroke-width:1;" width="189.7109" x="382.1787" y="159.2598"/><text fill="#000000" font-family="'Helvetica'" font-size="12" lengthAdjust="spacing" textLength="169.7109" x="392.1787" y="178.5">Construction de l'index compact</text><text fill="#000000" font-family="'Helvetica'" font-size="12" lengthAdjust="spacing" textLength="148.0664" x="392.1787" y="190.5">(filtrage, categories, shuffle)</text><rect fill="#000000" height="6" rx="2.5" ry="2.5" style="stroke:#000000;stroke-width:1;" width="321.1152" x="317.4766" y="223.2598"/><rect fill="#F5F5F5" height="44" rx="12.5" ry="12.5" style="stroke:#AAAAAA;stroke-width:1;" width="126.7227" x="329.4766" y="249.2598"/><text fill="#000000" font-family="'Helvetica'" font-size="12" lengthAdjust="spacing" textLength="106.7227" x="339.4766" y="268.5">Demande utilisateur</text><text fill="#000000" font-family="'Helvetica'" font-size="12" lengthAdjust="spacing" textLength="68.0215" x="339.4766" y="280.5">(request.md)</text><rect fill="#F5F5F5" height="44" rx="12.5" ry="12.5" style="stroke:#AAAAAA;stroke-width:1;" width="140.3926" x="484.1992" y="249.2598"/><text fill="#000000" font-family="'Helvetica'" font-size="12" lengthAdjust="spacing" textLength="78.041" x="494.1992" y="268.5">Index compact</text><text fill="#000000" font-family="'Helvetica'" font-size="12" lengthAdjust="spacing" textLength="120.3926" x="494.1992" y="280.5">+ instructions template</text><rect fill="#000000" height="6" rx="2.5" ry="2.5" style="stroke:#000000;stroke-width:1;" width="321.1152" x="317.4766" y="313.2598"/><path d="M584.7412,338.2598 L584.7412,357.2598 L564.7412,361.2598 L584.7412,365.2598 L584.7412,384.2598 A0,0 0 0 0 584.7412,384.2598 L800.1143,384.2598 A0,0 0 0 0 800.1143,384.2598 L800.1143,348.2598 L790.1143,338.2598 L584.7412,338.2598 A0,0 0 0 0 584.7412,338.2598" fill="#FFFFFF" style="stroke:#000000;stroke-width:1;"/><path d="M790.1143,338.2598 L790.1143,348.2598 L800.1143,348.2598 L790.1143,338.2598" fill="#FFFFFF" style="stroke:#000000;stroke-width:1;"/><text fill="#000000" font-family="'Helvetica'" font-size="12" lengthAdjust="spacing" textLength="186.1172" x="590.7412" y="352.5">Mode mono : 1 appel Claude Opus</text><text fill="#000000" font-family="'Helvetica'" font-size="12" lengthAdjust="spacing" textLength="177.0938" x="590.7412" y="364.5">Mode agent : Outliner -&gt; Selector</text><text fill="#000000" font-family="'Helvetica'" font-size="12" lengthAdjust="spacing" textLength="194.373" x="590.7412" y="376.5">-&gt; Writers -&gt; Assembler -&gt; Reviewer</text><rect fill="#F5F5F5" height="44" rx="12.5" ry="12.5" style="stroke:#AAAAAA;stroke-width:1;" width="175.4141" x="389.3271" y="339.2598"/><text fill="#000000" font-family="'Helvetica'" font-size="12" lengthAdjust="spacing" textLength="69.375" x="399.3271" y="358.5">Pipeline LLM</text><text fill="#000000" font-family="'Helvetica'" font-size="12" lengthAdjust="spacing" textLength="155.4141" x="399.3271" y="370.5">(monolithique ou multi-agent)</text><rect fill="#F5F5F5" height="44" rx="12.5" ry="12.5" style="stroke:#AAAAAA;stroke-width:1;" width="160.748" x="396.6602" y="404.2598"/><text fill="#000000" font-family="'Helvetica'" font-size="12" lengthAdjust="spacing" textLength="83.3906" x="406.6602" y="423.5">GenerationPlan</text><text fill="#000000" font-family="'Helvetica'" font-size="12" lengthAdjust="spacing" textLength="140.748" x="406.6602" y="435.5">{presentationTitle, slides[]}</text><line style="stroke:#000000;stroke-width:1;" x1="311.4766" x2="311.4766" y1="49.2598" y2="670.2598"/><path d="M951.4795,458.2598 L951.4795,507.2598 L931.4795,511.2598 L951.4795,515.2598 L951.4795,564.2598 A0,0 0 0 0 951.4795,564.2598 L1142.8994,564.2598 A0,0 0 0 0 1142.8994,564.2598 L1142.8994,468.2598 L1132.8994,458.2598 L951.4795,458.2598 A0,0 0 0 0 951.4795,458.2598" fill="#FFFFFF" style="stroke:#000000;stroke-width:1;"/><path d="M1132.8994,458.2598 L1132.8994,468.2598 L1142.8994,468.2598 L1132.8994,458.2598" fill="#FFFFFF" style="stroke:#000000;stroke-width:1;"/><text fill="#000000" font-family="'Helvetica'" font-size="12" lengthAdjust="spacing" textLength="145.4355" x="957.4795" y="472.5">Pour chaque slide du plan :</text><text fill="#000000" font-family="'Helvetica'" font-size="12" lengthAdjust="spacing" textLength="170.4199" x="957.4795" y="484.5">1. Mappe sourceSlide -&gt; slideID</text><text fill="#000000" font-family="'Helvetica'" font-size="12" lengthAdjust="spacing" textLength="124.7344" x="957.4795" y="496.5">2. Charge analysis.json</text><text fill="#000000" font-family="'Helvetica'" font-size="12" lengthAdjust="spacing" textLength="149.4082" x="957.4795" y="508.5">3. Construit EditableObject[]</text><text fill="#000000" font-family="'Helvetica'" font-size="12" lengthAdjust="spacing" textLength="159.4102" x="967.4814" y="520.5">avec ObjectIDs Google Slides</text><text fill="#000000" font-family="'Helvetica'" font-size="12" lengthAdjust="spacing" textLength="152.0859" x="957.4795" y="532.5">4. Applique les modifications</text><text fill="#000000" font-family="'Helvetica'" font-size="12" lengthAdjust="spacing" textLength="128.0801" x="957.4795" y="544.5">5. Deduplique les textes</text><text fill="#000000" font-family="'Helvetica'" font-size="12" lengthAdjust="spacing" textLength="123.4219" x="957.4795" y="556.5">6. Ajoute metadonnees</text><rect fill="#F5F5F5" height="32" rx="12.5" ry="12.5" style="stroke:#AAAAAA;stroke-width:1;" width="86.0234" x="845.4561" y="495.2598"/><text fill="#000000" font-family="'Helvetica'" font-size="12" lengthAdjust="spacing" textLength="66.0234" x="855.4561" y="514.5">EnrichPlan()</text><path d="M985.8213,589.2598 L985.8213,602.2598 L965.8213,606.2598 L985.8213,610.2598 L985.8213,623.2598 A0,0 0 0 0 985.8213,623.2598 L1115.8408,623.2598 A0,0 0 0 0 1115.8408,623.2598 L1115.8408,599.2598 L1105.8408,589.2598 L985.8213,589.2598 A0,0 0 0 0 985.8213,589.2598" fill="#FFFFFF" style="stroke:#000000;stroke-width:1;"/><path d="M1105.8408,589.2598 L1105.8408,599.2598 L1115.8408,599.2598 L1105.8408,589.2598" fill="#FFFFFF" style="stroke:#000000;stroke-width:1;"/><text fill="#000000" font-family="'Helvetica'" font-size="12" lengthAdjust="spacing" textLength="109.0195" x="991.8213" y="603.5">Pret pour l'execution</text><text fill="#000000" font-family="'Helvetica'" font-size="12" lengthAdjust="spacing" textLength="98.7188" x="991.8213" y="615.5">via les API Google</text><rect fill="#F5F5F5" height="44" rx="12.5" ry="12.5" style="stroke:#AAAAAA;stroke-width:1;" width="154.707" x="811.1143" y="584.2598"/><text fill="#000000" font-family="'Helvetica'" font-size="12" lengthAdjust="spacing" textLength="91.3945" x="821.1143" y="603.5">PresentationPlan</text><text fill="#000000" font-family="'Helvetica'" font-size="12" lengthAdjust="spacing" textLength="134.707" x="821.1143" y="615.5">(complet avec ObjectIDs)</text><line style="stroke:#000000;stroke-width:1;" x1="805.1143" x2="805.1143" y1="49.2598" y2="670.2598"/><ellipse cx="1169.0732" cy="659.2598" fill="none" rx="11" ry="11" style="stroke:#000000;stroke-width:1;"/><ellipse cx="1169.0732" cy="659.2598" fill="#FFFFFF" rx="6" ry="6" style="stroke:#000000;stroke-width:1;"/><line style="stroke:#000000;stroke-width:1;" x1="1147.8994" x2="1147.8994" y1="49.2598" y2="670.2598"/><line style="stroke:#000000;stroke-width:1;" x1="1189.2471" x2="1189.2471" y1="49.2598" y2="670.2598"/><line style="stroke:#333333;stroke-width:1;" x1="79.3672" x2="79.3672" y1="86.2598" y2="106.2598"/><polygon fill="#333333" points="75.3672,96.2598,79.3672,106.2598,83.3672,96.2598,79.3672,100.2598" style="stroke:#333333;stroke-width:1;"/><line style="stroke:#333333;stroke-width:1;" x1="392.8379" x2="392.8379" y1="229.2598" y2="249.2598"/><polygon fill="#333333" points="388.8379,239.2598,392.8379,249.2598,396.8379,239.2598,392.8379,243.2598" style="stroke:#333333;stroke-width:1;"/><line style="stroke:#333333;stroke-width:1;" x1="554.3955" x2="554.3955" y1="229.2598" y2="249.2598"/><polygon fill="#333333" points="550.3955,239.2598,554.3955,249.2598,558.3955,239.2598,554.3955,243.2598" style="stroke:#333333;stroke-width:1;"/><line style="stroke:#333333;stroke-width:1;" x1="392.8379" x2="392.8379" y1="293.2598" y2="313.2598"/><polygon fill="#333333" points="388.8379,303.2598,392.8379,313.2598,396.8379,303.2598,392.8379,307.2598" style="stroke:#333333;stroke-width:1;"/><line style="stroke:#333333;stroke-width:1;" x1="554.3955" x2="554.3955" y1="293.2598" y2="313.2598"/><polygon fill="#333333" points="550.3955,303.2598,554.3955,313.2598,558.3955,303.2598,554.3955,307.2598" style="stroke:#333333;stroke-width:1;"/><line style="stroke:#333333;stroke-width:1;" x1="477.0342" x2="477.0342" y1="203.2598" y2="223.2598"/><polygon fill="#333333" points="473.0342,213.2598,477.0342,223.2598,481.0342,213.2598,477.0342,217.2598" style="stroke:#333333;stroke-width:1;"/><line style="stroke:#333333;stroke-width:1;" x1="477.0342" x2="477.0342" y1="319.2598" y2="339.2598"/><polygon fill="#333333" points="473.0342,329.2598,477.0342,339.2598,481.0342,329.2598,477.0342,333.2598" style="stroke:#333333;stroke-width:1;"/><line style="stroke:#333333;stroke-width:1;" x1="477.0342" x2="477.0342" y1="383.2598" y2="404.2598"/><polygon fill="#333333" points="473.0342,394.2598,477.0342,404.2598,481.0342,394.2598,477.0342,398.2598" style="stroke:#333333;stroke-width:1;"/><line style="stroke:#333333;stroke-width:1;" x1="888.4678" x2="888.4678" y1="527.2598" y2="584.2598"/><polygon fill="#333333" points="884.4678,574.2598,888.4678,584.2598,892.4678,574.2598,888.4678,578.2598" style="stroke:#333333;stroke-width:1;"/><line style="stroke:#333333;stroke-width:1;" x1="79.3672" x2="79.3672" y1="138.2598" y2="144.2598"/><line style="stroke:#333333;stroke-width:1;" x1="79.3672" x2="477.0342" y1="144.2598" y2="144.2598"/><line style="stroke:#333333;stroke-width:1;" x1="477.0342" x2="477.0342" y1="144.2598" y2="159.2598"/><polygon fill="#333333" points="473.0342,149.2598,477.0342,159.2598,481.0342,149.2598,477.0342,153.2598" style="stroke:#333333;stroke-width:1;"/><line style="stroke:#333333;stroke-width:1;" x1="477.0342" x2="477.0342" y1="448.2598" y2="459.2598"/><line style="stroke:#333333;stroke-width:1;" x1="477.0342" x2="888.4678" y1="459.2598" y2="459.2598"/><line style="stroke:#333333;stroke-width:1;" x1="888.4678" x2="888.4678" y1="459.2598" y2="495.2598"/><polygon fill="#333333" points="884.4678,485.2598,888.4678,495.2598,892.4678,485.2598,888.4678,489.2598" style="stroke:#333333;stroke-width:1;"/><line style="stroke:#333333;stroke-width:1;" x1="888.4678" x2="888.4678" y1="628.2598" y2="633.2598"/><line style="stroke:#333333;stroke-width:1;" x1="888.4678" x2="1169.0732" y1="633.2598" y2="633.2598"/><line style="stroke:#333333;stroke-width:1;" x1="1169.0732" x2="1169.0732" y1="633.2598" y2="648.2598"/><polygon fill="#333333" points="1165.0732,638.2598,1169.0732,648.2598,1173.0732,638.2598,1169.0732,642.2598" style="stroke:#333333;stroke-width:1;"/><text fill="#000000" font-family="'Helvetica'" font-size="12" lengthAdjust="spacing" textLength="35.3555" x="143.0605" y="58.5">Entree</text><text fill="#000000" font-family="'Helvetica'" font-size="12" lengthAdjust="spacing" textLength="42.6973" x="536.9468" y="58.5">Pipeline</text><text fill="#000000" font-family="'Helvetica'" font-size="12" lengthAdjust="spacing" textLength="82.0313" x="935.4912" y="58.5">Enrichissement</text><text fill="#000000" font-family="'Helvetica'" font-size="12" lengthAdjust="spacing" textLength="31.3477" x="1152.8994" y="58.5">Sortie</text><?plantuml-src RLFDJXin4BxxAQRqG50X4b1ws4YLqYJGI52Yfb8F25LcTx8PSEojFGxGKgaFqIViatHi2Dq0taioyytVDz-yuZak41gZoQfmHRRHNY_WGfTNjNVHLWDdd8VNXwFqjH0LpdGqVEWiVzAIOUCZcYKobNhZPTIKVY3ixhMSOQuhTqssXfas0LkUllVk-g7oVdvjPycq9BxzyAp7W_IzX7I-Gl-0wkUd51CRX97rLCuf1671CbGnKM7Xx-y_C4GuGejUCpaxILOD4uz1S8ycfUv6bZtYdGgiFQk2SI4P6B-HhV2cUncSxIdh6C5JFMS5CD2iZQiZGka4Yr8LWzXNaG4g2espT674ZhQ252wL9jIW8IkrYe6pWNqiKnyI3cOpbyiPTScgCoF3NjUu3QMah9qd3Dl2U9pD36xrb9evVoL5Yo4kj8H2P38K11kzc3iUlqSCt5rK0avOq7MIY4ICroe1l07wtqnu7AENMyzbLB5g7OwFJrHduQmpn7EI6k0YB4GYj2FTMjvwGjQ9azuI7WhO1Tr86XWO7SLwsiImGkHOWPn6JcKyxBo7AHeisQLnvDzNJum-f9_zj6qXDwC-uvBm6dsBw69zxUfdqzhwboGROTAGREti_5SlIw0j8bdFlI45TvuED77HGpdNQVISv55pXNXtkt2IXeGWi1Ad6I1TPkHuA8YzBWpcsjSoizNcDb386XFFldZkPK4CeufOouod5vT2mjcv-ENf9PPmRneF0nmvLyiDv2g9ohTTw3UDoMiHxGdl5StaelDYnN_GbQEeOWl1UCCvz9s4NheeWowGvQojnJNn5iykfxDI_tfJp_Zo0caIQMOJRx2CAO7ObwHp1_t9-66EzgbCdMVAH-aQzGy0?></g></svg>