<?plantuml 1.2026.1?><svg xmlns="http://www.w3.org/2000/svg" xmlns:xlink="http://www.w3.org/1999/xlink" contentStyleType="text/css" data-diagram-type="ACTIVITY" height="800px" preserveAspectRatio="none" style="width:727px;height:800px;background:#FFFFFF;" version="1.1" viewBox="0 0 727 800" width="727px" zoomAndPan="magnify"><title>Cout proportionne au risque : le bon modele, au bon endroit, decide par le code</title><defs/><g><g class="title" data-source-line="2"><text fill="#000000" font-family="sans-serif" font-size="14" font-weight="bold" lengthAdjust="spacing" textLength="574.041" x="75.3237" y="33.5352">Cout proportionne au risque : le bon modele, au bon endroit, decide par le code</text></g><ellipse cx="351.7002" cy="57.4883" fill="#222222" rx="10" ry="10" style="stroke:#222222;stroke-width:1;"/><rect fill="#F1F1F1" height="34.1328" rx="12.5" ry="12.5" style="stroke:#181818;stroke-width:0.5;" width="119.123" x="292.1387" y="87.4883"/><text fill="#000000" font-family="sans-serif" font-size="12" lengthAdjust="spacing" textLength="99.123" x="302.1387" y="109.0898">Tache a executer</text><rect fill="#D6EFFF" height="76.5313" rx="12.5" ry="12.5" style="stroke:#181818;stroke-width:0.5;" width="203.8672" x="249.7666" y="190.0986"/><text fill="#000000" font-family="sans-serif" font-size="12" lengthAdjust="spacing" textLength="53.1504" x="325.125" y="211.7002">Zero LLM</text><text fill="#000000" font-family="sans-serif" font-size="12" lengthAdjust="spacing" textLength="165.7324" x="268.834" y="225.833">validation schema, regles de</text><text fill="#000000" font-family="sans-serif" font-size="12" lengthAdjust="spacing" textLength="183.8672" x="259.7666" y="239.9658">coherence, layout, enforcement</text><text fill="#000000" font-family="sans-serif" font-size="12" lengthAdjust="spacing" textLength="89.0391" x="307.1807" y="254.0986">(cout : 0 token)</text><ellipse cx="351.7002" cy="297.6299" fill="none" rx="11" ry="11" style="stroke:#222222;stroke-width:1;"/><ellipse cx="351.7002" cy="297.6299" fill="#222222" rx="6" ry="6" style="stroke:#222222;stroke-width:1;"/><polygon fill="#DDF5DD" points="285.7405,141.6211,417.6599,141.6211,429.6599,153.6211,417.6599,165.6211,285.7405,165.6211,273.7405,153.6211,285.7405,141.6211" style="stroke:#181818;stroke-width:0.5;"/><text fill="#000000" font-family="sans-serif" font-size="11" lengthAdjust="spacing" textLength="16.7632" x="355.7002" y="176.2559">oui</text><text fill="#000000" font-family="sans-serif" font-size="11" lengthAdjust="spacing" textLength="131.9194" x="285.7405" y="157.7783">Detectable par du code ?</text><text fill="#000000" font-family="sans-serif" font-size="11" lengthAdjust="spacing" textLength="20.4102" x="429.6599" y="151.3008">non</text><polygon fill="#DDF5DD" points="297.7073,350.6299,405.6931,350.6299,417.6931,362.6299,405.6931,374.6299,297.7073,374.6299,285.7073,362.6299,297.7073,350.6299" style="stroke:#181818;stroke-width:0.5;"/><text fill="#000000" font-family="sans-serif" font-size="11" lengthAdjust="spacing" textLength="107.9858" x="297.7073" y="366.7871">Quel type de tache ?</text><text fill="#000000" font-family="sans-serif" font-size="11" lengthAdjust="spacing" textLength="121.5693" x="164.1379" y="360.3096">production de contenu</text><text fill="#000000" font-family="sans-serif" font-size="11" lengthAdjust="spacing" textLength="106.9385" x="417.6931" y="360.3096">jugement de qualite</text><polygon fill="#DDF5DD" points="133.9238,386.54,203.082,386.54,215.082,398.54,203.082,410.54,133.9238,410.54,121.9238,398.54,133.9238,386.54" style="stroke:#181818;stroke-width:0.5;"/><text fill="#000000" font-family="sans-serif" font-size="11" lengthAdjust="spacing" textLength="69.1582" x="133.9238" y="402.6973">Complexite ?</text><text fill="#000000" font-family="sans-serif" font-size="11" lengthAdjust="spacing" textLength="63.7871" x="49.1831" y="383.2646">slide simple</text><text fill="#000000" font-family="sans-serif" font-size="11" lengthAdjust="spacing" textLength="72.7407" x="49.1831" y="396.2197">&lt;= 2 champs</text><text fill="#000000" font-family="sans-serif" font-size="11" lengthAdjust="spacing" textLength="80.2656" x="215.082" y="383.2646">slide complexe</text><text fill="#000000" font-family="sans-serif" font-size="11" lengthAdjust="spacing" textLength="90.3042" x="215.082" y="396.2197">ou raisonnement</text><rect fill="#DDF5DD" height="48.2656" rx="12.5" ry="12.5" style="stroke:#181818;stroke-width:0.5;" width="145.9473" x="11" y="420.54"/><text fill="#000000" font-family="sans-serif" font-size="12" lengthAdjust="spacing" textLength="33.375" x="67.2861" y="442.1416">Haiku</text><text fill="#000000" font-family="sans-serif" font-size="12" lengthAdjust="spacing" textLength="125.9473" x="21" y="456.2744">(modele economique)</text><rect fill="#FFF8D6" height="48.2656" rx="12.5" ry="12.5" style="stroke:#181818;stroke-width:0.5;" width="152.1699" x="176.9473" y="420.54"/><text fill="#000000" font-family="sans-serif" font-size="12" lengthAdjust="spacing" textLength="39.9023" x="233.0811" y="442.1416">Sonnet</text><text fill="#000000" font-family="sans-serif" font-size="12" lengthAdjust="spacing" textLength="132.1699" x="186.9473" y="456.2744">(modele intermediaire)</text><polygon fill="#DDF5DD" points="168.5029,474.8057,180.5029,486.8057,168.5029,498.8057,156.5029,486.8057,168.5029,474.8057" style="stroke:#181818;stroke-width:0.5;"/><polygon fill="#DDF5DD" points="462.1514,384.6299,607.6436,384.6299,619.6436,397.585,607.6436,410.54,462.1514,410.54,450.1514,397.585,462.1514,384.6299" style="stroke:#181818;stroke-width:0.5;"/><text fill="#000000" font-family="sans-serif" font-size="11" lengthAdjust="spacing" textLength="145.4922" x="462.1514" y="395.2646">Gates deterministes passes</text><text fill="#000000" font-family="sans-serif" font-size="11" lengthAdjust="spacing" textLength="120.8765" x="474.4592" y="408.2197">et deck &lt;= seuil (20) ?</text><text fill="#000000" font-family="sans-serif" font-size="11" lengthAdjust="spacing" textLength="23.7241" x="383.9741" y="382.3096">oui :</text><text fill="#000000" font-family="sans-serif" font-size="11" lengthAdjust="spacing" textLength="66.1772" x="383.9741" y="395.2646">risque faible</text><text fill="#000000" font-family="sans-serif" font-size="11" lengthAdjust="spacing" textLength="27.3711" x="619.6436" y="382.3096">non :</text><text fill="#000000" font-family="sans-serif" font-size="11" lengthAdjust="spacing" textLength="63.9053" x="619.6436" y="395.2646">risque eleve</text><rect fill="#FFF8D6" height="48.2656" rx="12.5" ry="12.5" style="stroke:#181818;stroke-width:0.5;" width="142.0684" x="369.1172" y="420.54"/><text fill="#000000" font-family="sans-serif" font-size="12" lengthAdjust="spacing" textLength="122.0684" x="379.1172" y="442.1416">Sonnet sans thinking</text><text fill="#000000" font-family="sans-serif" font-size="12" lengthAdjust="spacing" textLength="80.3379" x="399.9824" y="456.2744">(revue rapide)</text><rect fill="#FFD6D6" height="48.2656" rx="12.5" ry="12.5" style="stroke:#181818;stroke-width:0.5;" width="174.0898" x="542.5986" y="420.54"/><text fill="#000000" font-family="sans-serif" font-size="12" lengthAdjust="spacing" textLength="154.0898" x="552.5986" y="442.1416">Opus + extended thinking</text><text fill="#000000" font-family="sans-serif" font-size="12" lengthAdjust="spacing" textLength="114.4922" x="572.3975" y="456.2744">(revue approfondie)</text><polygon fill="#DDF5DD" points="534.8975,474.8057,546.8975,486.8057,534.8975,498.8057,522.8975,486.8057,534.8975,474.8057" style="stroke:#181818;stroke-width:0.5;"/><polygon fill="#DDF5DD" points="351.7002,504.8057,363.7002,516.8057,351.7002,528.8057,339.7002,516.8057,351.7002,504.8057" style="stroke:#181818;stroke-width:0.5;"/><rect fill="#F1F1F1" height="62.3984" rx="12.5" ry="12.5" style="stroke:#181818;stroke-width:0.5;" width="219.207" x="242.0967" y="548.8057"/><text fill="#000000" font-family="sans-serif" font-size="12" lengthAdjust="spacing" textLength="143.8418" x="279.7793" y="570.4072">Prompt caching explicite</text><text fill="#000000" font-family="sans-serif" font-size="12" lengthAdjust="spacing" textLength="173.8418" x="264.7793" y="584.54">(system prompt partage entre</text><text fill="#000000" font-family="sans-serif" font-size="12" lengthAdjust="spacing" textLength="199.207" x="252.0967" y="598.6729">appels paralleles : lectures a 0.1x)</text><rect fill="#F1F1F1" height="48.2656" rx="12.5" ry="12.5" style="stroke:#181818;stroke-width:0.5;" width="222.002" x="240.6992" y="631.2041"/><text fill="#000000" font-family="sans-serif" font-size="12" lengthAdjust="spacing" textLength="197.9766" x="252.7119" y="652.8057">Tokens et cout mesures par appel</text><text fill="#000000" font-family="sans-serif" font-size="12" lengthAdjust="spacing" textLength="202.002" x="250.6992" y="666.9385">(agent x modele -&gt; metrics, trace)</text><ellipse cx="351.7002" cy="710.4697" fill="none" rx="11" ry="11" style="stroke:#222222;stroke-width:1;"/><ellipse cx="351.7002" cy="710.4697" fill="#222222" rx="6" ry="6" style="stroke:#222222;stroke-width:1;"/><line style="stroke:#181818;stroke-width:1;" x1="351.7002" x2="351.7002" y1="67.4883" y2="87.4883"/><polygon fill="#181818" points="347.7002,77.4883,351.7002,87.4883,355.7002,77.4883,351.7002,81.4883" style="stroke:#181818;stroke-width:1;"/><line style="stroke:#181818;stroke-width:1;" x1="351.7002" x2="351.7002" y1="266.6299" y2="286.6299"/><polygon fill="#181818" points="347.7002,276.6299,351.7002,286.6299,355.7002,276.6299,351.7002,280.6299" style="stroke:#181818;stroke-width:1;"/><line style="stroke:#181818;stroke-width:1;" x1="351.7002" x2="351.7002" y1="165.6211" y2="190.0986"/><polygon fill="#181818" points="347.7002,180.0986,351.7002,190.0986,355.7002,180.0986,351.7002,184.0986" style="stroke:#181818;stroke-width:1;"/><line style="stroke:#181818;stroke-width:1;" x1="429.6599" x2="463.6338" y1="153.6211" y2="153.6211"/><polygon fill="#181818" points="459.6338,243.8643,463.6338,253.8643,467.6338,243.8643,463.6338,247.8643" style="stroke:#181818;stroke-width:1;"/><line style="stroke:#181818;stroke-width:1;" x1="463.6338" x2="463.6338" y1="153.6211" y2="330.6299"/><line style="stroke:#181818;stroke-width:1;" x1="463.6338" x2="351.7002" y1="330.6299" y2="330.6299"/><line style="stroke:#181818;stroke-width:1;" x1="351.7002" x2="351.7002" y1="330.6299" y2="350.6299"/><polygon fill="#181818" points="347.7002,340.6299,351.7002,350.6299,355.7002,340.6299,351.7002,344.6299" style="stroke:#181818;stroke-width:1;"/><line style="stroke:#181818;stroke-width:1;" x1="351.7002" x2="351.7002" y1="121.6211" y2="141.6211"/><polygon fill="#181818" points="347.7002,131.6211,351.7002,141.6211,355.7002,131.6211,351.7002,135.6211" style="stroke:#181818;stroke-width:1;"/><line style="stroke:#181818;stroke-width:1;" x1="121.9238" x2="83.9736" y1="398.54" y2="398.54"/><line style="stroke:#181818;stroke-width:1;" x1="83.9736" x2="83.9736" y1="398.54" y2="420.54"/><polygon fill="#181818" points="79.9736,410.54,83.9736,420.54,87.9736,410.54,83.9736,414.54" style="stroke:#181818;stroke-width:1;"/><line style="stroke:#181818;stroke-width:1;" x1="215.082" x2="253.0322" y1="398.54" y2="398.54"/><line style="stroke:#181818;stroke-width:1;" x1="253.0322" x2="253.0322" y1="398.54" y2="420.54"/><polygon fill="#181818" points="249.0322,410.54,253.0322,420.54,257.0322,410.54,253.0322,414.54" style="stroke:#181818;stroke-width:1;"/><line style="stroke:#181818;stroke-width:1;" x1="83.9736" x2="83.9736" y1="468.8057" y2="486.8057"/><line style="stroke:#181818;stroke-width:1;" x1="83.9736" x2="156.5029" y1="486.8057" y2="486.8057"/><polygon fill="#181818" points="146.5029,482.8057,156.5029,486.8057,146.5029,490.8057,150.5029,486.8057" style="stroke:#181818;stroke-width:1;"/><line style="stroke:#181818;stroke-width:1;" x1="253.0322" x2="253.0322" y1="468.8057" y2="486.8057"/><line style="stroke:#181818;stroke-width:1;" x1="253.0322" x2="180.5029" y1="486.8057" y2="486.8057"/><polygon fill="#181818" points="190.5029,482.8057,180.5029,486.8057,190.5029,490.8057,186.5029,486.8057" style="stroke:#181818;stroke-width:1;"/><line style="stroke:#181818;stroke-width:1;" x1="450.1514" x2="440.1514" y1="397.585" y2="397.585"/><line style="stroke:#181818;stroke-width:1;" x1="440.1514" x2="440.1514" y1="397.585" y2="420.54"/><polygon fill="#181818" points="436.1514,410.54,440.1514,420.54,444.1514,410.54,440.1514,414.54" style="stroke:#181818;stroke-width:1;"/><line style="stroke:#181818;stroke-width:1;" x1="619.6436" x2="629.6436" y1="397.585" y2="397.585"/><line style="stroke:#181818;stroke-width:1;" x1="629.6436" x2="629.6436" y1="397.585" y2="420.54"/><polygon fill="#181818" points="625.6436,410.54,629.6436,420.54,633.6436,410.54,629.6436,414.54" style="stroke:#181818;stroke-width:1;"/><line style="stroke:#181818;stroke-width:1;" x1="440.1514" x2="440.1514" y1="468.8057" y2="486.8057"/><line style="stroke:#181818;stroke-width:1;" x1="440.1514" x2="522.8975" y1="486.8057" y2="486.8057"/><polygon fill="#181818" points="512.8975,482.8057,522.8975,486.8057,512.8975,490.8057,516.8975,486.8057" style="stroke:#181818;stroke-width:1;"/><line style="stroke:#181818;stroke-width:1;" x1="629.6436" x2="629.6436" y1="468.8057" y2="486.8057"/><line style="stroke:#181818;stroke-width:1;" x1="629.6436" x2="546.8975" y1="486.8057" y2="486.8057"/><polygon fill="#181818" points="556.8975,482.8057,546.8975,486.8057,556.8975,490.8057,552.8975,486.8057" style="stroke:#181818;stroke-width:1;"/><line style="stroke:#181818;stroke-width:1;" x1="285.7073" x2="168.5029" y1="362.6299" y2="362.6299"/><line style="stroke:#181818;stroke-width:1;" x1="168.5029" x2="168.5029" y1="362.6299" y2="386.54"/><polygon fill="#181818" points="164.5029,376.54,168.5029,386.54,172.5029,376.54,168.5029,380.54" style="stroke:#181818;stroke-width:1;"/><line style="stroke:#181818;stroke-width:1;" x1="417.6931" x2="534.8975" y1="362.6299" y2="362.6299"/><line style="stroke:#181818;stroke-width:1;" x1="534.8975" x2="534.8975" y1="362.6299" y2="384.6299"/><polygon fill="#181818" points="530.8975,374.6299,534.8975,384.6299,538.8975,374.6299,534.8975,378.6299" style="stroke:#181818;stroke-width:1;"/><line style="stroke:#181818;stroke-width:1;" x1="168.5029" x2="168.5029" y1="498.8057" y2="516.8057"/><line style="stroke:#181818;stroke-width:1;" x1="168.5029" x2="339.7002" y1="516.8057" y2="516.8057"/><polygon fill="#181818" points="329.7002,512.8057,339.7002,516.8057,329.7002,520.8057,333.7002,516.8057" style="stroke:#181818;stroke-width:1;"/><line style="stroke:#181818;stroke-width:1;" x1="534.8975" x2="534.8975" y1="498.8057" y2="516.8057"/><line style="stroke:#181818;stroke-width:1;" x1="534.8975" x2="363.7002" y1="516.8057" y2="516.8057"/><polygon fill="#181818" points="373.7002,512.8057,363.7002,516.8057,373.7002,520.8057,369.7002,516.8057" style="stroke:#181818;stroke-width:1;"/><line style="stroke:#181818;stroke-width:1;" x1="351.7002" x2="351.7002" y1="528.8057" y2="548.8057"/><polygon fill="#181818" points="347.7002,538.8057,351.7002,548.8057,355.7002,538.8057,351.7002,542.8057" style="stroke:#181818;stroke-width:1;"/><line style="stroke:#181818;stroke-width:1;" x1="351.7002" x2="351.7002" y1="611.2041" y2="631.2041"/><polygon fill="#181818" points="347.7002,621.2041,351.7002,631.2041,355.7002,621.2041,351.7002,625.2041" style="stroke:#181818;stroke-width:1;"/><line style="stroke:#181818;stroke-width:1;" x1="351.7002" x2="351.7002" y1="679.4697" y2="699.4697"/><polygon fill="#181818" points="347.7002,689.4697,351.7002,699.4697,355.7002,689.4697,351.7002,693.4697" style="stroke:#181818;stroke-width:1;"/><g class="legend" data-source-line="46"><rect fill="#DDDDDD" height="42.9766" rx="7.5" ry="7.5" style="stroke:#000000;stroke-width:1;" width="583.0703" x="70.8091" y="732.4697"/><text fill="#000000" font-family="sans-serif" font-size="14" lengthAdjust="spacing" textLength="482.0156" x="121.3364" y="751.0049">Le tiering est une decision de code (config + gates), pas une intuition :</text><text fill="#000000" font-family="sans-serif" font-size="14" lengthAdjust="spacing" textLength="573.0703" x="75.8091" y="767.4932">les gates deterministes, gratuits, protegent le modele cher des erreurs structurelles.</text></g><?plantuml-src RLDBRzms4BxpLmpWYnRT16w06e7Ij6YjkZquI8BuLFZ2KBFoT2bIuSDOeyX_ppVKsh7XN0GzXf--rnGfdkayra9BYajCHM88JBPIalobClM4WSynq1n7zhpLJ_h8OKnHofP6TZ8oBJRffCEKCNal0I_iZAyxMtsvuaFvmyiKPWw572wS7arPL-HMojqWTevXfFyDqP_MxQSKQnZFeu-9JeRXufTXC5y1Nsmgfh-oxWPKYG_iAW3V62CxwWOkx8hzx5TIOssawFSDbHiErCKg6-2V36T_NLnSzFzoYdHv-SxSMY-ZLGCe0tYsMqeyUSuGOLoyuSJ1mG1lx-3N5WxiOdAiYapdrCAUJgd4FOVD6_mWbxWOzfcf2p5i31oJtKhnOsLFvMvXG5DfCXxe8OUnkaPZL3zXLQXAM0-UntdnV93ow43swdyM_N8TVdrBhyZTs7d9UeZkVUl_iRAlfbjZ90Pmd0K9DwuhpHN9hVy0LaGBh6HjXAeyui6qryDP_qbVbmT0qKXd7iLAEc8slIloVtLg42hfIuNHXUyb_MrBirYFIv2iJulDcVCryBLUUuAep5KyTQzEDq-IfFuw79kwiuBCVqIIiWqPPoIWSPFf4jzYFja5SX_9HqgFu23gzZlQS0QqzqlDz1FwXaX67fyXsWNXxL1WUUB0cdl_8S5Ob1znumnG5YyEHfWktq7rh1ke0oXjiHC8X9BO01FizANrdhMDkf6kr8HRIwSlVpxWN_sLrYuJjBOcpfpRW2v0Gp0T8E7_uRZ7zE8t39KaBc-f9EkKSMkiyOp94KjUIfoXuX8L5KwDSovK0xUTpmyDnGNz3pkPOCwaSMws6c4RHI-gj3Rtm5B-q_F0jpGbgtEuWmk56rUmF9B5Wc2HSOfJufeoTYlLvW4yoI_LObffcsy0?></g></svg>