<?plantuml 1.2026.1?><svg xmlns="http://www.w3.org/2000/svg" xmlns:xlink="http://www.w3.org/1999/xlink" contentStyleType="text/css" data-diagram-type="DESCRIPTION" height="714px" preserveAspectRatio="none" style="width:1556px;height:714px;background:#FFFFFF;" version="1.1" viewBox="0 0 1556 714" width="1556px" zoomAndPan="magnify"><title>Les boucles fermees : chaque run produit les donnees qui ameliorent le suivant</title><defs/><g><g class="title" data-source-line="2"><text fill="#000000" font-family="sans-serif" font-size="14" font-weight="bold" lengthAdjust="spacing" textLength="574.417" x="483.8633" y="23.5352">Les boucles fermees : chaque run produit les donnees qui ameliorent le suivant</text></g><!--cluster run--><g class="cluster" data-qualified-name="run" data-source-line="22" id="ent0002"><rect fill="#FFE9D6" height="152.46" rx="2.5" ry="2.5" style="stroke:#000000;stroke-width:1;" width="669" x="7" y="44.4883"/><text fill="#000000" font-family="sans-serif" font-size="14" font-style="italic" lengthAdjust="spacing" textLength="37.7754" x="322.6123" y="60.0234">&#171;run&#187;</text><text fill="#000000" font-family="sans-serif" font-size="14" font-weight="bold" lengthAdjust="spacing" textLength="128.9326" x="277.0337" y="76.5117">Run N du pipeline</text></g><!--entity loop1--><g class="entity" data-qualified-name="run.loop1" data-source-line="23" id="ent0003"><rect fill="#FFFFFF" height="69.4648" rx="2.5" ry="2.5" style="stroke:#000000;stroke-width:0.5;" width="274.3652" x="30.82" y="103.4883"/><text fill="#000000" font-family="sans-serif" font-size="14" lengthAdjust="spacing" textLength="114.3379" x="110.8337" y="127.0234">Boucle 1 : review</text><text fill="#000000" font-family="sans-serif" font-size="14" lengthAdjust="spacing" textLength="254.3652" x="40.82" y="143.5117">Reviewer -&gt; issues typees -&gt; Writers</text><text fill="#000000" font-family="sans-serif" font-size="14" lengthAdjust="spacing" textLength="120.4561" x="107.7746" y="160">(max 2 iterations)</text></g><!--entity loop2--><g class="entity" data-qualified-name="run.loop2" data-source-line="24" id="ent0004"><rect fill="#FFFFFF" height="69.4648" rx="2.5" ry="2.5" style="stroke:#000000;stroke-width:0.5;" width="292.3301" x="339.83" y="103.4883"/><text fill="#000000" font-family="sans-serif" font-size="14" lengthAdjust="spacing" textLength="121.7412" x="425.1244" y="127.0234">Boucle 2 : visuelle</text><text fill="#000000" font-family="sans-serif" font-size="14" lengthAdjust="spacing" textLength="272.3301" x="349.83" y="143.5117">Vision -&gt; defauts corrigibles -&gt; Writers</text><text fill="#000000" font-family="sans-serif" font-size="14" lengthAdjust="spacing" textLength="166.7012" x="402.6445" y="160">(converger ou escalader)</text></g><!--entity issuelog--><g class="entity" data-qualified-name="issuelog" data-source-line="27" id="ent0005"><rect fill="#FFF8D6" height="85.9531" rx="2.5" ry="2.5" style="stroke:#000000;stroke-width:0.5;" width="251.4307" x="802.28" y="251.9483"/><text fill="#000000" font-family="sans-serif" font-size="14" font-style="italic" lengthAdjust="spacing" textLength="66.4521" x="894.7693" y="275.4834">&#171;artefact&#187;</text><text fill="#000000" font-family="sans-serif" font-size="14" lengthAdjust="spacing" textLength="59.6025" x="898.1941" y="291.9717">issueLog</text><text fill="#000000" font-family="sans-serif" font-size="14" lengthAdjust="spacing" textLength="231.4307" x="812.28" y="308.46">(toutes sources : selector sanitise,</text><text fill="#000000" font-family="sans-serif" font-size="14" lengthAdjust="spacing" textLength="168.9229" x="843.5339" y="324.9483">review, formatter, visuel)</text></g><!--entity trace--><g class="entity" data-qualified-name="trace" data-source-line="28" id="ent0006"><rect fill="#FFF8D6" height="85.9531" rx="2.5" ry="2.5" style="stroke:#000000;stroke-width:0.5;" width="205.8076" x="291.1" y="251.9483"/><text fill="#000000" font-family="sans-serif" font-size="14" font-style="italic" lengthAdjust="spacing" textLength="66.4521" x="360.7777" y="275.4834">&#171;artefact&#187;</text><text fill="#000000" font-family="sans-serif" font-size="14" lengthAdjust="spacing" textLength="66.7803" x="360.6137" y="291.9717">trace.json</text><text fill="#000000" font-family="sans-serif" font-size="14" lengthAdjust="spacing" textLength="185.8076" x="301.1" y="308.46">(phases, tentatives, tokens,</text><text fill="#000000" font-family="sans-serif" font-size="14" lengthAdjust="spacing" textLength="107.9873" x="340.0102" y="324.9483">erreurs, durees)</text></g><!--entity memory--><g class="entity" data-qualified-name="memory" data-source-line="30" id="ent0007"><rect fill="#D6EFFF" height="69.4648" rx="2.5" ry="2.5" style="stroke:#000000;stroke-width:0.5;" width="267.4404" x="731.28" y="438.1483"/><text fill="#000000" font-family="sans-serif" font-size="14" font-style="italic" lengthAdjust="spacing" textLength="47.0518" x="841.4743" y="461.6834">&#171;code&#187;</text><text fill="#000000" font-family="sans-serif" font-size="14" lengthAdjust="spacing" textLength="177.2217" x="776.3894" y="478.1717">Synthese memoire (Haiku)</text><text fill="#000000" font-family="sans-serif" font-size="14" lengthAdjust="spacing" textLength="247.4404" x="741.28" y="494.66">guidelines par agent et par template</text></g><!--entity escalate--><g class="entity" data-qualified-name="escalate" data-source-line="31" id="ent0008"><rect fill="#F5DDF5" height="85.9531" rx="2.5" ry="2.5" style="stroke:#000000;stroke-width:0.5;" width="195.9092" x="1168.05" y="429.8983"/><text fill="#000000" font-family="sans-serif" font-size="14" font-style="italic" lengthAdjust="spacing" textLength="61.5371" x="1235.236" y="453.4334">&#171;human&#187;</text><text fill="#000000" font-family="sans-serif" font-size="14" lengthAdjust="spacing" textLength="121.1602" x="1205.4245" y="469.9217">Escalade humaine</text><text fill="#000000" font-family="sans-serif" font-size="14" lengthAdjust="spacing" textLength="175.9092" x="1178.05" y="486.41">(uniquement si guidelines</text><text fill="#000000" font-family="sans-serif" font-size="14" lengthAdjust="spacing" textLength="168.1777" x="1181.9157" y="502.8983">supprimees ou reecrites)</text></g><!--entity memfile--><g class="entity" data-qualified-name="memfile" data-source-line="32" id="ent0009"><rect fill="#FFF8D6" height="85.9531" rx="2.5" ry="2.5" style="stroke:#000000;stroke-width:0.5;" width="187.0361" x="1047.48" y="622.8583"/><text fill="#000000" font-family="sans-serif" font-size="14" font-style="italic" lengthAdjust="spacing" textLength="66.4521" x="1107.772" y="646.3934">&#171;artefact&#187;</text><text fill="#000000" font-family="sans-serif" font-size="14" lengthAdjust="spacing" textLength="153.9111" x="1064.0425" y="662.8817">&lt;agent&gt;_MEMORY.md</text><text fill="#000000" font-family="sans-serif" font-size="14" lengthAdjust="spacing" textLength="167.0361" x="1057.48" y="679.37">injecte dans les prompts</text><text fill="#000000" font-family="sans-serif" font-size="14" lengthAdjust="spacing" textLength="79.7891" x="1101.1035" y="695.8583">du run N+1</text></g><!--entity traceeval--><g class="entity" data-qualified-name="traceeval" data-source-line="34" id="ent0010"><rect fill="#D6EFFF" height="85.9531" rx="2.5" ry="2.5" style="stroke:#000000;stroke-width:0.5;" width="263.2363" x="349.38" y="429.8983"/><text fill="#000000" font-family="sans-serif" font-size="14" font-style="italic" lengthAdjust="spacing" textLength="47.0518" x="457.4723" y="453.4334">&#171;code&#187;</text><text fill="#000000" font-family="sans-serif" font-size="14" lengthAdjust="spacing" textLength="184.2969" x="388.8497" y="469.9217">traceeval (rejeu hors-ligne)</text><text fill="#000000" font-family="sans-serif" font-size="14" lengthAdjust="spacing" textLength="222.8516" x="369.5724" y="486.41">KPI : duree, retries, tokens, cout,</text><text fill="#000000" font-family="sans-serif" font-size="14" lengthAdjust="spacing" textLength="243.2363" x="359.38" y="502.8983">verifications rejouees - cout API nul</text></g><!--entity golden--><g class="entity" data-qualified-name="golden" data-source-line="35" id="ent0011"><rect fill="#FFF8D6" height="85.9531" rx="2.5" ry="2.5" style="stroke:#000000;stroke-width:0.5;" width="165.7627" x="95.12" y="429.8983"/><text fill="#000000" font-family="sans-serif" font-size="14" font-style="italic" lengthAdjust="spacing" textLength="66.4521" x="144.7753" y="453.4334">&#171;artefact&#187;</text><text fill="#000000" font-family="sans-serif" font-size="14" lengthAdjust="spacing" textLength="145.7627" x="105.12" y="469.9217">Golden run versionne</text><text fill="#000000" font-family="sans-serif" font-size="14" lengthAdjust="spacing" textLength="118.4805" x="118.7611" y="486.41">(edito-trace.json)</text><text fill="#000000" font-family="sans-serif" font-size="14" lengthAdjust="spacing" textLength="126.3623" x="114.8202" y="502.8983">gate de regression</text></g><!--link run to issuelog--><g class="link" data-entity-1="ent0002" data-entity-2="ent0005" data-link-type="dependency" data-source-line="37" id="lnk12"><path d="M676.2297,144.1147 C676.355,144.1893 676.4817,144.2647 676.6097,144.3408 C677.6334,144.9499 678.7405,145.6087 679.9267,146.3145 C682.2991,147.7262 684.9879,149.3261 687.9584,151.0938 C699.8406,158.1642 716.2313,167.9177 734.9175,179.037 C772.29,201.2758 813.6887,225.9104 851.7237,248.5404" fill="none" id="run-to-issuelog" style="stroke:#181818;stroke-width:1;"/><polygon fill="#181818" points="856.88,251.6083,851.1908,243.5688,852.583,249.0517,847.1002,250.444,856.88,251.6083" style="stroke:#181818;stroke-width:1;"/></g><!--link run to trace--><g class="link" data-entity-1="ent0002" data-entity-2="ent0006" data-link-type="dependency" data-source-line="38" id="lnk13"><path d="M659.9883,197.2748 C659.7623,197.7353 659.5305,198.1924 659.293,198.6461 C658.3427,200.4606 657.2996,202.2183 656.1549,203.9009 C653.8655,207.2661 651.17,210.3308 648,212.9483 C629.61,228.1283 563.99,214.6383 541,220.9483 C515.31,227.9983 494.1121,236.8966 470.7821,248.8266" fill="none" id="run-to-trace" style="stroke:#181818;stroke-width:1;"/><polygon fill="#181818" points="465.44,251.5583,475.2743,251.0221,469.8917,249.2819,471.632,243.8993,465.44,251.5583" style="stroke:#181818;stroke-width:1;"/></g><!--link issuelog to memory--><g class="link" data-entity-1="ent0005" data-entity-2="ent0007" data-link-type="dependency" data-source-line="40" id="lnk14"><path d="M912.91,338.0683 C901.99,368.5683 889.4437,403.6199 879.2437,432.0899" fill="none" id="issuelog-to-memory" style="stroke:#181818;stroke-width:1;"/><polygon fill="#181818" points="877.22,437.7383,884.0211,430.6148,878.9064,433.0313,876.4899,427.9165,877.22,437.7383" style="stroke:#181818;stroke-width:1;"/></g><!--link memory to escalate--><g class="link" data-entity-1="ent0007" data-entity-2="ent0008" data-link-type="dependency" data-source-line="41" id="lnk15"><path d="M999.08,472.8783 C1054.18,472.8783 1110.83,472.8783 1161.57,472.8783" fill="none" id="memory-to-escalate" style="stroke:#181818;stroke-width:1;"/><polygon fill="#181818" points="1167.57,472.8783,1158.57,468.8783,1162.57,472.8783,1158.57,476.8783,1167.57,472.8783" style="stroke:#181818;stroke-width:1;"/><text fill="#000000" font-family="sans-serif" font-size="13" lengthAdjust="spacing" textLength="133.0278" x="1016.88" y="466.4466">changement litigieux</text></g><!--link memory to memfile--><g class="link" data-entity-1="ent0007" data-entity-2="ent0009" data-link-type="dependency" data-source-line="42" id="lnk16"><path d="M914.34,508.0183 C960.63,540.0383 1025.0456,584.6148 1074.8456,619.0648" fill="none" id="memory-to-memfile" style="stroke:#181818;stroke-width:1;"/><polygon fill="#181818" points="1079.78,622.4783,1074.654,614.0685,1075.668,619.6337,1070.1028,620.6477,1079.78,622.4783" style="stroke:#181818;stroke-width:1;"/><text fill="#000000" font-family="sans-serif" font-size="13" lengthAdjust="spacing" textLength="48.9277" x="1059.517" y="559.4266">additif :</text><text fill="#000000" font-family="sans-serif" font-size="13" lengthAdjust="spacing" textLength="94.2817" x="1036.84" y="574.7372">auto-applique,</text><text fill="#000000" font-family="sans-serif" font-size="13" lengthAdjust="spacing" textLength="90.7144" x="1038.6237" y="590.0477">reversible (git)</text></g><!--reverse link run to memfile--><g class="link" data-entity-1="ent0002" data-entity-2="ent0009" data-link-type="dependency" data-source-line="43" id="lnk18"><path d="M682.4602,139.3212 C683.0689,139.329 678.5982,139.2797 679.2631,139.2898 C680.5929,139.3099 682.0342,139.3351 683.5835,139.3664 C686.6821,139.4289 690.213,139.516 694.1489,139.6367 C709.8927,140.1197 732.1176,141.1414 759.0845,143.2877 C813.0184,147.5802 885.9206,156.3708 963.8788,174.3458 C1119.795,210.2958 1295.935,282.9833 1381,429.8983 C1400.14,462.9583 1399.57,482.4683 1381,515.8583 C1349.83,571.8883 1287.89,609.5483 1234.75,632.9883" fill="none" id="run-backto-memfile" style="stroke:#181818;stroke-width:1;"/><polygon fill="#181818" points="676.4606,139.2523,685.4141,143.3554,681.4603,139.3097,685.5059,135.3559,676.4606,139.2523" style="stroke:#181818;stroke-width:1;"/><text fill="#000000" font-family="sans-serif" font-size="13" lengthAdjust="spacing" textLength="123.1953" x="1393.3591" y="381.4666">Run N+1 : boucle 3</text><text fill="#000000" font-family="sans-serif" font-size="13" lengthAdjust="spacing" textLength="186.3735" x="1361.77" y="396.7772">(apprentissage run-over-run)</text></g><!--link trace to traceeval--><g class="link" data-entity-1="ent0006" data-entity-2="ent0010" data-link-type="dependency" data-source-line="45" id="lnk19"><path d="M414.84,338.0683 C428.51,365.7283 443.6708,396.3797 457.3708,424.0897" fill="none" id="trace-to-traceeval" style="stroke:#181818;stroke-width:1;"/><polygon fill="#181818" points="460.03,429.4683,459.6269,419.6277,457.814,424.9862,452.4555,423.1733,460.03,429.4683" style="stroke:#181818;stroke-width:1;"/></g><!--link golden to traceeval--><g class="link" data-entity-1="ent0011" data-entity-2="ent0010" data-link-type="dependency" data-source-line="46" id="lnk20"><path d="M261.2,472.8783 C288.35,472.8783 313.21,472.8783 343.04,472.8783" fill="none" id="golden-to-traceeval" style="stroke:#181818;stroke-width:1;"/><polygon fill="#181818" points="349.04,472.8783,340.04,468.8783,344.04,472.8783,340.04,476.8783,349.04,472.8783" style="stroke:#181818;stroke-width:1;"/><text fill="#000000" font-family="sans-serif" font-size="13" lengthAdjust="spacing" textLength="52.0571" x="279.13" y="466.4466">baseline</text></g><!--reverse link run to traceeval--><g class="link" data-entity-1="ent0002" data-entity-2="ent0010" data-link-type="dependency" data-source-line="47" id="lnk22"><path d="M654.6407,202.4841 C654.5366,202.7258 656.6274,197.81 656.5214,198.0508 C656.3092,198.5325 656.0931,199.0122 655.873,199.4898 C655.4328,200.445 654.9767,201.3916 654.5039,202.3279 C652.6131,206.073 650.4575,209.652 648,212.9483 C628.32,239.3483 606.94,227.3883 585,251.9483 C538.01,304.5483 508.07,382.1183 492.93,429.6883" fill="none" id="run-backto-traceeval" style="stroke:#181818;stroke-width:1;"/><polygon fill="#181818" points="656.9922,196.964,649.785,203.6764,655.0326,201.564,657.145,206.8117,656.9922,196.964" style="stroke:#181818;stroke-width:1;"/><text fill="#000000" font-family="sans-serif" font-size="13" lengthAdjust="spacing" textLength="189.8076" x="590.5608" y="292.4966">Boucle 4 : regression detectee</text><text fill="#000000" font-family="sans-serif" font-size="13" lengthAdjust="spacing" textLength="198.9292" x="586" y="307.8072">-&gt; correction avant run suivant</text></g><?plantuml-src TLNRRjD047ttLup2IoFYIYqNGLLLQcaBY79HGI2aI6Yn9ywqwrspbxGLujyvkquQ1vgNE5xFdBcSCxD1WcQwO4y_RQmqdZDsBUDvGDLS_OfCBXhgdAsZ14e6jJKc6VoAGgfbBTQnIP_8Hrae4uh2Nulfb5CjrJnJKOSlV1kEjJIcJQOLVjWDh1nNGPa64ByBeXDLNJVEHbE_ijew-ZQNmEdSkffTVtQYOLJyUGZZy10P7nqz2FNe_FpivUdpROxA1UHRXUtUvo-sUrUsvcsUfy_FuBpDSnvRjJtbPwUdvy_WMgpRDBe4AH-eZjH91meCZsXLj_APieGrS3Z9zD8UU7My4BwPcilyP4Vb4Odt4Po6kovHYuDl3artVcfsMdLB-vJUL11h_7YKGcXhkxq7G-mZn480fpLFpLVnS4g8MGh1KsMTaqP-wdy3LTOis3L8o4PYNocjmFSwtFu_FSWvNzW6hi7603XlewkoTZrh6A9zNXa9udaoDNtT4vfPrwg0e9DbdkFKl07tY9UnjMs6yO9J5UzUUMiGiPihptv20Lf6NnRvlxrcun69dUFeS597Xtu-W9-nDghvV6V2d3rJowqLnxJpHibr74zD4wNE77k2SaWrQOOuv9V0RQTLoFGlzGVq1E7kXkXdotPIaXgWK44qWl7E0-c5ra6cniUkSvAt09X01LNYg2zZ9LL4wId2Q0xY7ERiZdwyFtl_yVBxRbjFZPWhV6UgbV5vWM2Pj5r07CWtAVN3uxt_6uGIPg8tMvIRnWkbQSVn5KUQM-VBj5OORNhtwIs8pnsV8EdWPC09L1S3c870P2PLhsHONTcO1P-_qp4WJDIRpRoFEapbjTKrcvm-89F4Sq-vbc3BjL0IUohLZZNAZMEVBFyljibeg1LmPMrlp6eYim87XqlPhBxTdoy9xnzKOhxc0SShXlfbRfgUROs1Q8JZxRtz6YNr7DQgHY4oeuEfmSpQKdMTJchffoWLZF6bdKR2k5XvbR43HihsOBcV7gTjqzyhz0JT0KgwAf0zL98iImki4d_6ewB8jMrMchlUDsTTr5e50CSG9j4MwyEDD9OhwMdUUgl-WusG50d2O9dM4TxIkKgtLtPTtcIZuYy0?></g></svg>