<?plantuml 1.2026.1?><svg xmlns="http://www.w3.org/2000/svg" xmlns:xlink="http://www.w3.org/1999/xlink" contentStyleType="text/css" data-diagram-type="ACTIVITY" height="1123px" preserveAspectRatio="none" style="width:733px;height:1123px;background:#FEFEFE;" version="1.1" viewBox="0 0 733 1123" width="733px" zoomAndPan="magnify"><title>Phase 3 &#8212; Production : creation de la presentation Google Slides</title><defs/><g><rect fill="#FEFEFE" height="1123" style="stroke:none;stroke-width:1;" width="733" x="0" y="0"/><rect fill="#FFFFCC" height="49.9219" rx="2.5" ry="2.5" style="stroke:#FFDD88;stroke-width:3;" width="722.8135" x="5" y="5"/><text fill="#000000" font-family="monospace" font-size="10" lengthAdjust="spacing" textLength="295.0049" x="10" y="20">The&#160;syntax&#160;using&#160;the&#160;|&#160;character&#160;is&#160;now&#160;obsolete.</text><text fill="#000000" font-family="monospace" font-size="10" lengthAdjust="spacing" textLength="288.9844" x="10" y="31.6406">Please&#160;use&#160;the&#160;&lt;&lt;procedure&gt;&gt;&#160;stereotype&#160;instead.</text><text fill="#000000" font-family="monospace" font-size="10" lengthAdjust="spacing" textLength="397.3535" x="10" y="43.2813">For&#160;more&#160;details,&#160;visit&#160;https://plantuml.com/activity-diagram-beta</text><g class="title" data-source-line="12"><text fill="#000000" font-family="'Helvetica'" font-size="22" font-weight="bold" lengthAdjust="spacing" textLength="685.8135" x="15" y="91.8623">Phase 3 &#8212; Production : creation de la presentation Google Slides</text></g><ellipse cx="256.0303" cy="117.9219" fill="#FFFFFF" rx="10" ry="10" style="stroke:#000000;stroke-width:1;"/><rect fill="#FFFFFF" height="88" style="stroke:#000000;stroke-width:1;" width="381.7969" x="159.0117" y="137.9219"/><path d="M301.7559,137.9219 L301.7559,142.9219 L291.7559,152.9219 L159.0117,152.9219" fill="none" style="stroke:#000000;stroke-width:1;"/><text fill="#000000" font-family="'Helvetica'" font-size="12" lengthAdjust="spacing" textLength="132.7441" x="162.0117" y="148.1621">3.1 &#8212; Copie du template</text><path d="M363.0488,174.9219 L363.0488,187.9219 L343.0488,191.9219 L363.0488,195.9219 L363.0488,208.9219 A0,0 0 0 0 363.0488,208.9219 L530.8086,208.9219 A0,0 0 0 0 530.8086,208.9219 L530.8086,184.9219 L520.8086,174.9219 L363.0488,174.9219 A0,0 0 0 0 363.0488,174.9219" fill="#FFFFCC" style="stroke:#CCCC88;stroke-width:1;"/><path d="M520.8086,174.9219 L520.8086,184.9219 L530.8086,184.9219 L520.8086,174.9219" fill="#FFFFCC" style="stroke:#CCCC88;stroke-width:1;"/><text fill="#000000" font-family="'Helvetica'" font-size="12" lengthAdjust="spacing" textLength="146.7598" x="369.0488" y="189.1621">Copie integrale du template</text><text fill="#000000" font-family="'Helvetica'" font-size="12" lengthAdjust="spacing" textLength="105.3691" x="369.0488" y="201.1621">(toutes les N slides)</text><rect fill="#F5F5F5" height="44" rx="12.5" ry="12.5" style="stroke:#AAAAAA;stroke-width:1;" width="174.0371" x="169.0117" y="169.9219"/><text fill="#000000" font-family="'Helvetica'" font-size="12" lengthAdjust="spacing" textLength="154.0371" x="179.0117" y="189.1621">Drive.Files.Copy(templateID)</text><text fill="#000000" font-family="'Helvetica'" font-size="12" lengthAdjust="spacing" textLength="130.4121" x="179.0117" y="201.1621">-&gt; Nouvelle presentation</text><rect fill="#FFFFFF" height="142" style="stroke:#000000;stroke-width:1;" width="427.2305" x="139.9893" y="235.9219"/><path d="M348.0889,235.9219 L348.0889,240.9219 L338.0889,250.9219 L139.9893,250.9219" fill="none" style="stroke:#000000;stroke-width:1;"/><text fill="#000000" font-family="'Helvetica'" font-size="12" lengthAdjust="spacing" textLength="198.0996" x="142.9893" y="246.1621">3.2 &#8212; Duplication des slides choisies</text><path d="M382.0713,267.9219 L382.0713,286.9219 L362.0713,290.9219 L382.0713,294.9219 L382.0713,313.9219 A0,0 0 0 0 382.0713,313.9219 L557.2197,313.9219 A0,0 0 0 0 557.2197,313.9219 L557.2197,277.9219 L547.2197,267.9219 L382.0713,267.9219 A0,0 0 0 0 382.0713,267.9219" fill="#FFFFCC" style="stroke:#CCCC88;stroke-width:1;"/><path d="M547.2197,267.9219 L547.2197,277.9219 L557.2197,277.9219 L547.2197,267.9219" fill="#FFFFCC" style="stroke:#CCCC88;stroke-width:1;"/><text fill="#000000" font-family="'Helvetica'" font-size="12" lengthAdjust="spacing" textLength="88.6992" x="388.0713" y="282.1621">IDs predictibles :</text><text fill="#000000" font-family="'Helvetica'" font-size="12" font-weight="bold" lengthAdjust="spacing" textLength="142.6934" x="388.0713" y="294.1621">d{compteur}_{IDoriginal}</text><text fill="#000000" font-family="'Helvetica'" font-size="12" lengthAdjust="spacing" textLength="154.1484" x="388.0713" y="306.1621">Ex: d1_g344a0977514_44_0</text><rect fill="#F5F5F5" height="44" rx="12.5" ry="12.5" style="stroke:#AAAAAA;stroke-width:1;" width="212.082" x="149.9893" y="268.9219"/><text fill="#000000" font-family="'Helvetica'" font-size="12" lengthAdjust="spacing" textLength="76.0488" x="159.9893" y="288.1621">BatchUpdate :</text><text fill="#000000" font-family="'Helvetica'" font-size="12" lengthAdjust="spacing" textLength="192.082" x="159.9893" y="300.1621">DuplicateObject (x M slides du plan)</text><rect fill="#F5F5F5" height="32" rx="12.5" ry="12.5" style="stroke:#AAAAAA;stroke-width:1;" width="176.4043" x="167.8281" y="333.9219"/><text fill="#000000" font-family="'Helvetica'" font-size="12" lengthAdjust="spacing" textLength="156.4043" x="177.8281" y="353.1621">Etat : N originales + M copies</text><rect fill="#FFFFFF" height="152" style="stroke:#000000;stroke-width:1;" width="227.4063" x="142.3271" y="387.9219"/><path d="M329.0986,387.9219 L329.0986,392.9219 L319.0986,402.9219 L142.3271,402.9219" fill="none" style="stroke:#000000;stroke-width:1;"/><text fill="#000000" font-family="'Helvetica'" font-size="12" lengthAdjust="spacing" textLength="176.7715" x="145.3271" y="398.1621">3.3 &#8212; Suppression des originaux</text><rect fill="#F5F5F5" height="44" rx="12.5" ry="12.5" style="stroke:#AAAAAA;stroke-width:1;" width="207.4063" x="152.3271" y="419.9219"/><text fill="#000000" font-family="'Helvetica'" font-size="12" lengthAdjust="spacing" textLength="76.0488" x="162.3271" y="439.1621">BatchUpdate :</text><text fill="#000000" font-family="'Helvetica'" font-size="12" lengthAdjust="spacing" textLength="187.4063" x="162.3271" y="451.1621">DeleteObject (x N slides originales)</text><rect fill="#F5F5F5" height="44" rx="12.5" ry="12.5" style="stroke:#AAAAAA;stroke-width:1;" width="161.4043" x="175.3281" y="483.9219"/><text fill="#000000" font-family="'Helvetica'" font-size="12" lengthAdjust="spacing" textLength="141.4043" x="185.3281" y="503.1621">Etat : M slides uniquement</text><text fill="#000000" font-family="'Helvetica'" font-size="12" lengthAdjust="spacing" textLength="81.375" x="185.3281" y="515.1621">(celles du plan)</text><rect fill="#FFFFFF" height="90" style="stroke:#000000;stroke-width:1;" width="332.4785" x="178.9951" y="549.9219"/><path d="M329.749,549.9219 L329.749,554.9219 L319.749,564.9219 L178.9951,564.9219" fill="none" style="stroke:#000000;stroke-width:1;"/><text fill="#000000" font-family="'Helvetica'" font-size="12" lengthAdjust="spacing" textLength="140.7539" x="181.9951" y="560.1621">3.4 &#8212; Reordonnancement</text><path d="M343.0654,581.9219 L343.0654,600.9219 L323.0654,604.9219 L343.0654,608.9219 L343.0654,627.9219 A0,0 0 0 0 343.0654,627.9219 L501.4736,627.9219 A0,0 0 0 0 501.4736,627.9219 L501.4736,591.9219 L491.4736,581.9219 L343.0654,581.9219 A0,0 0 0 0 343.0654,581.9219" fill="#FFFFCC" style="stroke:#CCCC88;stroke-width:1;"/><path d="M491.4736,581.9219 L491.4736,591.9219 L501.4736,591.9219 L491.4736,581.9219" fill="#FFFFCC" style="stroke:#CCCC88;stroke-width:1;"/><text fill="#000000" font-family="'Helvetica'" font-size="12" lengthAdjust="spacing" textLength="137.4082" x="349.0654" y="596.1621">Iteration en sens inverse :</text><text fill="#000000" font-family="'Helvetica'" font-size="12" lengthAdjust="spacing" textLength="119.4258" x="349.0654" y="608.1621">chaque slide deplacee</text><text fill="#000000" font-family="'Helvetica'" font-size="12" lengthAdjust="spacing" textLength="68.0508" x="349.0654" y="620.1621">en position 0</text><rect fill="#F5F5F5" height="44" rx="12.5" ry="12.5" style="stroke:#AAAAAA;stroke-width:1;" width="134.0703" x="188.9951" y="582.9219"/><text fill="#000000" font-family="'Helvetica'" font-size="12" lengthAdjust="spacing" textLength="76.0488" x="198.9951" y="602.1621">BatchUpdate :</text><text fill="#000000" font-family="'Helvetica'" font-size="12" lengthAdjust="spacing" textLength="114.0703" x="198.9951" y="614.1621">UpdateSlidesPosition</text><rect fill="#FFFFFF" height="361.9688" style="stroke:#000000;stroke-width:1;" width="417.5039" x="161.3203" y="649.9219"/><path d="M328.7324,649.9219 L328.7324,654.9219 L318.7324,664.9219 L161.3203,664.9219" fill="none" style="stroke:#000000;stroke-width:1;"/><text fill="#000000" font-family="'Helvetica'" font-size="12" lengthAdjust="spacing" textLength="157.4121" x="164.3203" y="660.1621">3.5 &#8212; Modification des textes</text><rect fill="#F5F5F5" height="44" rx="12.5" ry="12.5" style="stroke:#AAAAAA;stroke-width:1;" width="169.4199" x="171.3203" y="681.9219"/><text fill="#000000" font-family="'Helvetica'" font-size="12" lengthAdjust="spacing" textLength="76.0488" x="181.3203" y="701.1621">BatchUpdate :</text><text fill="#000000" font-family="'Helvetica'" font-size="12" lengthAdjust="spacing" textLength="149.4199" x="181.3203" y="713.1621">Pour chaque champ modifie</text><rect fill="#F5F5F5" height="44" rx="12.5" ry="12.5" style="stroke:#AAAAAA;stroke-width:1;" width="102.0313" x="205.0146" y="745.9219"/><text fill="#000000" font-family="'Helvetica'" font-size="12" lengthAdjust="spacing" textLength="71.3672" x="215.0146" y="765.1621">1. DeleteText</text><text fill="#000000" font-family="'Helvetica'" font-size="12" lengthAdjust="spacing" textLength="82.0313" x="215.0146" y="777.1621">(vide le champ)</text><rect fill="#F5F5F5" height="44" rx="12.5" ry="12.5" style="stroke:#AAAAAA;stroke-width:1;" width="103.3848" x="204.3379" y="809.9219"/><text fill="#000000" font-family="'Helvetica'" font-size="12" lengthAdjust="spacing" textLength="66.6914" x="214.3379" y="829.1621">2. InsertText</text><text fill="#000000" font-family="'Helvetica'" font-size="12" lengthAdjust="spacing" textLength="83.3848" x="214.3379" y="841.1621">(nouveau texte)</text><rect fill="#F5F5F5" height="45.9688" rx="12.5" ry="12.5" style="stroke:#AAAAAA;stroke-width:1;" width="133.6016" x="189.2295" y="873.9219"/><text fill="#000000" font-family="'Helvetica'" font-size="12" lengthAdjust="spacing" textLength="102.0527" x="199.2295" y="893.1621">3. UpdateTextStyle</text><text fill="#000000" font-family="'Helvetica'" font-size="12" lengthAdjust="spacing" textLength="3.9961" x="199.2295" y="907.1309">(</text><text fill="#000000" font-family="'Helvetica'" font-size="12" font-weight="bold" lengthAdjust="spacing" textLength="25.3477" x="203.2256" y="907.1309">gras</text><text fill="#000000" font-family="'Helvetica'" font-size="12" lengthAdjust="spacing" textLength="3.334" x="228.5732" y="907.1309">,</text><text fill="#000000" font-family="'Helvetica'" font-size="12" font-style="italic" lengthAdjust="spacing" textLength="38.0273" x="235.2412" y="907.1309">italique</text><text fill="#000000" font-family="'Helvetica'" font-size="12" lengthAdjust="spacing" textLength="3.334" x="273.2686" y="907.1309">,</text><text fill="#000000" font-family="Courier" font-size="12" lengthAdjust="spacing" textLength="28.8984" x="279.9365" y="907.0605">code</text><text fill="#000000" font-family="'Helvetica'" font-size="12" lengthAdjust="spacing" textLength="3.9961" x="308.835" y="907.1309">)</text><path d="M356.7383,929.8906 L356.7383,960.8906 L336.7383,964.8906 L356.7383,968.8906 L356.7383,999.8906 A0,0 0 0 0 356.7383,999.8906 L568.8242,999.8906 A0,0 0 0 0 568.8242,999.8906 L568.8242,939.8906 L558.8242,929.8906 L356.7383,929.8906 A0,0 0 0 0 356.7383,929.8906" fill="#FFFFCC" style="stroke:#CCCC88;stroke-width:1;"/><path d="M558.8242,929.8906 L558.8242,939.8906 L568.8242,939.8906 L558.8242,929.8906" fill="#FFFFCC" style="stroke:#CCCC88;stroke-width:1;"/><text fill="#000000" font-family="'Helvetica'" font-size="12" lengthAdjust="spacing" textLength="46.6992" x="362.7383" y="944.1309">Package</text><text fill="#000000" font-family="'Helvetica'" font-size="12" font-weight="bold" lengthAdjust="spacing" textLength="63.3457" x="412.7715" y="944.1309">markdown/</text><text fill="#000000" font-family="'Helvetica'" font-size="12" lengthAdjust="spacing" textLength="191.0859" x="362.7383" y="956.1309">goldmark AST -&gt; API Google Slides</text><text fill="#000000" font-family="'Helvetica'" font-size="12" lengthAdjust="spacing" textLength="120.0703" x="362.7383" y="968.1309">Support: gras, italique,</text><text fill="#000000" font-family="'Helvetica'" font-size="12" lengthAdjust="spacing" textLength="107.3672" x="362.7383" y="980.1309">code (Courier New),</text><text fill="#000000" font-family="'Helvetica'" font-size="12" lengthAdjust="spacing" textLength="90.0352" x="362.7383" y="992.1309">listes (2 niveaux)</text><rect fill="#F5F5F5" height="44" rx="12.5" ry="12.5" style="stroke:#AAAAAA;stroke-width:1;" width="161.416" x="175.3223" y="942.8906"/><text fill="#000000" font-family="'Helvetica'" font-size="12" lengthAdjust="spacing" textLength="141.416" x="185.3223" y="962.1309">4. CreateParagraphBullets</text><text fill="#000000" font-family="'Helvetica'" font-size="12" lengthAdjust="spacing" textLength="80.6953" x="185.3223" y="974.1309">(listes a puces)</text><rect fill="#98FB98" height="44" style="stroke:#AAAAAA;stroke-width:1;" width="128.0117" x="192.0244" y="1031.8906"/><line style="stroke:#AAAAAA;stroke-width:1;" x1="197.0244" x2="197.0244" y1="1031.8906" y2="1075.8906"/><line style="stroke:#AAAAAA;stroke-width:1;" x1="315.0361" x2="315.0361" y1="1031.8906" y2="1075.8906"/><text fill="#000000" font-family="'Helvetica'" font-size="12" lengthAdjust="spacing" textLength="99.3984" x="202.0244" y="1051.1309">Presentation finale</text><text fill="#000000" font-family="'Helvetica'" font-size="12" font-weight="bold" lengthAdjust="spacing" textLength="108.0117" x="202.0244" y="1063.1309">URL Google Slides</text><ellipse cx="256.0303" cy="1106.8906" fill="none" rx="11" ry="11" style="stroke:#000000;stroke-width:1;"/><ellipse cx="256.0303" cy="1106.8906" fill="#FFFFFF" rx="6" ry="6" style="stroke:#000000;stroke-width:1;"/><line style="stroke:#333333;stroke-width:1;" x1="256.0303" x2="256.0303" y1="127.9219" y2="169.9219"/><polygon fill="#333333" points="252.0303,159.9219,256.0303,169.9219,260.0303,159.9219,256.0303,163.9219" style="stroke:#333333;stroke-width:1;"/><line style="stroke:#333333;stroke-width:1;" x1="256.0303" x2="256.0303" y1="312.9219" y2="333.9219"/><polygon fill="#333333" points="252.0303,323.9219,256.0303,333.9219,260.0303,323.9219,256.0303,327.9219" style="stroke:#333333;stroke-width:1;"/><line style="stroke:#333333;stroke-width:1;" x1="256.0303" x2="256.0303" y1="213.9219" y2="268.9219"/><polygon fill="#333333" points="252.0303,258.9219,256.0303,268.9219,260.0303,258.9219,256.0303,262.9219" style="stroke:#333333;stroke-width:1;"/><line style="stroke:#333333;stroke-width:1;" x1="256.0303" x2="256.0303" y1="463.9219" y2="483.9219"/><polygon fill="#333333" points="252.0303,473.9219,256.0303,483.9219,260.0303,473.9219,256.0303,477.9219" style="stroke:#333333;stroke-width:1;"/><line style="stroke:#333333;stroke-width:1;" x1="256.0303" x2="256.0303" y1="365.9219" y2="419.9219"/><polygon fill="#333333" points="252.0303,409.9219,256.0303,419.9219,260.0303,409.9219,256.0303,413.9219" style="stroke:#333333;stroke-width:1;"/><line style="stroke:#333333;stroke-width:1;" x1="256.0303" x2="256.0303" y1="527.9219" y2="582.9219"/><polygon fill="#333333" points="252.0303,572.9219,256.0303,582.9219,260.0303,572.9219,256.0303,576.9219" style="stroke:#333333;stroke-width:1;"/><line style="stroke:#333333;stroke-width:1;" x1="256.0303" x2="256.0303" y1="725.9219" y2="745.9219"/><polygon fill="#333333" points="252.0303,735.9219,256.0303,745.9219,260.0303,735.9219,256.0303,739.9219" style="stroke:#333333;stroke-width:1;"/><line style="stroke:#333333;stroke-width:1;" x1="256.0303" x2="256.0303" y1="789.9219" y2="809.9219"/><polygon fill="#333333" points="252.0303,799.9219,256.0303,809.9219,260.0303,799.9219,256.0303,803.9219" style="stroke:#333333;stroke-width:1;"/><line style="stroke:#333333;stroke-width:1;" x1="256.0303" x2="256.0303" y1="853.9219" y2="873.9219"/><polygon fill="#333333" points="252.0303,863.9219,256.0303,873.9219,260.0303,863.9219,256.0303,867.9219" style="stroke:#333333;stroke-width:1;"/><line style="stroke:#333333;stroke-width:1;" x1="256.0303" x2="256.0303" y1="919.8906" y2="942.8906"/><polygon fill="#333333" points="252.0303,932.8906,256.0303,942.8906,260.0303,932.8906,256.0303,936.8906" style="stroke:#333333;stroke-width:1;"/><line style="stroke:#333333;stroke-width:1;" x1="256.0303" x2="256.0303" y1="626.9219" y2="681.9219"/><polygon fill="#333333" points="252.0303,671.9219,256.0303,681.9219,260.0303,671.9219,256.0303,675.9219" style="stroke:#333333;stroke-width:1;"/><line style="stroke:#333333;stroke-width:1;" x1="256.0303" x2="256.0303" y1="986.8906" y2="1031.8906"/><polygon fill="#333333" points="252.0303,1021.8906,256.0303,1031.8906,260.0303,1021.8906,256.0303,1025.8906" style="stroke:#333333;stroke-width:1;"/><line style="stroke:#333333;stroke-width:1;" x1="256.0303" x2="256.0303" y1="1075.8906" y2="1095.8906"/><polygon fill="#333333" points="252.0303,1085.8906,256.0303,1095.8906,260.0303,1085.8906,256.0303,1089.8906" style="stroke:#333333;stroke-width:1;"/><?plantuml-src VLJRRjf047ttLqp92t4fX4iKGgHAN4ABr50KacUqiGVOPjbrTzU4D8tKZ-WNzaiwQwyhXuJQ3vYTsvapP-UTNUC68H6Coy3SSvampJPmnwBxbLQfZ8TAA0r7uqltbZnYNB9KsB6ITieeG-KpYYrQ7h7Asrvp_WEXsIePpPh5we7B5IoPC5YozBLM3xvoEtlAniZoBRUFWrSOJztxbgVICMhlrS-UajTKMNoTYvxXSD-hd6T8JxSR19PRWJ1RCuFGXZ-_ViDCgpYbqaf23oADBFkC4GI3HAD1QVEZJqgjA7OkU8mc28nbsWO1rQESpbvfrvjPng5AE4ASWiKDZSfY1Pu2WDv8yotMnroWgPFFOxMmJqR7PF_maM2dMnHKf5puWcoI-W7DLsjBVy1NuDBYIZFnebPchrgLMZH0bM0A9aFiIg2CirJ1ynxmLWPyb2Q29E49C3uGehNYXgFnRGoOZTQtIKp5e4S7HHH-lVk6aONg3gwAK096gEJn6prCHiQr6NFY_iu1xMN7OHW_HMgJM4pry-9fCb8KmYKJps6OELpkUX0t5wjsfyDEpi_EJfkTHQUpE2ctvs1U4diqqIaK2QZ4Uq8MEUxCnIiASZNCqyHnRmeAV72wEzGy2YntNh1TgahDb_3yeoQL_7jAjrawEggH6tkPhtrudGpUDPAebPHCHbde0LJvPwxKcJByW8mc5dK-RPH0UZCagIrgWtuMqPeHn1mmiK788im5Hlw9pmid_nFMQGRxIiLyMLQMnPqzAAYPIdLHctus2MooUCo9RDOzwpUKn76tTV24z_Lij-emaGQrBPoakreipIjxftRTC-MSvlPHkEQgOKYNoeHX3HeDRfbmOseqQb2fH2h6IiK7T-emTDi2PxHnA29P3rAQeJKkX-36tJ_Q86bKA62F_1ajCRP24lo6wNjQhRBX5RvI8dPdq9_VkAtGdqtsbe_pSafLslR0eQr1WRIMJuwGGdL8H7BKCCM7u_pSuwgsG797nsv_AnoTTyU3ysvlLjvyoqp8GHZUNdzvYIGCVxfDg9BWBm00?></g></svg>