<?plantuml 1.2026.1?><svg xmlns="http://www.w3.org/2000/svg" xmlns:xlink="http://www.w3.org/1999/xlink" contentStyleType="text/css" data-diagram-type="DESCRIPTION" height="437px" preserveAspectRatio="none" style="width:457px;height:437px;background:#FEFEFE;" version="1.1" viewBox="0 0 457 437" width="457px" zoomAndPan="magnify"><title>Etape 1.3 &#8212; Analyse par IA vision</title><defs/><g><rect fill="#FEFEFE" height="437" style="stroke:none;stroke-width:1;" width="457" x="0" y="0"/><g class="title" data-source-line="14"><text fill="#000000" font-family="'Helvetica'" font-size="22" font-weight="bold" lengthAdjust="spacing" textLength="353.3535" x="47.6669" y="31.9404">Etape 1.3 &#8212; Analyse par IA vision</text></g><!--cluster store--><g class="cluster" data-qualified-name="store" data-source-line="16" id="ent0002"><path d="M110.0099,64 C110.0099,54 219.5099,54 219.5099,54 C219.5099,54 329.0099,54 329.0099,64 L329.0099,138 C329.0099,148 219.5099,148 219.5099,148 C219.5099,148 110.0099,148 110.0099,138 L110.0099,64" fill="#FFE0B2" style="stroke:#CCAA66;stroke-width:1;"/><path d="M110.0099,64 C110.0099,74 219.5099,74 219.5099,74 C219.5099,74 329.0099,74 329.0099,64" fill="none" style="stroke:#CCAA66;stroke-width:1;"/><text fill="#000000" font-family="'Helvetica'" font-size="12" font-weight="bold" lengthAdjust="spacing" textLength="86.6895" x="176.1652" y="85.2402">Template Store</text></g><!--entity png--><g class="entity" data-qualified-name="store.png" data-source-line="17" id="ent0003"><path d="M125.9899,102.5 L125.9899,129.5 A2.5,2.5 0 0 0 128.4899,132 L191.5251,132 A2.5,2.5 0 0 0 194.0251,129.5 L194.0251,110 L184.0251,100 L128.4899,100 A2.5,2.5 0 0 0 125.9899,102.5" fill="#FFFFFF" style="stroke:#000000;stroke-width:1;"/><path d="M184.0251,100 L184.0251,107.5 A2.5,2.5 0 0 0 186.5251,110 L194.0251,110" fill="#FFFFFF" style="stroke:#000000;stroke-width:1;"/><text fill="#000000" font-family="'Helvetica'" font-size="12" lengthAdjust="spacing" textLength="48.0352" x="135.9899" y="119.2402">slide.png</text></g><!--entity json--><g class="entity" data-qualified-name="store.json" data-source-line="18" id="ent0004"><path d="M228.6499,102.5 L228.6499,129.5 A2.5,2.5 0 0 0 231.1499,132 L310.8609,132 A2.5,2.5 0 0 0 313.3609,129.5 L313.3609,110 L303.3609,100 L231.1499,100 A2.5,2.5 0 0 0 228.6499,102.5" fill="#FFFFFF" style="stroke:#000000;stroke-width:1;"/><path d="M303.3609,100 L303.3609,107.5 A2.5,2.5 0 0 0 305.8609,110 L313.3609,110" fill="#FFFFFF" style="stroke:#000000;stroke-width:1;"/><text fill="#000000" font-family="'Helvetica'" font-size="12" lengthAdjust="spacing" textLength="64.7109" x="238.6499" y="119.2402">content.json</text></g><!--entity analyze--><g class="entity" data-qualified-name="analyze" data-source-line="21" id="ent0005"><rect fill="#B3D9FF" height="54" rx="2.5" ry="2.5" style="stroke:#AAAAAA;stroke-width:1;" width="135.3965" x="147.3099" y="220"/><rect fill="#B3D9FF" height="10" style="stroke:#AAAAAA;stroke-width:1;" width="15" x="262.7064" y="225"/><rect fill="#B3D9FF" height="2" style="stroke:#AAAAAA;stroke-width:1;" width="4" x="260.7064" y="227"/><rect fill="#B3D9FF" height="2" style="stroke:#AAAAAA;stroke-width:1;" width="4" x="260.7064" y="231"/><text fill="#000000" font-family="'Helvetica'" font-size="12" lengthAdjust="spacing" textLength="74.0449" x="162.3099" y="249.2402">analyzeSlides</text><text fill="#000000" font-family="'Helvetica'" font-size="12" font-style="italic" lengthAdjust="spacing" textLength="95.3965" x="162.3099" y="261.2402">analyze_slides.go</text></g><!--entity vertexai--><g class="entity" data-qualified-name="vertexai" data-source-line="23" id="ent0006"><path d="M25.3182,369.9477 C28.3132,363.6205 34.0821,364.0731 37.7979,369.1597 C40.1815,361.1591 47.2536,360.5805 52.0834,366.6814 C54.816,361.9833 60.4464,360.3123 63.5554,366.2764 C67.8875,360.3427 72.7384,360.9742 76.9393,366.4305 C82.3355,360.4995 86.8996,360.8807 91.0632,367.7866 C94.2237,361.4804 100.1605,361.2158 103.8397,367.2495 C107.6893,362.3425 112.0781,361.9366 115.7269,367.4779 C120.8023,362.5614 125.0466,362.4741 128.6248,369.1445 C133.8436,371.8832 136.2066,377.0846 130.0507,381.1719 C136.6813,384.2717 137.242,389.8794 131.5078,394.3467 C137.395,398.1768 135.7102,403.7707 129.9626,406.0668 C135.7459,409.9381 136.5696,416.0508 129.3537,419.325 C125.4015,425.9244 119.6248,425.5601 115.4299,419.594 C112.7941,425.0919 107.7756,425.8799 103.9166,420.9436 C100.0048,428.0338 94.8629,427.3993 90.3297,421.5986 C86.4064,430.0276 81.8085,428.5405 76.119,423.4558 C71.4761,428.7654 68.139,428.3607 65.1788,421.8928 C60.254,429.0998 55.3227,427.6165 50.921,421.3395 C47.2794,427.2932 42.0294,425.9692 38.7452,420.9432 C33.7936,426.4794 28.5722,425.6873 25.2058,419.1636 C18.8338,417.9886 15.1875,413.637 19.7965,407.4088 C11.9089,405.221 11,398.6554 16.6081,393.3967 C12.3342,387.3911 13.5059,382.0345 21.4339,380.6476 C17.415,375.0191 18.8652,371.7748 25.3182,369.9477" fill="#E8D5E8" style="stroke:#AA88AA;stroke-width:1;"/><text fill="#000000" font-family="'Helvetica'" font-size="12" lengthAdjust="spacing" textLength="49.3535" x="30.9799" y="384.2402">Vertex AI</text><text fill="#000000" font-family="'Helvetica'" font-size="12" lengthAdjust="spacing" textLength="90.0586" x="30.9799" y="396.2402">Claude Opus 4.5</text><text fill="#000000" font-family="'Helvetica'" font-size="12" lengthAdjust="spacing" textLength="40.6758" x="30.9799" y="408.2402">(Vision)</text></g><!--entity output--><g class="entity" data-qualified-name="output" data-source-line="25" id="ent0007"><path d="M205.9799,367.5 L205.9799,418.5 A2.5,2.5 0 0 0 208.4799,421 L329.5346,421 A2.5,2.5 0 0 0 332.0346,418.5 L332.0346,375 L322.0346,365 L208.4799,365 A2.5,2.5 0 0 0 205.9799,367.5" fill="#C8E6C9" style="stroke:#000000;stroke-width:1;"/><path d="M322.0346,365 L322.0346,372.5 A2.5,2.5 0 0 0 324.5346,375 L332.0346,375" fill="#C8E6C9" style="stroke:#000000;stroke-width:1;"/><text fill="#000000" font-family="'Helvetica'" font-size="12" lengthAdjust="spacing" textLength="68.7012" x="215.9799" y="384.2402">analysis.json</text><text fill="#000000" font-family="'Helvetica'" font-size="12" lengthAdjust="spacing" textLength="106.0547" x="215.9799" y="396.2402">- editableElements[]</text><text fill="#000000" font-family="'Helvetica'" font-size="12" lengthAdjust="spacing" textLength="94.6992" x="215.9799" y="408.2402">- visualElements[]</text></g><!--entity outputmd--><g class="entity" data-qualified-name="outputmd" data-source-line="26" id="ent0008"><path d="M367.3299,373.5 L367.3299,412.5 A2.5,2.5 0 0 0 369.8299,415 L448.1873,415 A2.5,2.5 0 0 0 450.6873,412.5 L450.6873,381 L440.6873,371 L369.8299,371 A2.5,2.5 0 0 0 367.3299,373.5" fill="#C8E6C9" style="stroke:#000000;stroke-width:1;"/><path d="M440.6873,371 L440.6873,378.5 A2.5,2.5 0 0 0 443.1873,381 L450.6873,381" fill="#C8E6C9" style="stroke:#000000;stroke-width:1;"/><text fill="#000000" font-family="'Helvetica'" font-size="12" lengthAdjust="spacing" textLength="63.3574" x="377.3299" y="390.2402">analysis.md</text><text fill="#000000" font-family="'Helvetica'" font-size="12" lengthAdjust="spacing" textLength="38.0039" x="377.3299" y="402.2402">(lisible)</text></g><!--link png to analyze--><g class="link" data-entity-1="ent0003" data-entity-2="ent0005" data-link-type="dependency" data-source-line="28" id="lnk9"><path d="M154.6599,132.24 C150.2099,147.51 145.8199,171.37 154.0099,190 C158.9799,201.32 163.0722,207.3009 172.1922,215.6409" fill="none" id="png-to-analyze" style="stroke:#333333;stroke-width:1;"/><polygon fill="#333333" points="176.6199,219.69,172.6777,210.6646,172.9301,216.3158,167.2789,216.5682,176.6199,219.69" style="stroke:#333333;stroke-width:1;"/><text fill="#000000" font-family="'Helvetica'" font-size="12" lengthAdjust="spacing" textLength="75.3867" x="155.0099" y="180.2402">image base64</text></g><!--link json to analyze--><g class="link" data-entity-1="ent0004" data-entity-2="ent0005" data-link-type="dependency" data-source-line="29" id="lnk10"><path d="M264.3699,132.3 C255.0399,153.79 240.3089,187.7161 228.8889,214.0261" fill="none" id="json-to-analyze" style="stroke:#333333;stroke-width:1;"/><polygon fill="#333333" points="226.4999,219.53,233.7527,212.8668,228.4907,214.9434,226.4141,209.6815,226.4999,219.53" style="stroke:#333333;stroke-width:1;"/><text fill="#000000" font-family="'Helvetica'" font-size="12" lengthAdjust="spacing" textLength="78.7031" x="268.6699" y="174.2402">resume textuel</text><text fill="#000000" font-family="'Helvetica'" font-size="12" lengthAdjust="spacing" textLength="114.7031" x="250.6699" y="186.2402">(ObjectIDs, positions)</text></g><!--link analyze to vertexai--><g class="link" data-entity-1="ent0005" data-entity-2="ent0006" data-link-type="dependency" data-source-line="30" id="lnk11"><path d="M147.0899,250.54 C108.1399,255.92 62.1099,269.78 37.0099,304 C24.6499,320.84 30.1746,337.3361 42.6346,354.7961" fill="none" id="analyze-to-vertexai" style="stroke:#333333;stroke-width:1;"/><polygon fill="#333333" points="46.1199,359.68,44.1479,350.0306,43.2155,355.6101,37.636,354.6777,46.1199,359.68" style="stroke:#333333;stroke-width:1;"/><text fill="#000000" font-family="'Helvetica'" font-size="12" lengthAdjust="spacing" textLength="56.6836" x="49.8517" y="314.2402">rawPredict</text><text fill="#000000" font-family="'Helvetica'" font-size="12" lengthAdjust="spacing" textLength="80.3672" x="38.0099" y="326.2402">(image + texte)</text></g><!--link vertexai to analyze--><g class="link" data-entity-1="ent0006" data-entity-2="ent0005" data-link-type="dependency" data-source-line="31" id="lnk12"><path d="M103.8699,359.61 C118.7099,342.71 137.4699,321.88 155.0099,304 C164.7899,294.03 171.4669,287.5659 181.4269,278.3459" fill="none" id="vertexai-to-analyze" style="stroke:#333333;stroke-width:1;"/><polygon fill="#333333" points="185.8299,274.27,176.5081,277.4485,182.1607,277.6666,181.9426,283.3192,185.8299,274.27" style="stroke:#333333;stroke-width:1;"/><text fill="#000000" font-family="'Helvetica'" font-size="12" lengthAdjust="spacing" textLength="82.0195" x="156.0099" y="320.2402">JSON structure</text></g><!--link analyze to output--><g class="link" data-entity-1="ent0005" data-entity-2="ent0007" data-link-type="dependency" data-source-line="32" id="lnk13"><path d="M232.0199,274.31 C237.3799,283.44 242.9599,293.92 247.0099,304 C254.9399,323.73 259.4247,341.2402 263.0247,358.9502" fill="none" id="analyze-to-output" style="stroke:#333333;stroke-width:1;"/><polygon fill="#333333" points="264.2199,364.83,266.3469,355.2136,263.2239,359.9302,258.5073,356.8072,264.2199,364.83" style="stroke:#333333;stroke-width:1;"/></g><!--link analyze to outputmd--><g class="link" data-entity-1="ent0005" data-entity-2="ent0008" data-link-type="dependency" data-source-line="33" id="lnk14"><path d="M250.5899,274.41 C287.8899,302.1 340.9622,341.4937 375.4622,367.1037" fill="none" id="analyze-to-outputmd" style="stroke:#333333;stroke-width:1;"/><polygon fill="#333333" points="380.2799,370.68,375.4375,362.1038,376.2652,367.6998,370.6692,368.5274,380.2799,370.68" style="stroke:#333333;stroke-width:1;"/></g><?plantuml-src RLDDZzCm4BtxLmpP2nMqXUsswd90IjDKB8SjKj5UA49kFErwrx4ZssbX4H8_Wb_8Bs7iVf1kwnnYpRnvyzvCyiBVOubGAIurSuzILzpo4XQyU5nPKskH6MKiN4poy3GG0fUyLdvYjB_bn91yGBL6BmkUd4VDv1F2syj6qjrpOJPIhs39bSD69hNMR7QTU_4qafafAwDH-z69o7vupaAD5MXti3IU1cpCFLzmXwU4a_pDwF8SiicNPMaw63JRAbEB4x9yEExdmnFOiRBXa9GnBxr2o3slQ6IT7lpz_GTIpTKFHwlY5cvIM4idZMPCx1H1yXbBMgD7c7bZCG7km8KR_6H0Poc9Cd5A2knKUXNpz6xa2jeIpQhpu8oEwN1XlnWhzcE4X0SLJpWBD6wkkzrTu5iaTfsLwNPZxIuE5wFU-7eo8PBW5f8xj1w_GteprvdYjK2OLhM3gqv_hb_UHLEjIB2EG2uPswgBX4wwA6-ksu12adM5kQ8lM7ltvMk8qbnghlx78fUfVLLxsjGm7sJNpmbBGQqLjIQoLWDVYaC5eqb1k_t-OEiTo9Al4CBe1rSiQ7gMj-Xg-Y_8WwzHKOVfuW4BVpDshw4oJdfowbfiNn2AzvP3DTzyikImy5IvRVKgSc6B7M373J_EfhUqSLiNlhPuHBprSoPK2lOF?></g></svg>